<svg width="48" height="48" viewBox="0 0 48 48" fill="none" xmlns="http://www.w3.org/2000/svg">
<g clip-path="url(#clip0)">
<path d="M19.8138 22.4517L19.3073 25.4047C19.1106 26.5513 20.3175 27.4288 21.3477 26.8872L23.9997 25.4929L26.6517 26.8872C27.6732 27.4243 28.8902 26.5592 28.6921 25.4047L28.1856 22.4517L30.3311 20.3603C31.1642 19.5483 30.7035 18.129 29.5518 17.9617L26.5869 17.5309L25.2609 14.8442C24.746 13.8009 23.2538 13.8004 22.7387 14.8442L21.4126 17.5308L18.4477 17.9616C17.2963 18.1289 16.8349 19.5478 17.6684 20.3602L19.8138 22.4517ZM22.5487 20.2078C23.0067 20.1412 23.4027 19.8536 23.6075 19.4386L23.9997 18.644L24.3919 19.4386C24.5967 19.8536 24.9927 20.1413 25.4507 20.2078L26.3276 20.3352L25.6931 20.9537C25.3616 21.2768 25.2104 21.7422 25.2886 22.1984L25.4384 23.0717L24.6542 22.6594C24.2447 22.4441 23.755 22.4441 23.3454 22.6594L22.5612 23.0717L22.711 22.1984C22.7892 21.7422 22.638 21.2768 22.3065 20.9537L21.672 20.3352L22.5487 20.2078Z" fill="#B45754"/>
<path d="M24 33.7481C30.9788 33.7481 36.6565 28.0704 36.6565 21.0916C36.6565 14.1128 30.9788 8.43506 24 8.43506C17.0212 8.43506 11.3435 14.1128 11.3435 21.0916C11.3435 28.0704 17.0211 33.7481 24 33.7481ZM24 11.2476C29.428 11.2476 33.8439 15.6636 33.8439 21.0916C33.8439 26.5195 29.428 30.9355 24 30.9355C18.5721 30.9355 14.1561 26.5195 14.1561 21.0916C14.1561 15.6636 18.5721 11.2476 24 11.2476Z" fill="#B45754"/>
<path d="M4.04782 25.484C3.37778 26.8547 3.92922 28.5515 5.27719 29.2662L8.96135 31.2198C9.26399 31.3802 9.66112 31.9269 9.72028 32.2642L10.4404 36.3715C10.7038 37.8742 12.1473 38.923 13.6577 38.7093L16.9683 38.241V46.5921C16.9683 47.6355 18.0688 48.3173 19.0035 47.85L23.9997 45.3519L28.9959 47.85C29.927 48.3155 31.0311 47.6382 31.0311 46.5921V38.241L34.3418 38.7093C35.8524 38.923 37.2957 37.8739 37.5591 36.3715L38.2791 32.2642C38.3383 31.9268 38.7355 31.3802 39.0381 31.2198L42.7222 29.2662C44.0702 28.5514 44.6216 26.8547 43.9516 25.484L42.1202 21.7375C41.9697 21.4297 41.9697 20.7537 42.1202 20.4459L43.9516 16.6994C44.6216 15.3286 44.0701 13.6319 42.7222 12.9171L39.0381 10.9635C38.7354 10.8031 38.3383 10.2565 38.2791 9.91913L37.559 5.81187C37.2956 4.30912 35.8519 3.26041 34.3418 3.47407L30.2133 4.05796C29.8743 4.10596 29.2313 3.89708 28.9785 3.65239L25.9883 0.796611C24.8918 -0.264472 23.1077 -0.264472 22.0179 0.790236L19.0143 3.65885C18.7682 3.89708 18.1255 4.10605 17.7861 4.05805L13.6577 3.47416C12.1464 3.26032 10.7037 4.30921 10.4403 5.81196L9.72028 9.91923C9.66112 10.2565 9.26389 10.8032 8.96135 10.9636L5.27728 12.9171C3.92941 13.6319 3.37787 15.3286 4.04791 16.6994L5.87936 20.4459C6.02983 20.7537 6.02983 21.4297 5.87936 21.7375L4.04782 25.484ZM24.6287 42.5218C24.2328 42.3239 23.7668 42.3239 23.3709 42.5218L19.781 44.3168V39.2665L22.0113 41.4248C23.1078 42.4858 24.8919 42.4858 25.9884 41.4248L28.2187 39.2665V44.3169L24.6287 42.5218ZM8.40616 19.2107L6.57462 15.4642C6.56806 15.4508 6.58175 15.409 6.59487 15.4019L10.279 13.4483C11.351 12.8799 12.281 11.5999 12.4905 10.4048L13.2107 6.2975C13.2133 6.28278 13.249 6.25653 13.2638 6.25888L17.3923 6.84276C18.5937 7.01264 20.0983 6.52363 20.9635 5.68633L23.9671 2.81771C23.9778 2.8074 24.0217 2.8074 24.0391 2.82409L27.0294 5.67986C27.9013 6.52354 29.406 7.01264 30.6072 6.84267L34.7357 6.25878C34.7506 6.25672 34.7862 6.28269 34.7889 6.29741L35.509 10.4047C35.7185 11.5998 36.6486 12.8797 37.7205 13.4481L41.4046 15.4017C41.4178 15.4087 41.4315 15.4506 41.4249 15.4639L39.5935 19.2104C39.0607 20.3003 39.0607 21.8824 39.5935 22.9724L41.4249 26.7189C41.4315 26.7323 41.4178 26.7742 41.4046 26.7812L37.7205 28.7349C36.6485 29.3034 35.7185 30.5834 35.509 31.7785L34.7889 35.8858C34.7862 35.9005 34.7519 35.9265 34.7357 35.9245L30.6072 35.3405C29.406 35.1705 27.9013 35.6596 27.0294 36.5033L24.0324 39.4035C24.0218 39.4138 23.9778 39.4138 23.9672 39.4035L20.9702 36.5033C20.0982 35.6595 18.5932 35.1705 17.3924 35.3405L13.2639 35.9244C13.2498 35.9268 13.2133 35.9005 13.2108 35.8858L12.4906 31.7785C12.2811 30.5834 11.351 29.3035 10.2791 28.7349L6.59496 26.7813C6.58184 26.7744 6.56815 26.7325 6.57471 26.7191L8.40616 22.9726C8.93885 21.8827 8.93885 20.3006 8.40616 19.2107Z" fill="#B45754"/>
</g>
<defs>
<clipPath id="clip0">
<rect width="48" height="48" fill="white"/>
</clipPath>
</defs>
</svg>
