<svg width="28" height="31" viewBox="0 0 28 31" fill="none" xmlns="http://www.w3.org/2000/svg">
<path opacity="0.15" fill-rule="evenodd" clip-rule="evenodd" d="M2.51145 11C0.904304 11 -0.0464331 12.7997 0.85938 14.1272L11.5063 29.7315C12.2711 30.8523 13.9062 30.9025 14.7382 29.8306L26.8517 14.2264C27.8718 12.9124 26.9353 11 25.2719 11L20.4169 11C19.3123 11 18.4168 10.1046 18.4168 9L18.4168 2C18.4169 0.89543 17.5214 -3.89749e-07 16.4168 -4.33884e-07L10.5713 -6.67458e-07C9.46669 -7.11593e-07 8.57126 0.89543 8.57126 2L8.57126 9C8.57126 10.1046 7.67583 11 6.57126 11L2.51145 11Z" fill="#B45754"/>
</svg>
