<svg width="62" height="62" viewBox="0 0 62 62" fill="none" xmlns="http://www.w3.org/2000/svg">
<circle cx="31" cy="31" r="30.5" fill="white" stroke="#D1C0C0"/>
<g clip-path="url(#clip0)">
<path d="M32.0842 26.917H30.9175C30.5954 26.917 30.3342 27.1781 30.3342 27.5003C30.3342 27.8225 30.5954 28.0836 30.9175 28.0836H32.0842C32.4064 28.0836 32.6676 27.8225 32.6676 27.5003C32.6676 27.1781 32.4064 26.917 32.0842 26.917Z" fill="#B45754"/>
<path d="M29.7509 22.8335H27.4175C27.0954 22.8335 26.8342 23.0946 26.8342 23.4168C26.8342 23.739 27.0954 24.0001 27.4175 24.0001H28.0008V24.5834C28.0008 24.9056 28.2621 25.1667 28.5842 25.1667C28.9063 25.1667 29.1675 24.9055 29.1675 24.5834V24.0002H29.7508C30.073 24.0002 30.3341 23.7391 30.3341 23.4169C30.3341 23.0947 30.073 22.8335 29.7509 22.8335Z" fill="#B45754"/>
<path d="M35.5841 22.8335H33.2508C32.9286 22.8335 32.6675 23.0946 32.6675 23.4168C32.6675 23.739 32.9286 24.0001 33.2508 24.0001H33.8341V24.5834C33.8341 24.9056 34.0952 25.1667 34.4174 25.1667C34.7396 25.1667 35.0007 24.9055 35.0007 24.5834V24.0002H35.584C35.9062 24.0002 36.1673 23.7391 36.1673 23.4169C36.1673 23.0947 35.9063 22.8335 35.5841 22.8335Z" fill="#B45754"/>
<path d="M32.6676 29.25H30.3343C30.0121 29.25 29.751 29.5111 29.751 29.8333C29.751 30.1555 30.0121 30.4166 30.3343 30.4166H32.6676C32.9898 30.4166 33.2509 30.1555 33.2509 29.8333C33.2509 29.5111 32.9898 29.25 32.6676 29.25Z" fill="#B45754"/>
<path d="M45.5708 42.718L44.7944 40.2884C44.137 38.5302 42.8094 37.1044 41.1024 36.3236C41.0795 36.3106 41.0555 36.2993 41.0309 36.2897C40.269 35.9494 39.4529 35.7466 38.6202 35.6908C38.5814 35.6784 38.5414 35.6703 38.5007 35.6667C38.4761 35.6699 38.4518 35.6748 38.4278 35.6814C38.327 35.6771 38.2274 35.6667 38.1259 35.6667H36.5315C36.1882 34.5407 36.12 33.3489 36.3326 32.1912C36.4055 31.5737 36.5094 30.9604 36.644 30.3535C37.3666 29.5627 37.8121 28.5583 37.9134 27.4919C37.9871 27.5132 38.063 27.5258 38.1395 27.5297C38.2459 27.5295 38.3515 27.512 38.4523 27.4779C38.7531 27.3776 39.6674 27.0728 39.6674 23.4168C39.6771 23.0218 39.6231 22.6279 39.5075 22.2501H40.8341V19.9168C40.8318 19.1776 40.3646 18.5198 39.6674 18.2742V17C39.6627 13.9684 37.3385 11.4448 34.3176 11.1912C34.0795 10.4816 33.4159 10.0025 32.6674 10H29.9695C29.2049 10.0027 28.531 10.5024 28.3063 11.2332C25.4533 11.6658 23.3421 14.1144 23.3341 17V18.2742C22.6369 18.5197 22.1698 19.1775 22.1674 19.9167V22.25H23.494C23.3784 22.6278 23.3244 23.0217 23.3341 23.4167C23.3341 27.0728 24.2484 27.3775 24.5492 27.4778C24.65 27.512 24.7556 27.5295 24.862 27.5296C24.9385 27.5258 25.0144 27.5131 25.0881 27.4919C25.1893 28.5583 25.6348 29.5627 26.3575 30.3535C26.4923 30.9615 26.5963 31.576 26.6689 32.1945C26.8814 33.3512 26.8131 34.5418 26.47 35.6666H24.8756C24.7741 35.6666 24.6745 35.6771 24.5738 35.6813C24.5498 35.6748 24.5254 35.6698 24.5007 35.6666C24.4601 35.6702 24.4201 35.6783 24.3813 35.6907C23.5486 35.7465 22.7325 35.9492 21.9706 36.2896C21.946 36.2992 21.9222 36.3105 21.8992 36.3234C20.183 37.1083 18.8506 38.5452 18.1974 40.3157L17.4312 42.7173C17.2581 43.2493 17.3525 43.8321 17.6847 44.2822C18.0123 44.7357 18.5386 45.0029 19.098 45H43.9034C44.8699 45.0001 45.6535 44.2166 45.6536 43.2501C45.6537 43.0695 45.6257 42.8899 45.5708 42.718ZM21.5841 43.8333H19.0981C18.7761 43.8334 18.5149 43.5725 18.5149 43.2505C18.5149 43.19 18.5242 43.1299 18.5427 43.0723L19.2998 40.6973C19.5971 39.9009 20.0626 39.1778 20.6647 38.5776C20.9455 38.2967 21.2535 38.0444 21.5841 37.8242V43.8333ZM23.9174 43.8333H22.7507V37.2281C23.128 37.0845 23.5189 36.98 23.9174 36.9162V43.8333ZM26.2507 43.8333H25.0841V36.8333H26.2507V43.8333ZM38.5007 23.4167C38.5007 25.243 38.2467 26.0605 38.1014 26.3134C38.0094 26.2327 37.9257 26.1429 37.8518 26.0452C37.818 24.9097 37.9299 23.7746 38.1847 22.6676C38.2444 22.6211 38.3101 22.5827 38.38 22.5537C38.4811 22.8295 38.5223 23.1237 38.5007 23.4167ZM34.4174 12.3738C36.7484 12.6694 38.497 14.6504 38.5007 17V18.1667H34.4174V12.3738ZM29.3862 11.75C29.3864 11.428 29.6475 11.1669 29.9695 11.1667H32.6674C32.9895 11.1669 33.2505 11.428 33.2507 11.75V18.1667H29.3862V11.75ZM24.5007 17C24.5074 14.7912 26.0577 12.8879 28.2195 12.4346V18.1667H24.5007V17ZM23.3341 21.0833V19.9166C23.3343 19.5946 23.5954 19.3335 23.9174 19.3333H39.0841C39.4062 19.3335 39.6672 19.5946 39.6674 19.9166V21.0833H23.3341ZM25.1498 26.0451C25.0758 26.1427 24.9922 26.2326 24.9001 26.3134C24.7548 26.0605 24.5007 25.243 24.5007 23.4167C24.4793 23.1237 24.5205 22.8295 24.6215 22.5537C24.6915 22.5833 24.7572 22.6219 24.8171 22.6687C25.0716 23.7754 25.1835 24.9101 25.1498 26.0451ZM26.2507 27.4533C26.2507 27.324 26.2559 27.1953 26.2661 27.0751C26.4182 25.4585 26.3003 23.8279 25.9174 22.2501H37.0841C36.7013 23.8266 36.5835 25.4558 36.7354 27.0711C36.7456 27.1953 36.7507 27.324 36.7507 27.4534C36.7507 28.583 35.5305 30.1934 33.314 31.989C32.2563 32.8465 30.7426 32.8457 29.6858 31.9873C27.471 30.1934 26.2507 28.5829 26.2507 27.4533ZM30.9174 43.8333H27.4174V37.3699C27.6613 37.6517 27.9176 37.9824 28.1483 38.2808C28.957 39.3286 29.8588 40.4858 30.9174 40.8161V43.8333ZM29.0717 37.5682C28.6519 36.968 28.1628 36.4195 27.6144 35.934C27.9738 34.6749 28.0466 33.3512 27.8276 32.0601C27.8214 32.0056 27.8106 31.9486 27.8039 31.8939C28.1563 32.2208 28.53 32.552 28.9504 32.8924C30.4361 34.0979 32.5629 34.0987 34.0495 32.8941C34.4703 32.5533 34.8444 32.2216 35.1972 31.8943C35.1907 31.9477 35.18 32.0036 35.174 32.0566C34.9548 33.3488 35.0277 34.6736 35.3872 35.934C34.8388 36.4195 34.3496 36.9679 33.9298 37.5681C33.1796 38.54 32.2459 39.75 31.5007 39.75C30.7556 39.75 29.822 38.54 29.0717 37.5682ZM35.5841 43.8333H32.0841V40.8161C33.1429 40.4858 34.0446 39.3286 34.8532 38.2808C35.0839 37.9824 35.3403 37.6517 35.5841 37.3699V43.8333ZM37.9174 43.8333H36.7507V36.8333H37.9174V43.8333ZM40.2507 43.8333H39.0841V36.9163C39.4826 36.9801 39.8735 37.0845 40.2507 37.2281V43.8333ZM44.0804 43.8058C44.0232 43.824 43.9635 43.8333 43.9034 43.8333H41.4174V37.8241C41.748 38.0443 42.0559 38.2967 42.3368 38.5776C42.9327 39.1703 43.3948 39.8838 43.692 40.6699L44.4594 43.0727C44.5572 43.38 44.3875 43.7081 44.0804 43.8058Z" fill="#B45754"/>
</g>
<defs>
<clipPath id="clip0">
<rect x="14" y="10" width="35" height="35" fill="white"/>
</clipPath>
</defs>
</svg>
