<svg width="61" height="61" viewBox="0 0 61 61" fill="none" xmlns="http://www.w3.org/2000/svg">
<path d="M51.9453 51.1709H51.6475V49.5476C51.6475 49.0541 51.2475 48.6541 50.7539 48.6541C50.2603 48.6541 49.8604 49.0541 49.8604 49.5476V51.1709H48.0732V42.2513C48.7596 41.2283 49.3584 40.1419 49.8604 39.0035V45.7351C49.8604 46.2286 50.2603 46.6287 50.7539 46.6287C51.2475 46.6287 51.6475 46.2286 51.6475 45.7351V30.1426C51.6475 30.109 51.6452 30.076 51.6416 30.0435C51.3977 18.5927 42.0082 9.35254 30.5 9.35254C24.2301 9.35254 18.5899 12.0962 14.7139 16.4449V9.8291H15.0117C15.5053 9.8291 15.9053 9.42903 15.9053 8.93555V4.16992C15.9053 3.67644 15.5053 3.27637 15.0117 3.27637H14.7139V0.893555C14.7139 0.400074 14.3139 0 13.8203 0H10.2461C9.75249 0 9.35254 0.400074 9.35254 0.893555V3.27637H9.05469C8.56109 3.27637 8.16113 3.67644 8.16113 4.16992V8.93555C8.16113 9.42903 8.56109 9.8291 9.05469 9.8291H9.35254V11.4077C9.35254 11.9012 9.75249 12.3013 10.2461 12.3013C10.7397 12.3013 11.1396 11.9012 11.1396 11.4077V9.8291H12.9268V18.7487C12.2404 19.7717 11.6416 20.8581 11.1396 21.9965V15.25C11.1396 14.7565 10.7397 14.3564 10.2461 14.3564C9.75249 14.3564 9.35254 14.7565 9.35254 15.25V30.8574C9.35254 30.8923 9.35504 30.9268 9.35897 30.9606C9.49265 37.2 12.3349 43.0055 17.2062 46.9474C17.5899 47.2578 18.1525 47.1985 18.4629 46.8149C18.7732 46.4312 18.7139 45.8687 18.3304 45.5582C13.7605 41.8604 11.1396 36.3718 11.1396 30.5C11.1396 19.8246 19.8246 11.1396 30.5 11.1396C41.1754 11.1396 49.8604 19.8246 49.8604 30.5C49.8604 41.1754 41.1754 49.8604 30.5 49.8604C27.2315 49.8604 24.0014 49.031 21.1585 47.4619C20.7268 47.2236 20.183 47.3804 19.9445 47.8124C19.7061 48.2444 19.8629 48.7881 20.295 49.0265C23.4015 50.7412 26.9303 51.6475 30.5 51.6475C36.7699 51.6475 42.4101 48.9038 46.2861 44.5551V51.1709H45.9883C45.4947 51.1709 45.0947 51.571 45.0947 52.0645V56.8301C45.0947 57.3236 45.4947 57.7236 45.9883 57.7236H46.2861V60.1064C46.2861 60.5999 46.6861 61 47.1797 61H50.7539C51.2475 61 51.6475 60.5999 51.6475 60.1064V57.7236H51.9453C52.4389 57.7236 52.8389 57.3236 52.8389 56.8301V52.0645C52.8389 51.571 52.4389 51.1709 51.9453 51.1709ZM11.1396 1.78711H12.9268V3.27637H11.1396V1.78711ZM14.1182 8.04199H9.94824V5.06348H11.1396V6.55273C11.1396 7.04622 11.5396 7.44629 12.0332 7.44629C12.5268 7.44629 12.9268 7.04622 12.9268 6.55273V5.06348H14.1182V8.04199ZM49.8604 59.2129H48.0732V57.7236H49.8604V59.2129ZM51.0518 55.9365H49.8604V54.4473C49.8604 53.9538 49.4604 53.5537 48.9668 53.5537C48.4732 53.5537 48.0732 53.9538 48.0732 54.4473V55.9365H46.8818V52.958H51.0518V55.9365Z" fill="#B45754"/>
<path d="M30.5 16.501C22.7809 16.501 16.501 22.7809 16.501 30.5C16.501 38.2191 22.7809 44.499 30.5 44.499C38.2191 44.499 44.499 38.2191 44.499 30.5C44.499 22.7809 38.2191 16.501 30.5 16.501ZM30.5 42.7119C23.7663 42.7119 18.2881 37.2337 18.2881 30.5C18.2881 23.7663 23.7663 18.2881 30.5 18.2881C37.2337 18.2881 42.7119 23.7663 42.7119 30.5C42.7119 37.2337 37.2337 42.7119 30.5 42.7119Z" fill="#B45754"/>
<path d="M33.1727 13.1297C32.3011 12.9961 31.4084 12.9268 30.5 12.9268C29.5916 12.9268 28.6991 12.9961 27.8273 13.1297C19.4012 14.4208 12.9268 21.7185 12.9268 30.5C12.9268 39.2815 19.4012 46.5792 27.8273 47.8703C28.699 48.0039 29.5916 48.0732 30.5 48.0732C31.4084 48.0732 32.3009 48.0039 33.1727 47.8703C41.5988 46.5792 48.0732 39.2815 48.0732 30.5C48.0732 21.7185 41.5988 14.4208 33.1727 13.1297ZM30.5 46.2861C21.7955 46.2861 14.7139 39.2045 14.7139 30.5C14.7139 21.7955 21.7955 14.7139 30.5 14.7139C39.2045 14.7139 46.2861 21.7955 46.2861 30.5C46.2861 39.2045 39.2045 46.2861 30.5 46.2861Z" fill="#B45754"/>
</svg>
