<svg width="62" height="62" viewBox="0 0 62 62" fill="none" xmlns="http://www.w3.org/2000/svg">
<circle cx="31" cy="31" r="30.5" fill="white" stroke="#D1C0C0"/>
<path fill-rule="evenodd" clip-rule="evenodd" d="M42.9875 18.675H40.3062V17.8875C40.3062 16.957 39.5492 16.2 38.6187 16.2C37.6882 16.2 36.9312 16.957 36.9312 17.8875V18.675H27.4812V17.8875C27.4812 16.957 26.7242 16.2 25.7937 16.2C24.8632 16.2 24.1062 16.957 24.1062 17.8875V18.6958C24.0584 18.6825 24.0083 18.675 23.9563 18.675H21.715C20.1642 18.675 18.9025 19.9366 18.9025 21.4875V31.0687C18.9025 31.3794 19.1544 31.6312 19.465 31.6312C19.7757 31.6312 20.0275 31.3794 20.0275 31.0687V24.4687H40.3062C40.6168 24.4687 40.8687 24.2169 40.8687 23.9062C40.8687 23.5955 40.6168 23.3437 40.3062 23.3437H20.0275V21.4875C20.0275 20.557 20.7846 19.8 21.715 19.8H23.9563C24.0083 19.8 24.0584 19.7923 24.1062 19.7791V20.5031C24.1062 21.4336 24.8632 22.1906 25.7937 22.1906C26.7242 22.1906 27.4812 21.4336 27.4812 20.5031V19.8H36.9312V20.5031C36.9312 21.4336 37.6882 22.1906 38.6187 22.1906C39.5492 22.1906 40.3062 21.4336 40.3062 20.5031V19.8H42.9875C43.918 19.8 44.675 20.557 44.675 21.4875V42.8621C44.675 43.4206 44.2207 43.875 43.6622 43.875C43.1037 43.875 42.6493 43.4206 42.6493 42.8621V41.407C42.6493 41.0963 42.3974 40.8445 42.0868 40.8445H35.5438C35.2332 40.8445 34.9813 41.0963 34.9813 41.407C34.9813 41.7177 35.2332 41.9695 35.5438 41.9695H41.5243V42.8621C41.5243 43.2284 41.617 43.5733 41.78 43.875H19.1375C18.5792 43.875 18.125 43.4207 18.125 42.8624V41.9695H30.7152C31.0258 41.9695 31.2777 41.7177 31.2777 41.407C31.2777 41.0963 31.0258 40.8445 30.7152 40.8445H25.0949C26.0778 39.998 26.7019 38.7459 26.7019 37.35C26.7019 34.8066 24.6328 32.7375 22.0894 32.7375C19.5461 32.7375 17.4769 34.8066 17.4769 37.35C17.4769 38.7459 18.1011 39.998 19.084 40.8445H17.5625C17.2519 40.8445 17 41.0963 17 41.407V42.8624C17 44.0411 17.9589 45 19.1375 45H43.6622C44.8409 45 45.8 44.0409 45.8 42.8621V21.4875C45.8 19.9366 44.5383 18.675 42.9875 18.675ZM26.3562 20.5031C26.3562 20.8132 26.1039 21.0656 25.7937 21.0656C25.4836 21.0656 25.2312 20.8132 25.2312 20.5031V17.8875C25.2312 17.5773 25.4836 17.325 25.7937 17.325C26.1039 17.325 26.3562 17.5773 26.3562 17.8875V20.5031ZM39.1812 20.5031C39.1812 20.8132 38.9289 21.0656 38.6187 21.0656C38.3086 21.0656 38.0562 20.8132 38.0562 20.5031V17.8875C38.0562 17.5773 38.3086 17.325 38.6187 17.325C38.9289 17.325 39.1812 17.5773 39.1812 17.8875V20.5031ZM18.6019 37.35C18.6019 35.4269 20.1664 33.8625 22.0894 33.8625C24.0125 33.8625 25.5769 35.4269 25.5769 37.35C25.5769 39.273 24.0125 40.8375 22.0894 40.8375C20.1664 40.8375 18.6019 39.273 18.6019 37.35ZM43.3424 23.5085C43.2378 23.4039 43.0927 23.3437 42.9448 23.3437C42.7968 23.3437 42.6517 23.4039 42.5471 23.5085C42.4424 23.6131 42.3823 23.7583 42.3823 23.9062C42.3823 24.0541 42.4424 24.1993 42.5471 24.3039C42.6518 24.4085 42.7968 24.4687 42.9448 24.4687C43.0927 24.4687 43.2378 24.4085 43.3424 24.3039C43.447 24.1993 43.5073 24.0541 43.5073 23.9062C43.5073 23.7583 43.4471 23.6131 43.3424 23.5085ZM33.4014 40.8447C33.5493 40.8447 33.6944 40.9043 33.799 41.0089C33.9037 41.1141 33.9639 41.2587 33.9639 41.4066C33.9639 41.5546 33.9036 41.6997 33.799 41.8049C33.6944 41.9095 33.5493 41.9691 33.4014 41.9691C33.2534 41.9691 33.1083 41.9095 33.0037 41.8049C32.899 41.6997 32.8389 41.5551 32.8389 41.4066C32.8389 41.2587 32.8991 41.1141 33.0037 41.0089C33.1083 40.9043 33.2534 40.8447 33.4014 40.8447ZM29.7263 33.3C28.5477 33.3 27.5888 34.2588 27.5888 35.4375C27.5888 36.6161 28.5477 37.575 29.7263 37.575C30.9049 37.575 31.8638 36.6161 31.8638 35.4375C31.8638 34.2588 30.9049 33.3 29.7263 33.3ZM29.7263 36.45C29.168 36.45 28.7138 35.9957 28.7138 35.4375C28.7138 34.8792 29.168 34.425 29.7263 34.425C30.2845 34.425 30.7388 34.8792 30.7388 35.4375C30.7388 35.9957 30.2845 36.45 29.7263 36.45ZM32.8388 35.4375C32.8388 34.2588 33.7977 33.3 34.9763 33.3C36.1549 33.3 37.1138 34.2588 37.1138 35.4375C37.1138 36.6161 36.1549 37.575 34.9763 37.575C33.7977 37.575 32.8388 36.6161 32.8388 35.4375ZM33.9638 35.4375C33.9638 35.9957 34.418 36.45 34.9763 36.45C35.5346 36.45 35.9888 35.9957 35.9888 35.4375C35.9888 34.8792 35.5346 34.425 34.9763 34.425C34.418 34.425 33.9638 34.8792 33.9638 35.4375ZM40.2263 33.3C39.0477 33.3 38.0888 34.2588 38.0888 35.4375C38.0888 36.6161 39.0477 37.575 40.2263 37.575C41.4049 37.575 42.3638 36.6161 42.3638 35.4375C42.3638 34.2588 41.4049 33.3 40.2263 33.3ZM40.2263 36.45C39.668 36.45 39.2138 35.9957 39.2138 35.4375C39.2138 34.8792 39.668 34.425 40.2263 34.425C40.7845 34.425 41.2388 34.8792 41.2388 35.4375C41.2388 35.9957 40.7845 36.45 40.2263 36.45ZM22.3388 29.5875C22.3388 28.4088 23.2977 27.45 24.4763 27.45C25.6549 27.45 26.6138 28.4088 26.6138 29.5875C26.6138 30.7661 25.6549 31.725 24.4763 31.725C23.2977 31.725 22.3388 30.7661 22.3388 29.5875ZM23.4638 29.5875C23.4638 30.1457 23.918 30.6 24.4763 30.6C25.0346 30.6 25.4888 30.1457 25.4888 29.5875C25.4888 29.0292 25.0346 28.575 24.4763 28.575C23.918 28.575 23.4638 29.0292 23.4638 29.5875ZM34.9763 27.45C33.7977 27.45 32.8388 28.4088 32.8388 29.5875C32.8388 30.7661 33.7977 31.725 34.9763 31.725C36.1549 31.725 37.1138 30.7661 37.1138 29.5875C37.1138 28.4088 36.1549 27.45 34.9763 27.45ZM34.9763 30.6C34.418 30.6 33.9638 30.1457 33.9638 29.5875C33.9638 29.0292 34.418 28.575 34.9763 28.575C35.5346 28.575 35.9888 29.0292 35.9888 29.5875C35.9888 30.1457 35.5346 30.6 34.9763 30.6ZM38.0888 29.5875C38.0888 28.4088 39.0477 27.45 40.2263 27.45C41.4049 27.45 42.3638 28.4088 42.3638 29.5875C42.3638 30.7661 41.4049 31.725 40.2263 31.725C39.0477 31.725 38.0888 30.7661 38.0888 29.5875ZM39.2138 29.5875C39.2138 30.1457 39.668 30.6 40.2263 30.6C40.7845 30.6 41.2388 30.1457 41.2388 29.5875C41.2388 29.0292 40.7845 28.575 40.2263 28.575C39.668 28.575 39.2138 29.0292 39.2138 29.5875ZM29.7263 27.45C28.5477 27.45 27.5888 28.4088 27.5888 29.5875C27.5888 30.7661 28.5477 31.725 29.7263 31.725C30.9049 31.725 31.8638 30.7661 31.8638 29.5875C31.8638 28.4088 30.9049 27.45 29.7263 27.45ZM29.7263 30.6C29.168 30.6 28.7138 30.1457 28.7138 29.5875C28.7138 29.0292 29.168 28.575 29.7263 28.575C30.2845 28.575 30.7388 29.0292 30.7388 29.5875C30.7388 30.1457 30.2845 30.6 29.7263 30.6ZM23.2978 35.9792C23.5176 35.7595 23.8736 35.7595 24.0934 35.9792C24.313 36.1988 24.313 36.555 24.0934 36.7747L21.8637 39.0043C21.7582 39.1098 21.6152 39.1691 21.466 39.1691C21.3168 39.1691 21.1738 39.1098 21.0682 39.0043L20.0444 37.9806C19.8248 37.7609 19.8248 37.4047 20.0444 37.1851C20.2642 36.9654 20.6203 36.9654 20.84 37.1851L21.466 37.8111L23.2978 35.9792Z" fill="#B45754"/>
</svg>
