<svg width="18" height="18" viewBox="0 0 18 18" fill="none" xmlns="http://www.w3.org/2000/svg">
<g clip-path="url(#clip0)">
<path d="M16.5557 11.8149C15.4537 11.8149 14.3716 11.6426 13.3462 11.3037C12.835 11.1294 12.2529 11.2647 11.9194 11.6045L9.8955 13.1324C7.54833 11.8794 6.10252 10.4341 4.8667 8.10455L6.34959 6.13336C6.73486 5.74861 6.87305 5.18658 6.70748 4.65923C6.36717 3.62845 6.1943 2.54691 6.1943 1.44441C6.19434 0.647953 5.54639 0 4.74998 0H1.44431C0.647953 0 0 0.647953 0 1.44431C0 10.5733 7.42678 18 16.5557 18C17.3521 18 18 17.352 18 16.5556V13.2593C18 12.4629 17.352 11.8149 16.5557 11.8149ZM17 16.5557C17 16.8008 16.8008 17 16.5557 17C7.97803 17 1.00003 10.022 1.00003 1.44436C1.00003 1.19925 1.19925 1.00003 1.44436 1.00003H4.75003C4.99514 1.00003 5.19436 1.19925 5.19436 1.44436C5.19436 2.65383 5.3843 3.84084 5.75588 4.96537C5.80762 5.13141 5.76562 5.30325 5.59767 5.47809L3.87891 7.75439C3.76369 7.9072 3.74559 8.11181 3.83203 8.2822C5.23486 11.0395 6.93947 12.7441 9.7163 14.167C9.88523 14.2553 10.0923 14.2368 10.2456 14.1211L12.5742 12.357C12.6919 12.2393 12.8682 12.1973 13.0274 12.2515C14.1597 12.6255 15.3467 12.815 16.5557 12.815C16.8008 12.815 17 13.0142 17 13.2593V16.5557Z" fill="#B45754"/>
</g>
<defs>
<clipPath id="clip0">
<rect width="18" height="18" fill="white"/>
</clipPath>
</defs>
</svg>
