<svg width="48" height="48" viewBox="0 0 48 48" fill="none" xmlns="http://www.w3.org/2000/svg">
<g clip-path="url(#clip0)">
<path d="M40.152 44.5816L38.1211 18.9414H38.2188C39.0597 18.9414 39.7438 18.2574 39.7438 17.4165V13.8583C39.7438 13.0173 39.0597 12.3333 38.2188 12.3333H35.5922C35.5472 10.0537 34.1656 8.03852 32.0451 7.17838C31.6121 7.00278 31.3027 6.61002 31.2376 6.15342C31.1516 5.55037 30.9139 4.97132 30.5502 4.47863C30.1186 3.89433 29.5315 3.4532 28.8524 3.20314C28.4737 3.06373 28.1798 2.77317 28.0461 2.40611C27.7177 1.50444 27.0605 0.77341 26.1954 0.347843C24.593 -0.44066 22.4206 0.161921 21.4515 1.66327C21.3361 1.84225 21.2355 2.03145 21.1526 2.22572C20.9075 2.80017 20.5784 3.34613 20.1745 3.84839C19.9311 4.15104 19.9792 4.59367 20.2819 4.83697C20.5846 5.08046 21.0272 5.03227 21.2705 4.72971C21.755 4.12722 22.1507 3.47045 22.4462 2.77767C22.4979 2.65644 22.5608 2.53803 22.6332 2.42589C23.2237 1.51091 24.5979 1.12941 25.5746 1.60982C26.1126 1.8745 26.521 2.32829 26.7246 2.88746C27.0002 3.64409 27.5985 4.24029 28.3664 4.52307C28.7871 4.67796 29.1511 4.95154 29.419 5.3142C29.648 5.62435 29.7915 5.9736 29.8455 6.3521C29.981 7.30261 30.6214 8.11868 31.5166 8.4818C33.104 9.12564 34.1413 10.6292 34.1859 12.3335H30.7032C30.3147 12.3335 30 12.6483 30 13.0367C30 13.425 30.3147 13.7398 30.7032 13.7398H38.2188C38.2841 13.7398 38.3374 13.793 38.3374 13.8584V17.4166C38.3374 17.4821 38.2842 17.5352 38.2188 17.5352H9.78089C9.71545 17.5352 9.6622 17.4821 9.6622 17.4166V13.8584C9.6622 13.793 9.71536 13.7398 9.78089 13.7398H27.61C27.9984 13.7398 28.3132 13.425 28.3132 13.0367C28.3132 12.6483 27.9984 12.3335 27.61 12.3335H14.2917C14.3515 12.2934 14.412 12.2543 14.4732 12.2164C15.5267 11.5633 16.318 10.6347 16.7613 9.53086C16.7726 9.50264 16.7841 9.47442 16.7962 9.44564C17.2255 8.42133 17.9231 7.53307 18.8137 6.87676C19.1264 6.64631 19.1931 6.20611 18.9626 5.89353C18.7324 5.58094 18.292 5.51437 17.9795 5.74464C16.8843 6.55171 16.0267 7.64352 15.4996 8.90146C15.4848 8.93653 15.4705 8.9716 15.4563 9.00675C15.1255 9.83061 14.5293 10.5271 13.7323 11.0211C13.1468 11.3841 12.6147 11.8259 12.1478 12.3336H9.78089C8.93998 12.3336 8.25583 13.0176 8.25583 13.8585V17.4167C8.25583 18.2577 8.93998 18.9417 9.78089 18.9417H9.87859L9.59103 22.5717C9.56037 22.9589 9.84934 23.2976 10.2366 23.3283C10.2554 23.3298 10.2742 23.3305 10.2928 23.3305C10.656 23.3305 10.9638 23.051 10.9931 22.6828L11.2894 18.9417H36.7102L38.7499 44.6927C38.7892 45.1884 38.625 45.6625 38.2876 46.0277C37.9501 46.393 37.4904 46.5941 36.9931 46.5941H11.0062C10.5089 46.5941 10.0493 46.3929 9.71179 46.0277C9.37436 45.6624 9.21019 45.1884 9.24947 44.6927L10.7488 25.7625C10.7795 25.3754 10.4905 25.0366 10.1033 25.006C9.7162 24.9747 9.37755 25.2643 9.34689 25.6514L7.8477 44.5816C7.77813 45.4599 8.08106 46.3348 8.67905 46.9821C9.27694 47.6293 10.1253 48.0005 11.0063 48.0005H36.9932C37.8743 48.0005 38.7226 47.6293 39.3206 46.9821C39.9185 46.3348 40.2215 45.4599 40.152 44.5816Z" fill="#B45754"/>
<path d="M23.9999 38.9939C28.1988 38.9939 31.615 35.5777 31.615 31.3788C31.615 27.1798 28.1988 23.7637 23.9999 23.7637C19.8009 23.7637 16.3848 27.1798 16.3848 31.3788C16.3848 35.5777 19.8009 38.9939 23.9999 38.9939ZM30.2086 31.3788C30.2086 34.5644 27.7966 37.1961 24.7031 37.5466V32.082H25.8916C26.2801 32.082 26.5948 31.7671 26.5948 31.3788C26.5948 30.9904 26.2801 30.6756 25.8916 30.6756H24.7031V25.211C27.7966 25.5615 30.2086 28.1932 30.2086 31.3788ZM23.2967 25.211V30.6756H22.1082C21.7198 30.6756 21.405 30.9904 21.405 31.3788C21.405 31.7671 21.7198 32.082 22.1082 32.082H23.2967V37.5466C20.2031 37.1961 17.7911 34.5644 17.7911 31.3788C17.7911 28.1932 20.2032 25.5615 23.2967 25.211Z" fill="#B45754"/>
<path d="M12.7486 44.2032H16.8064C17.1949 44.2032 17.5096 43.8884 17.5096 43.5001C17.5096 43.1117 17.1949 42.7969 16.8064 42.7969H12.7486C12.3602 42.7969 12.0454 43.1117 12.0454 43.5001C12.0454 43.8884 12.3602 44.2032 12.7486 44.2032Z" fill="#B45754"/>
<path d="M12.7486 41.484H14.7775C15.166 41.484 15.4807 41.1692 15.4807 40.7808C15.4807 40.3925 15.166 40.0776 14.7775 40.0776H12.7486C12.3602 40.0776 12.0454 40.3925 12.0454 40.7808C12.0454 41.1692 12.3602 41.484 12.7486 41.484Z" fill="#B45754"/>
<path d="M20.631 9.47229H20.6344C21.0212 9.47229 21.3356 9.1597 21.3375 8.77238C21.3394 8.38404 21.0261 8.0677 20.6376 8.06592H20.6279C20.6267 8.06592 20.6257 8.06592 20.6245 8.06592C20.2377 8.06592 19.9233 8.37851 19.9214 8.76582C19.9195 9.15416 20.2329 9.4705 20.6213 9.47229H20.631Z" fill="#B45754"/>
<path d="M22.7281 10.6691C23.1165 10.6691 23.4313 10.3542 23.4313 9.96588C23.4313 9.57753 23.1165 9.2627 22.7281 9.2627H22.7183C22.3299 9.2627 22.0151 9.57753 22.0151 9.96588C22.0151 10.3542 22.3299 10.6691 22.7183 10.6691H22.7281Z" fill="#B45754"/>
</g>
<defs>
<clipPath id="clip0">
<rect width="48" height="48" fill="white"/>
</clipPath>
</defs>
</svg>
