<svg width="45" height="45" viewBox="0 0 45 45" fill="none" xmlns="http://www.w3.org/2000/svg">
<path fill-rule="evenodd" clip-rule="evenodd" d="M41.371 8.70968H41.2547C40.5473 3.79383 36.3187 0 31.2097 0C26.1007 0 21.872 3.79383 21.1646 8.70968H7.25806V2.90323H3.62903C1.6281 2.90323 0 4.53133 0 6.53226V29.7581C0 31.759 1.6281 33.3871 3.62903 33.3871H29.0323V41.371C29.0323 43.3719 30.6604 45 32.6613 45H38.4677V39.1936H41.371C43.3719 39.1936 45 37.5654 45 35.5645V12.3387C45 10.3378 43.3719 8.70968 41.371 8.70968ZM22.5 10.1613C22.5 5.35849 26.4069 1.45161 31.2097 1.45161C36.0125 1.45161 39.9194 5.35849 39.9194 10.1613V10.3339C39.9194 11.9822 39.454 13.5908 38.5737 14.985L31.7097 25.8533C31.4914 26.1996 30.9272 26.1996 30.7103 25.8533L23.8464 14.985C22.9653 13.5915 22.5 11.9829 22.5 10.3339V10.1613ZM1.45161 6.53226C1.45161 5.33191 2.42869 4.35484 3.62903 4.35484H5.80645V26.129H3.62903C2.8125 26.129 2.05834 26.3998 1.45161 26.8563V6.53226ZM1.45161 29.7581C1.45161 28.5577 2.42869 27.5806 3.62903 27.5806H7.25806V10.1613H21.0484V10.3339C21.0484 12.2576 21.5913 14.1337 22.6184 15.7608L29.1673 26.129H28.3065V27.5806H31.2097C31.9146 27.5806 32.5603 27.2248 32.937 26.6284L39.801 15.7601C40.828 14.1344 41.371 12.2583 41.371 10.3339V10.1613C42.5713 10.1613 43.5484 11.1384 43.5484 12.3387V32.6801C42.9402 32.2194 42.191 31.9355 41.371 31.9355H3.62903C2.42869 31.9355 1.45161 30.9584 1.45161 29.7581ZM37.0161 43.5484H32.6613C31.4609 43.5484 30.4839 42.5713 30.4839 41.371C30.4839 40.1706 31.4609 39.1936 32.6613 39.1936H37.0161V43.5484ZM41.371 37.7419H32.6613C31.8412 37.7419 31.092 38.0258 30.4839 38.4865V33.3871H41.371C42.5713 33.3871 43.5484 34.3642 43.5484 35.5645C43.5484 36.7649 42.5713 37.7419 41.371 37.7419ZM38.4678 10.1614C38.4678 14.1636 35.2119 17.4194 31.2097 17.4194C27.2075 17.4194 23.9517 14.1636 23.9517 10.1614C23.9517 6.15917 27.2075 2.90332 31.2097 2.90332C35.2119 2.90332 38.4678 6.15917 38.4678 10.1614ZM37.0162 10.1614C37.0162 6.95976 34.4114 4.35493 31.2097 4.35493C28.0081 4.35493 25.4033 6.95976 25.4033 10.1614C25.4033 13.363 28.0081 15.9678 31.2097 15.9678C34.4114 15.9678 37.0162 13.363 37.0162 10.1614ZM31.2098 13.0648V14.5165C28.8081 14.5165 26.855 12.5634 26.855 10.1616H28.3066C28.3066 11.7628 29.6087 13.0648 31.2098 13.0648ZM8.70972 14.516C8.70972 12.9149 10.0118 11.6128 11.6129 11.6128C13.2141 11.6128 14.5162 12.9149 14.5162 14.516C14.5162 15.8652 13.5873 16.9918 12.3387 17.3161V21.7741H10.8871V17.3161C9.63859 16.9918 8.70972 15.8652 8.70972 14.516ZM10.1613 14.516C10.1613 15.3166 10.8124 15.9676 11.6129 15.9676C12.4135 15.9676 13.0646 15.3166 13.0646 14.516C13.0646 13.7154 12.4135 13.0644 11.6129 13.0644C10.8124 13.0644 10.1613 13.7154 10.1613 14.516ZM10.8872 23.2256H12.3388V24.6772H10.8872V23.2256ZM12.3388 26.1289H10.8872V27.5805H12.3388V26.1289ZM11.5083 29.3768C11.9098 29.886 12.4772 30.2507 13.1059 30.4031L13.4483 28.9926C13.1343 28.9164 12.8504 28.7335 12.6484 28.478L11.5083 29.3768ZM19.8052 25.7565L21.1522 25.2168C21.2727 25.518 21.4932 25.7725 21.7749 25.9352L21.0491 27.1922C20.4874 26.8672 20.0462 26.3576 19.8052 25.7565ZM22.8115 26.1289H24.2631V27.5805H22.8115V26.1289ZM27.1662 26.1289H25.7146V27.5805H27.1662V26.1289ZM14.3928 28.9018L14.9974 30.2216C15.5868 29.9515 16.0744 29.4855 16.3714 28.91L15.0814 28.2451C14.9322 28.5332 14.688 28.7668 14.3928 28.9018ZM15.2419 21.3598V21.0482C15.2419 20.5372 15.377 20.035 15.6318 19.5952L16.8874 20.3239C16.7602 20.5425 16.6936 20.792 16.6936 21.0482V21.3598H15.2419ZM17.0669 18.3525L17.6052 19.7002C17.9065 19.5797 18.2477 19.5652 18.5539 19.6552L18.964 18.2632C18.347 18.0817 17.6694 18.1122 17.0669 18.3525ZM21.0483 22.604H19.5967V24.0556H21.0483V22.604ZM15.2419 22.8115H16.6936V24.2631H15.2419V22.8115ZM21.0484 21.1521H19.5968V21.0482C19.5968 20.7434 19.5046 20.4532 19.3281 20.2069L20.5097 19.3638C20.8627 19.8571 21.0484 20.4401 21.0484 21.0489V21.1521ZM15.2419 25.7148H16.6936V27.1665H15.2419V25.7148ZM42.0966 15.9678H40.645V17.4194H42.0966V15.9678ZM40.645 18.8711H42.0966V20.3227H40.645V18.8711ZM42.0966 21.7744H40.645V30.4841H42.0966V21.7744Z" fill="#B65855"/>
</svg>
