<svg width="60" height="47" viewBox="0 0 60 47" fill="none" xmlns="http://www.w3.org/2000/svg">
<path fill-rule="evenodd" clip-rule="evenodd" d="M14.8791 1.36011C13.825 -0.117306 11.7638 -0.442534 10.306 0.638509C9.48511 1.2472 9.03359 2.17067 8.99642 3.11947L0.478647 17.0606C-0.476517 18.6239 0.0438288 20.6671 1.63041 21.5831C1.91749 21.7489 2.21961 21.8661 2.52711 21.9371V23.2277C2.52711 23.5117 2.68761 23.7714 2.9417 23.8985L3.60006 24.2277L0.941699 25.5568C0.699046 25.6782 0.540829 25.9211 0.527954 26.1921C0.515079 26.463 0.649553 26.7199 0.87961 26.8637L3.74559 28.6549L0.941699 30.0568C0.699046 30.1782 0.540829 30.4211 0.527954 30.6921C0.515079 30.963 0.649553 31.2199 0.87961 31.3637L3.74559 33.1549L0.941699 34.5568C0.687611 34.6839 0.527109 34.9436 0.527109 35.2277C0.527109 35.5117 0.687611 35.7714 0.941699 35.8985L3.85629 37.3558L2.82711 38.1277C2.63826 38.2693 2.52711 38.4916 2.52711 38.7277V42.2277C2.52711 42.6419 2.8629 42.9777 3.27711 42.9777C3.69132 42.9777 4.02711 42.6419 4.02711 42.2277V39.1027L5.72711 37.8277C5.93506 37.6717 6.04742 37.4192 6.02408 37.1603C6.00074 36.9014 5.84501 36.6731 5.61252 36.5568L2.95416 35.2277L5.61252 33.8985C5.85517 33.7771 6.01339 33.5342 6.02626 33.2632C6.03914 32.9923 5.90467 32.7354 5.67461 32.5917L2.80863 30.8004L5.61252 29.3985C5.85517 29.2771 6.01339 29.0342 6.02626 28.7632C6.03914 28.4923 5.90467 28.2354 5.67461 28.0917L2.80863 26.3004L5.61252 24.8985C5.86661 24.7714 6.02711 24.5117 6.02711 24.2277C6.02711 23.9436 5.86661 23.6839 5.61252 23.5568L4.02711 22.7641V21.9284C4.82933 21.7342 5.55778 21.2371 6.02716 20.4835L12.8116 9.59154L23.609 24.5836C23.2331 25.5593 23.0271 26.6194 23.0271 27.7277V34.9777H35.7771V36.7277H22.7771C20.0157 36.7277 17.7771 38.9662 17.7771 41.7277C17.7771 44.4891 20.0157 46.7277 22.7771 46.7277H54.7771C57.5385 46.7277 59.7771 44.4891 59.7771 41.7277C59.7771 38.9662 57.5385 36.7277 54.7771 36.7277H47.2771V34.9777H57.0271V24.4777H38.5271V18.9777H31.7771C30.442 18.9777 29.1767 19.2767 28.0445 19.8114L14.8791 1.36011ZM3.48175 20.5059C3.98915 20.4412 4.46346 20.1569 4.75395 19.6905L11.864 8.27577L9.60581 5.14034C9.59013 5.11856 9.57475 5.09665 9.55968 5.07462L1.75864 17.8426C1.24301 18.6866 1.52391 19.7896 2.38041 20.2841C2.59649 20.4088 2.82834 20.4826 3.06186 20.509C3.13004 20.4886 3.20229 20.4777 3.27711 20.4777C3.34805 20.4777 3.4167 20.4875 3.48175 20.5059ZM26.743 20.5699L13.6581 2.23135C13.0913 1.43704 11.9832 1.26219 11.1994 1.84339C10.4333 2.41152 10.2656 3.48973 10.823 4.26371L24.3679 23.0707C24.9868 22.0882 25.7957 21.2374 26.743 20.5699ZM37.2771 34.9777H45.7771V36.7277H37.2771V34.9777ZM38.5271 25.9777V33.4777H43.7926C43.9009 30.8652 44.5734 28.3064 45.7646 25.9777H38.5271ZM47.4684 25.9777L47.3681 26.1582C46.1184 28.4077 45.4099 30.9137 45.294 33.4777H55.5271V25.9777H47.4684ZM37.0271 33.4777V20.4777H33.5271V33.4777H37.0271ZM32.0271 33.4777V30.4777H24.5271V33.4777H32.0271ZM24.5271 28.9777H32.0271V20.4777H31.7771C27.773 20.4777 24.5271 23.7236 24.5271 27.7277V28.9777ZM22.7771 38.2277H54.7771C56.7101 38.2277 58.2771 39.7947 58.2771 41.7277C58.2771 43.6607 56.7101 45.2277 54.7771 45.2277H22.7771C20.8441 45.2277 19.2771 43.6607 19.2771 41.7277C19.2771 39.7947 20.8441 38.2277 22.7771 38.2277ZM55.0271 43.2277C55.4413 43.2277 55.7771 42.8919 55.7771 42.4777C55.7771 42.0634 55.4413 41.7277 55.0271 41.7277H22.5271C22.1129 41.7277 21.7771 42.0634 21.7771 42.4777C21.7771 42.8919 22.1129 43.2277 22.5271 43.2277H55.0271Z" fill="#B65855"/>
</svg>
