<svg width="35" height="25" viewBox="0 0 35 25" fill="none" xmlns="http://www.w3.org/2000/svg">
<circle cx="17.5" cy="12.5" r="12" stroke="#BEBEB4"/>
<path d="M1 7C0.447715 7 0 7.44772 0 8C0 8.55228 0.447715 9 1 9V7ZM34 9C34.5523 9 35 8.55228 35 8C35 7.44772 34.5523 7 34 7V9ZM1 9C3.24869 9 4.68202 9.51854 5.73736 10.234C6.82525 10.9715 7.58678 11.9621 8.45331 13.1044C9.29368 14.2121 10.239 15.4715 11.6404 16.4215C13.0743 17.3935 14.9125 18 17.5 18V16C15.2513 16 13.818 15.4815 12.7626 14.766C11.6748 14.0285 10.9132 13.0379 10.0467 11.8956C9.20632 10.7879 8.26096 9.52852 6.85962 8.57852C5.42574 7.60646 3.58752 7 1 7V9ZM17.5 18C20.3487 18 22.382 17.4047 23.9495 16.4471C25.5021 15.4985 26.5143 14.2416 27.3739 13.1023C28.2621 11.9251 28.9473 10.9411 29.9169 10.2013C30.8324 9.50276 32.0459 9 34 9V7C31.6498 7 29.9999 7.62224 28.7037 8.61123C27.4616 9.55895 26.5867 10.8249 25.7773 11.8977C24.9393 13.0084 24.1163 14.0015 22.9068 14.7404C21.7122 15.4702 20.0565 16 17.5 16V18Z" fill="white"/>
</svg>
