<svg width="18" height="14" viewBox="0 0 18 14" fill="none" xmlns="http://www.w3.org/2000/svg">
<path fill-rule="evenodd" clip-rule="evenodd" d="M1.58218 0.144531H16.4181C16.6617 0.144531 16.8899 0.204468 17.0962 0.303223L10.772 6.62701L10.7716 6.62744L8.965 8.36365L0.904419 0.303101C1.11069 0.204407 1.33865 0.144531 1.58218 0.144531ZM11.8903 7.00043L17.8417 1.04938C17.9403 1.25555 18 1.48352 18 1.72693V12.2738C18 12.5173 17.9402 12.7453 17.8415 12.9516L11.8903 7.00043ZM0.158569 1.04907C0.0598755 1.25537 0 1.48334 0 1.72687V12.2737C0 12.5171 0.0598145 12.7451 0.158417 12.9514L6.10977 7.00031L0.158569 1.04907ZM9.33795 9.4823L11.1448 7.74585L17.096 13.697C16.8897 13.7957 16.6617 13.8555 16.4182 13.8555H1.58228C1.33868 13.8555 1.11053 13.7956 0.904236 13.6968L6.85571 7.74573L8.59229 9.4823C8.69525 9.58533 8.83023 9.63678 8.96512 9.63678C9.10001 9.63678 9.23495 9.58533 9.33795 9.4823Z" fill="#B65855"/>
</svg>
