<svg width="195" height="41" viewBox="0 0 195 41" fill="none" xmlns="http://www.w3.org/2000/svg">
<g clip-path="url(#clip0)">
<path fill-rule="evenodd" clip-rule="evenodd" d="M87.25 26.9001C89.7948 27.2622 92.3599 27.4626 94.93 27.5001C96.2183 27.5325 97.5068 27.4489 98.78 27.2501C99.828 27.0833 100.842 26.7455 101.78 26.2501C103.633 25.3435 104.56 23.5935 104.56 21.0001V19.5501C104.621 18.772 104.502 17.9903 104.212 17.2655C103.923 16.5407 103.47 15.8922 102.89 15.3701C101.77 14.4501 99.98 14.0001 97.51 14.0001H94.9C92.9667 14.0001 92 13.4301 92 12.2901V10.7601C91.9966 10.441 92.0904 10.1285 92.2691 9.86405C92.4477 9.59964 92.7027 9.39595 93 9.28012C94.1564 8.91591 95.3704 8.7701 96.58 8.85012C97.85 8.85012 100.16 9.05012 103.53 9.45012V5.55012C100.74 5.27012 98.53 5.12012 96.74 5.12012C93.31 5.12012 90.81 5.57012 89.22 6.46012C88.4672 6.85793 87.844 7.46295 87.424 8.20366C87.004 8.94437 86.8048 9.78983 86.85 10.6401V12.2401C86.8567 16.0268 89.24 17.9201 94 17.9201H96.5C97.2815 17.8358 98.0669 18.0384 98.71 18.4901C98.9278 18.7014 99.0969 18.9575 99.2057 19.2407C99.3145 19.5239 99.3603 19.8274 99.34 20.1301V21.5301C99.34 23.0201 97.9 23.7701 95 23.7701C92.401 23.6428 89.8126 23.3522 87.25 22.9001V26.9001ZM9.22 5.4701H0V27.1901H9.17C11.2206 27.2435 13.2706 27.0623 15.28 26.6501C16.5302 26.4099 17.656 25.7373 18.46 24.7501C19.1825 23.6007 19.5318 22.2559 19.46 20.9001V12.0801C19.554 10.6749 19.2042 9.2757 18.46 8.0801C17.6532 7.04827 16.504 6.33891 15.22 6.0801C13.2539 5.62359 11.2378 5.41862 9.22 5.4701ZM12.21 23.3001C11.1454 23.4326 10.0727 23.4895 9 23.4701L5.17 23.4601V9.2201H9.17C10.495 9.13907 11.8212 9.35782 13.05 9.8601C13.4491 10.0492 13.7814 10.3551 14.0029 10.7372C14.2243 11.1194 14.3244 11.5598 14.29 12.0001V20.8901C14.3429 21.4918 14.16 22.0906 13.78 22.5601C13.3569 22.9793 12.8026 23.2405 12.21 23.3001ZM56.28 5.47009H51V27.1701H55.64V12.1701L66.14 27.1701H71.42V5.47009H66.77V20.2801L56.28 5.47009ZM74 15.7401H84.3V19.4801H74V15.7401ZM113.2 9.18009H106.51V5.47009H125.06V9.18009H118.41V27.1801H113.2V9.18009ZM137.82 5.47009H128.06L128.04 27.1601H133.26V18.6301H135.66L141.34 27.1601H147.34L141.06 18.2301C142.352 18.1065 143.587 17.6328 144.63 16.8601C145.079 16.5037 145.437 16.0461 145.675 15.5247C145.914 15.0032 146.025 14.4328 146 13.8601V10.0501C146.06 9.34356 145.912 8.63501 145.574 8.01146C145.236 7.38792 144.724 6.87652 144.1 6.54009C142.813 5.82676 140.72 5.47009 137.82 5.47009ZM140.26 14.7301C139.482 15.1139 138.614 15.2765 137.75 15.2001L133.28 15.1801V9.18009H137.75C138.591 9.1115 139.435 9.27402 140.19 9.65009C140.45 9.83084 140.657 10.0789 140.787 10.3677C140.917 10.6565 140.967 10.9753 140.93 11.2901V12.8301C140.975 13.1771 140.937 13.5297 140.821 13.8597C140.704 14.1896 140.512 14.4877 140.26 14.7301ZM160.18 27.5001C159.063 27.5045 157.946 27.4276 156.84 27.2701C155.771 27.0942 154.72 26.8231 153.7 26.4601C152.596 26.1195 151.625 25.4453 150.92 24.5301C150.237 23.5643 149.886 22.4027 149.92 21.2201V11.7201C149.896 10.7549 150.119 9.79955 150.569 8.94524C151.019 8.09093 151.68 7.36618 152.49 6.84014C153.274 6.37394 154.119 6.0173 155 5.78014C155.892 5.50686 156.811 5.32592 157.74 5.24014C158.52 5.17014 159.34 5.14014 160.21 5.14014C161.102 5.13167 161.993 5.17508 162.88 5.27014C163.738 5.35936 164.587 5.51652 165.42 5.74014C166.33 5.99466 167.199 6.37858 168 6.88014C168.721 7.35595 169.317 7.99708 169.74 8.75014C170.257 9.66331 170.513 10.7012 170.48 11.7501V21.2501C170.495 22.3682 170.144 23.4605 169.48 24.3601C168.82 25.263 167.914 25.9572 166.87 26.3601C164.732 27.1609 162.462 27.5478 160.18 27.5001ZM160.25 23.7901C160.98 23.7901 161.59 23.7901 162.08 23.7201C162.615 23.6563 163.144 23.5459 163.66 23.3901C164.145 23.2798 164.574 23.0012 164.873 22.6038C165.171 22.2065 165.319 21.7162 165.29 21.2201V11.6901C165.323 11.2472 165.224 10.8045 165.005 10.4181C164.786 10.0317 164.457 9.71915 164.06 9.52014C162.847 8.99724 161.528 8.7677 160.21 8.85014C158.898 8.76927 157.585 8.98814 156.37 9.49014C155.967 9.6907 155.633 10.0076 155.412 10.3998C155.191 10.792 155.093 11.2415 155.13 11.6901V21.2201C155.116 21.7229 155.271 22.2158 155.57 22.6201C155.902 23.0041 156.346 23.2736 156.84 23.3901C157.34 23.5436 157.852 23.654 158.37 23.7201C158.89 23.7701 159.51 23.7901 160.25 23.7901ZM172.63 5.4801L180.49 18.4801V27.1701H185.7V18.4101L193.67 5.5101H187.67L183.13 14.0001L178.55 5.4801H172.63Z" fill="#E99794"/>
<path fill-rule="evenodd" clip-rule="evenodd" d="M194.63 36.11V35.43L192.5 34.9V33.31L193.66 32.31V31.72H192.5V31.62H191.15V30.79H189.56V31.62H178.62C178.197 31.6227 177.793 31.7924 177.495 32.0922C177.197 32.392 177.03 32.7974 177.03 33.22V38C177.03 38.4217 177.198 38.8262 177.496 39.1243C177.794 39.4225 178.198 39.59 178.62 39.59H189.56V40.38H191.15V39.59H192.5V39.4H193.66V38.81L192.5 37.81V36.49L194.63 36.11ZM180.6 34.2301V33.3101H190.65V34.2801H181.49V35.2101H178.31V34.2301H180.6ZM178.35 36.0301H181.53V36.9301H190.65V37.9001H180.6V37.0001H178.35V36.0301ZM144.42 32.5801V38.5801H176.42V32.5801H144.42ZM147.52 38.5101H146.9V35.5101H147.52V38.5101ZM149.41 38.5101H148.8V35.5101H149.41V38.5101ZM151.31 38.5101H150.69V35.5101H151.31V38.5101ZM153.21 38.5101H152.59V35.5101H153.21V38.5101ZM155.1 38.5101H154.49V35.5101H155.1V38.5101ZM157 38.5101H156.38V35.5101H157V38.5101ZM158.9 38.5101H158.28V35.5101H158.9V38.5101ZM160.8 38.5101H160.18V35.5101H160.8V38.5101ZM162.69 38.5101H162.07V35.5101H162.69V38.5101ZM164.59 38.5101H164V35.5101H164.62L164.59 38.5101ZM166.49 38.5101H165.87V35.5101H166.49V38.5101ZM168.38 38.5101H167.77V35.5101H168.38V38.5101ZM170.28 38.5101H169.66V35.5101H170.28V38.5101ZM172.18 38.5101H171.56V35.5101H172.18V38.5101ZM174.07 38.5101H173.46V35.5101H174.07V38.5101ZM34 33.6201H0V37.6201H34V33.6201ZM36 37.6201H143.68V33.6201H36V37.6201Z" fill="#EEF1F4"/>
<path fill-rule="evenodd" clip-rule="evenodd" d="M40.2899 2.12V0H33.6399V2.12H32.8199V0H30.0499V2.12H27.8499V4.24H31.6999V2.12H32.5199V4.24H42.4899V2.12H40.2899ZM34.5601 33.17H32.3301V36.08L34.5601 36.08V33.17ZM35.5601 36.08V33.17H38.0001V36.08L35.5601 36.08ZM34.7301 36.19V39.27H35.3201V36.19H36.8899V38.41L35.12 40.09L33.45 38.41V36.19H34.7301ZM26.55 5.63H30.0201L32.7739 11.41H26.55V5.63ZM35.5365 5.63L38.2971 11.41H44.08V5.63H35.5365ZM27.5199 11.7H32.912L34.1746 14.35H27.5199V11.7ZM38.4356 11.7L39.7013 14.35H47.9199V11.7H38.4356ZM23.8301 14.6H34.2936L35.5752 17.29H28.3901V14.63H27.5701V17.29H23.8301V14.6ZM39.8207 14.6L41.1055 17.29H46.5101V14.6H39.8207ZM29.3201 17.49H35.6705L36.9473 20.17H29.3201V17.49ZM41.201 17.49L42.481 20.17H45.0901V17.49H41.201ZM30.21 20.4H37.0569L38.2956 23H30.21V20.4ZM42.5909 20.4L43.67 22.6594V20.4H42.5909ZM40.84 28.3406L39.8107 26.18H32.03V28.82H40.84V28.3406ZM39.6677 25.88L38.4338 23.29H31.0999V25.88H39.6677ZM25.73 5.63H21V11.41H25.73V5.63ZM29.7199 9.53001C29.6058 9.38725 29.4548 9.27847 29.2833 9.2155C29.1117 9.15252 28.9262 9.13775 28.7469 9.1728C28.5675 9.20784 28.4012 9.29136 28.266 9.41427C28.1308 9.53719 28.0318 9.69481 27.9799 9.87001C27.9617 10.003 27.9706 10.1383 28.0058 10.2678C28.0411 10.3973 28.1021 10.5184 28.1851 10.6238C28.2682 10.7293 28.3716 10.8169 28.4892 10.8816C28.6069 10.9462 28.7363 10.9865 28.8699 11C29.0586 11.0011 29.2433 10.9453 29.3999 10.84C29.607 10.7009 29.7547 10.4894 29.8139 10.2471C29.8731 10.0047 29.8396 9.74893 29.7199 9.53001ZM29.1699 10.44C29.0944 10.4881 29.0066 10.5132 28.9171 10.5122C28.8276 10.5111 28.7403 10.484 28.666 10.4341C28.5917 10.3842 28.5336 10.3137 28.4988 10.2313C28.4639 10.1489 28.4539 10.0581 28.4699 9.97001C28.4991 9.85228 28.5702 9.74921 28.6699 9.68001C28.7437 9.62963 28.8305 9.60183 28.9199 9.60001C28.996 9.59916 29.071 9.61807 29.1376 9.65487C29.2042 9.69168 29.2601 9.74513 29.2999 9.81001C29.3299 9.86309 29.349 9.9216 29.3562 9.98214C29.3634 10.0427 29.3584 10.104 29.3417 10.1627C29.3249 10.2213 29.2967 10.276 29.2586 10.3236C29.2205 10.3712 29.1734 10.4108 29.1199 10.44H29.1699ZM27.7799 6.30001C28.0263 6.35178 28.2442 6.49463 28.3899 6.70001C28.5117 6.91221 28.5515 7.16171 28.5018 7.40129C28.452 7.64086 28.3161 7.85388 28.1199 8.00001C27.965 8.11004 27.7799 8.16943 27.5899 8.17001C27.5269 8.17932 27.4629 8.17932 27.3999 8.17001C27.2783 8.14664 27.1626 8.09922 27.0595 8.03053C26.9565 7.96184 26.8682 7.87327 26.7999 7.77001C26.6602 7.55778 26.6066 7.30035 26.6499 7.05001C26.7095 6.80588 26.8589 6.59315 27.0683 6.45417C27.2777 6.3152 27.5317 6.26016 27.7799 6.30001ZM27.4999 7.68001C27.6167 7.70101 27.7373 7.67974 27.8399 7.62001C27.8942 7.58898 27.9418 7.54742 27.9799 7.49775C28.018 7.44808 28.0457 7.3913 28.0616 7.33076C28.0774 7.27022 28.081 7.20712 28.0721 7.14517C28.0632 7.08322 28.0421 7.02367 28.0099 6.97001C27.9769 6.92035 27.9342 6.8779 27.8844 6.84524C27.8345 6.81258 27.7786 6.79039 27.7199 6.78001H27.5899C27.5003 6.78062 27.4131 6.80853 27.3399 6.86001C27.2381 6.92709 27.1664 7.03107 27.1399 7.15001C27.1284 7.20849 27.1288 7.26867 27.1408 7.32703C27.1528 7.3854 27.1763 7.44079 27.2099 7.49001C27.2428 7.53967 27.2855 7.58212 27.3354 7.61478C27.3852 7.64744 27.4412 7.66963 27.4999 7.68001ZM44.8999 5.63H49.3399V11.41H44.8999V5.63ZM28.49 17.49H25.25V20.17H28.49V17.49ZM26.6699 20.4H29.3899V23H26.6699V20.4ZM30.2801 23.29H28.0801V25.88H30.2801V23.29ZM29.5 26.18H31.21V28.82H29.5V26.18ZM32.1499 29.07H30.9199V31.98H32.1499V29.07ZM32.97 29.07H39.42V31.98H32.97V29.07ZM36.6896 26.7926C36.8549 26.6804 37.0501 26.6202 37.25 26.62C37.5067 26.6197 37.7538 26.7181 37.94 26.895C38.1261 27.0718 38.2371 27.3135 38.25 27.57C38.26 27.7696 38.2099 27.9676 38.1063 28.1385C38.0027 28.3094 37.8502 28.4453 37.6686 28.5287C37.4869 28.6122 37.2845 28.6392 37.0873 28.6065C36.8902 28.5737 36.7074 28.4826 36.5625 28.345C36.4176 28.2073 36.3172 28.0294 36.2744 27.8342C36.2316 27.639 36.2483 27.4354 36.3223 27.2498C36.3963 27.0641 36.5242 26.9049 36.6896 26.7926ZM36.9692 27.8754C37.0413 27.9589 37.1409 28.0138 37.25 28.03C37.3154 28.0397 37.3821 28.0352 37.4456 28.0168C37.5091 27.9984 37.5679 27.9665 37.618 27.9234C37.6681 27.8802 37.7083 27.8267 37.7358 27.7666C37.7634 27.7065 37.7776 27.6411 37.7776 27.575C37.7776 27.5089 37.7634 27.4435 37.7358 27.3834C37.7083 27.3233 37.6681 27.2698 37.618 27.2266C37.5679 27.1834 37.5091 27.1516 37.4456 27.1332C37.3821 27.1148 37.3154 27.1103 37.25 27.12C37.1409 27.1362 37.0413 27.1911 36.9692 27.2746C36.8972 27.3581 36.8576 27.4647 36.8576 27.575C36.8576 27.6853 36.8972 27.7919 36.9692 27.8754ZM36.72 24.75C36.72 24.5522 36.6613 24.3589 36.5514 24.1944C36.4416 24.03 36.2854 23.9018 36.1027 23.8261C35.9199 23.7504 35.7189 23.7306 35.5249 23.7692C35.3309 23.8078 35.1527 23.903 35.0129 24.0429C34.873 24.1827 34.7778 24.3609 34.7392 24.5549C34.7006 24.7489 34.7204 24.95 34.7961 25.1327C34.8718 25.3154 35 25.4716 35.1644 25.5815C35.3288 25.6914 35.5222 25.75 35.72 25.75C35.9852 25.75 36.2395 25.6446 36.4271 25.4571C36.6146 25.2696 36.72 25.0152 36.72 24.75ZM35.72 25.21C35.629 25.21 35.5401 25.183 35.4644 25.1325C35.3888 25.0819 35.3298 25.0101 35.295 24.926C35.2602 24.842 35.2511 24.7495 35.2688 24.6603C35.2866 24.571 35.3304 24.4891 35.3947 24.4247C35.459 24.3604 35.541 24.3166 35.6302 24.2988C35.7195 24.2811 35.812 24.2902 35.896 24.325C35.9801 24.3598 36.0519 24.4188 36.1024 24.4944C36.153 24.5701 36.18 24.659 36.18 24.75C36.1774 24.8712 36.1281 24.9867 36.0424 25.0724C35.9567 25.1582 35.8412 25.2074 35.72 25.21ZM35.3311 21.3773C35.3571 21.5319 35.3465 21.6903 35.3 21.84C35.2367 22.0438 35.1098 22.222 34.938 22.3486C34.7662 22.4751 34.5584 22.5434 34.345 22.5434C34.1316 22.5434 33.9238 22.4751 33.7519 22.3486C33.5801 22.222 33.4533 22.0438 33.39 21.84C33.3435 21.6903 33.3328 21.5319 33.3589 21.3773C33.3849 21.2228 33.4469 21.0765 33.5398 20.9504C33.6327 20.8242 33.754 20.7216 33.8939 20.6509C34.0337 20.5802 34.1883 20.5434 34.345 20.5434C34.5017 20.5434 34.6562 20.5802 34.7961 20.6509C34.9359 20.7216 35.0572 20.8242 35.1501 20.9504C35.2431 21.0765 35.3051 21.2228 35.3311 21.3773ZM34.1278 22.2557C34.1824 22.2784 34.2409 22.29 34.3 22.29H34.34C34.4532 22.2801 34.5588 22.2287 34.6363 22.1456C34.7139 22.0625 34.7579 21.9536 34.76 21.84C34.7574 21.7188 34.7081 21.6033 34.6224 21.5176C34.5367 21.4318 34.4212 21.3826 34.3 21.38C34.1797 21.3826 34.0653 21.4322 33.9811 21.5182C33.897 21.6042 33.8499 21.7197 33.85 21.84C33.85 21.8991 33.8616 21.9576 33.8842 22.0122C33.9068 22.0668 33.94 22.1164 33.9818 22.1582C34.0236 22.2 34.0732 22.2331 34.1278 22.2557ZM34.0199 19.2966C34.0664 19.1469 34.0771 18.9885 34.0511 18.8339C34.025 18.6794 33.9631 18.5331 33.8701 18.407C33.7772 18.2808 33.6559 18.1782 33.516 18.1075C33.3762 18.0368 33.2217 18 33.0649 18C32.9082 18 32.7537 18.0368 32.6139 18.1075C32.474 18.1782 32.3527 18.2808 32.2598 18.407C32.1668 18.5331 32.1049 18.6794 32.0788 18.8339C32.0528 18.9885 32.0635 19.1469 32.1099 19.2966C32.1732 19.5004 32.3001 19.6786 32.4719 19.8052C32.6437 19.9317 32.8515 20 33.0649 20C33.2783 20 33.4862 19.9317 33.658 19.8052C33.8298 19.6786 33.9566 19.5004 34.0199 19.2966ZM33.0199 19.7466C32.9109 19.7304 32.8112 19.6755 32.7392 19.592C32.6672 19.5085 32.6276 19.4019 32.6276 19.2916C32.6276 19.1813 32.6672 19.0747 32.7392 18.9912C32.8112 18.9077 32.9109 18.8528 33.0199 18.8366C33.0853 18.8269 33.1521 18.8314 33.2156 18.8498C33.2791 18.8682 33.3379 18.9001 33.388 18.9432C33.4381 18.9864 33.4782 19.0399 33.5058 19.1C33.5333 19.1601 33.5476 19.2255 33.5476 19.2916C33.5476 19.3577 33.5333 19.4231 33.5058 19.4832C33.4782 19.5433 33.4381 19.5968 33.388 19.64C33.3379 19.6832 33.2791 19.715 33.2156 19.7334C33.1521 19.7518 33.0853 19.7563 33.0199 19.7466ZM32.4413 15.4444C32.5512 15.6089 32.6099 15.8022 32.6099 16C32.6099 16.2652 32.5045 16.5196 32.317 16.7071C32.1294 16.8946 31.8751 17 31.6099 17C31.4121 17 31.2187 16.9414 31.0543 16.8315C30.8898 16.7216 30.7617 16.5654 30.686 16.3827C30.6103 16.2 30.5905 15.9989 30.6291 15.8049C30.6677 15.6109 30.7629 15.4327 30.9028 15.2929C31.0426 15.153 31.2208 15.0578 31.4148 15.0192C31.6088 14.9806 31.8098 15.0004 31.9925 15.0761C32.1753 15.1518 32.3315 15.28 32.4413 15.4444ZM31.2874 16.3224C31.3731 16.4082 31.4887 16.4574 31.6099 16.46H31.6499C31.764 16.4478 31.8696 16.3943 31.947 16.3096C32.0244 16.2248 32.0681 16.1147 32.0699 16C32.0699 15.878 32.0214 15.761 31.9351 15.6747C31.8489 15.5885 31.7319 15.54 31.6099 15.54C31.4879 15.54 31.3709 15.5885 31.2846 15.6747C31.1983 15.761 31.1499 15.878 31.1499 16C31.1524 16.1212 31.2017 16.2367 31.2874 16.3224ZM26.6999 14.35V11.7H22.4099V14.35H26.6999ZM31.08 12.4281C30.9322 12.2161 30.708 12.0695 30.4544 12.0191C30.2008 11.9688 29.9376 12.0186 29.72 12.1581C29.5146 12.3038 29.3718 12.5217 29.32 12.7681C29.2738 13.0172 29.3238 13.2745 29.46 13.4881C29.549 13.6165 29.6667 13.7223 29.8039 13.797C29.9411 13.8716 30.0939 13.9131 30.25 13.9181C30.4382 13.9157 30.6219 13.8603 30.78 13.7581C30.989 13.6155 31.1361 13.399 31.1918 13.1522C31.2475 12.9054 31.2075 12.6466 31.08 12.4281ZM30.54 13.3381C30.4373 13.4036 30.3131 13.4267 30.1937 13.4024C30.0743 13.3782 29.969 13.3085 29.9 13.2081C29.8681 13.1582 29.8464 13.1025 29.8361 13.0441C29.8258 12.9858 29.8271 12.926 29.84 12.8681C29.8504 12.8094 29.8726 12.7535 29.9052 12.7036C29.9379 12.6538 29.9803 12.6111 30.03 12.5781C30.1038 12.5277 30.1907 12.4999 30.28 12.4981H30.37C30.4297 12.5091 30.4864 12.5326 30.5364 12.5671C30.5864 12.6015 30.6285 12.6462 30.66 12.6981C30.6942 12.748 30.7182 12.8041 30.7307 12.8633C30.7432 12.9225 30.7439 12.9836 30.7327 13.043C30.7216 13.1025 30.6988 13.1591 30.6658 13.2098C30.6327 13.2604 30.59 13.304 30.54 13.3381Z" fill="white"/>
</g>
<defs>
<clipPath id="clip0">
<rect width="194.63" height="40.41" fill="white"/>
</clipPath>
</defs>
</svg>
