<svg width="62" height="62" viewBox="0 0 62 62" fill="none" xmlns="http://www.w3.org/2000/svg">
<circle cx="31" cy="31" r="30.5" fill="white" stroke="#D1C0C0"/>
<path fill-rule="evenodd" clip-rule="evenodd" d="M39.8008 14.7874V21.5613C39.8035 23.9978 39.1426 26.389 37.8891 28.4783C36.6355 30.5676 34.8366 32.2761 32.6855 33.4204L31.4523 34.0779C31.3744 34.1195 31.2874 34.1412 31.1991 34.1412C31.1107 34.1412 31.0238 34.1195 30.9458 34.0779L29.7126 33.4204C27.5615 32.276 25.7627 30.5675 24.5092 28.4783C23.2557 26.389 22.5947 23.9978 22.5974 21.5613V14.7874C22.5972 14.693 22.6219 14.6001 22.669 14.5183C22.7161 14.4364 22.7839 14.3684 22.8657 14.3211C22.9475 14.2738 23.0402 14.2488 23.1347 14.2488C23.2292 14.2487 23.322 14.2736 23.4038 14.3208L24.1677 14.7579C25.0128 15.2421 25.9647 15.5095 26.9383 15.5363C27.9119 15.5632 28.877 15.3485 29.7475 14.9116L30.9544 14.3063C31.0291 14.269 31.1113 14.2496 31.1948 14.2496C31.2782 14.2496 31.3604 14.269 31.4351 14.3063L32.6506 14.9138C33.521 15.3499 34.4858 15.564 35.4589 15.5369C36.4321 15.5098 37.3835 15.2423 38.2283 14.7584L38.9944 14.3208C39.0762 14.2736 39.169 14.2487 39.2634 14.2488C39.3579 14.2488 39.4507 14.2738 39.5324 14.3211C39.6142 14.3684 39.682 14.4364 39.7291 14.5183C39.7762 14.6001 39.8009 14.693 39.8008 14.7874ZM30.219 32.4715L31.1991 32.9946L32.1791 32.4715C34.1582 31.4189 35.8133 29.8471 36.9666 27.925C38.12 26.0029 38.728 23.8029 38.7255 21.5613V15.7137C37.7301 16.2766 36.6115 16.586 35.4683 16.6147C34.3251 16.6434 33.1924 16.3905 32.17 15.8783L31.1948 15.3912L30.2271 15.875C29.205 16.3875 28.0727 16.6408 26.9297 16.6127C25.7867 16.5846 24.6682 16.2759 23.6726 15.7137V21.5613C23.6702 23.8029 24.2783 26.0028 25.4316 27.9249C26.585 29.847 28.24 31.4188 30.219 32.4715ZM30.1238 41.1302H29.0486V37.0508C29.0468 36.2075 28.8255 35.3793 28.4064 34.6475C27.9873 33.9157 27.3849 33.3057 26.6584 32.8774L22.978 30.7184C22.6323 30.5191 22.2379 30.42 21.839 30.4324C21.4402 30.4447 21.0527 30.568 20.72 30.7883L19.4507 26.0573C19.3153 25.5116 18.9765 25.0383 18.5036 24.7342C18.0307 24.4301 17.4595 24.3182 16.9068 24.4214C16.621 24.4818 16.3504 24.5996 16.1116 24.7678C15.8728 24.9361 15.6707 25.1511 15.5177 25.3999C15.3646 25.6487 15.2637 25.926 15.2212 26.215C15.1787 26.504 15.1954 26.7986 15.2703 27.0809L17.6035 35.7869C17.7432 36.3103 18.0384 36.779 18.4502 37.1309L20.9571 39.2814C21.1342 39.4327 21.2763 39.6205 21.3739 39.832C21.4714 40.0435 21.522 40.2737 21.5221 40.5066V41.1302H20.4469C20.3043 41.1302 20.1676 41.1868 20.0668 41.2877C19.9659 41.3885 19.9093 41.5252 19.9093 41.6678V45.9686C19.9093 46.1112 19.9659 46.248 20.0668 46.3488C20.1676 46.4496 20.3043 46.5063 20.4469 46.5063H30.1238C30.2664 46.5063 30.4031 46.4496 30.504 46.3488C30.6048 46.248 30.6614 46.1112 30.6614 45.9686V41.6678C30.6614 41.5252 30.6048 41.3885 30.504 41.2877C30.4031 41.1868 30.2664 41.1302 30.1238 41.1302ZM21.6587 38.4653L19.1518 36.3148C18.9045 36.1039 18.7273 35.8226 18.6438 35.5084L16.3106 26.803C16.2863 26.7118 16.2744 26.6178 16.2751 26.5234C16.2766 26.2772 16.3623 26.039 16.5178 25.8482C16.6734 25.6574 16.8896 25.5256 17.1304 25.4745C17.4132 25.4312 17.7019 25.4956 17.9395 25.6548C18.1771 25.8141 18.3463 26.0567 18.4137 26.3347L19.8926 31.8447C19.723 32.3324 19.7307 32.8643 19.9145 33.3469C20.0983 33.8295 20.4463 34.2319 20.8974 34.4832L23.908 36.2181C24.0316 36.2894 24.1785 36.3086 24.3163 36.2716C24.4542 36.2346 24.5716 36.1444 24.6429 36.0208C24.7142 35.8972 24.7335 35.7503 24.6965 35.6125C24.6595 35.4746 24.5692 35.3572 24.4456 35.2859L21.435 33.551C21.1843 33.415 20.9943 33.189 20.9034 32.9187C20.8124 32.6483 20.8272 32.3535 20.9447 32.0936C21.0337 31.9159 21.1708 31.7667 21.3403 31.663C21.5099 31.5593 21.7051 31.5053 21.9038 31.507C22.0912 31.5066 22.2754 31.5552 22.4382 31.6479L26.1143 33.8053C26.6794 34.1382 27.148 34.6126 27.474 35.1817C27.8 35.7508 27.9721 36.395 27.9734 37.0508V41.1302H22.5973V40.5066C22.5974 40.1187 22.5135 39.7355 22.3515 39.3831C22.1895 39.0308 21.9531 38.7177 21.6587 38.4653ZM29.5862 45.431H20.9845V42.2054H29.5862V45.431ZM45.4892 24.4225C44.9365 24.3188 44.3652 24.4305 43.8923 24.7347C43.4195 25.0389 43.081 25.5125 42.9463 26.0584L41.6764 30.7893C41.3436 30.5691 40.956 30.4461 40.5571 30.4342C40.1582 30.4222 39.7639 30.5217 39.4185 30.7216L35.7423 32.8779C35.0155 33.3058 34.4126 33.9156 33.993 34.6473C33.5734 35.379 33.3516 36.2074 33.3495 37.0508V41.1302H32.2742C32.1317 41.1302 31.9949 41.1868 31.8941 41.2877C31.7933 41.3885 31.7366 41.5252 31.7366 41.6678V45.9687C31.7366 46.1112 31.7933 46.248 31.8941 46.3488C31.9949 46.4496 32.1317 46.5063 32.2742 46.5063H41.9512C42.0937 46.5063 42.2305 46.4496 42.3313 46.3488C42.4321 46.248 42.4888 46.1112 42.4888 45.9687V41.6678C42.4888 41.5252 42.4321 41.3885 42.3313 41.2877C42.2305 41.1868 42.0937 41.1302 41.9512 41.1302H40.8759V40.5066C40.8759 40.2739 40.9262 40.044 41.0233 39.8326C41.1205 39.6212 41.2622 39.4334 41.4388 39.2819L43.9457 37.1315C44.3575 36.7794 44.6529 36.3108 44.793 35.7875L47.1256 27.0826C47.1746 26.9001 47.199 26.7119 47.1982 26.5229C47.1956 26.0304 47.0246 25.5536 46.7138 25.1715C46.4029 24.7895 45.9708 24.5252 45.4892 24.4225ZM41.4136 45.4311H32.8118V42.2054H41.4136V45.4311ZM46.0875 26.8035L43.7543 35.5095C43.6706 35.8236 43.4934 36.1048 43.2463 36.3159L40.7394 38.4664C40.4451 38.7186 40.2088 39.0316 40.0468 39.3838C39.8848 39.7359 39.8008 40.1189 39.8007 40.5066V41.1302H34.4247V37.0508C34.426 36.3949 34.5982 35.7507 34.9241 35.1815C35.2501 34.6124 35.7187 34.1379 36.2837 33.8048L39.9556 31.6506C40.1192 31.5566 40.3045 31.5071 40.4932 31.5071C40.6927 31.5053 40.8887 31.5598 41.0587 31.6644C41.2286 31.769 41.3656 31.9195 41.4539 32.0984C41.5715 32.3583 41.5863 32.653 41.4954 32.9234C41.4046 33.1938 41.2148 33.4197 40.9641 33.5559L37.9535 35.2907C37.8923 35.326 37.8387 35.373 37.7956 35.4291C37.7526 35.4851 37.721 35.5491 37.7027 35.6173C37.6843 35.6856 37.6796 35.7567 37.6888 35.8268C37.698 35.8969 37.7209 35.9644 37.7562 36.0256C37.7915 36.0868 37.8385 36.1405 37.8946 36.1835C37.9506 36.2266 38.0146 36.2582 38.0828 36.2765C38.1511 36.2948 38.2222 36.2995 38.2923 36.2903C38.3624 36.2811 38.4299 36.2582 38.4911 36.2229L41.5017 34.4881C41.9527 34.2367 42.3007 33.8345 42.4844 33.352C42.6682 32.8695 42.676 32.3377 42.5065 31.85L43.9855 26.3396C44.0525 26.0614 44.2216 25.8185 44.4593 25.6592C44.697 25.4999 44.9859 25.4357 45.2687 25.4794C45.5086 25.5305 45.7239 25.6617 45.8791 25.8515C46.0344 26.0412 46.1204 26.2782 46.123 26.5234C46.1237 26.618 46.1118 26.7122 46.0875 26.8035ZM37.6503 18.0314C37.6503 17.9511 37.6324 17.8719 37.5978 17.7995C37.5633 17.727 37.5129 17.6633 37.4505 17.6129C37.388 17.5624 37.3151 17.5266 37.237 17.5081C37.1589 17.4895 37.0777 17.4887 36.9993 17.5056C35.2053 17.888 33.3347 17.6525 31.6915 16.8374L31.4377 16.711C31.3627 16.6732 31.2798 16.6535 31.1958 16.6535C31.1118 16.6535 31.0289 16.6732 30.9539 16.711L30.7055 16.8352C29.0621 17.6515 27.1908 17.8876 25.3961 17.5051C25.3178 17.4886 25.2369 17.4898 25.1591 17.5086C25.0814 17.5273 25.0088 17.5632 24.9467 17.6136C24.8846 17.664 24.8345 17.7275 24.8001 17.7997C24.7657 17.8719 24.7478 17.9509 24.7477 18.0308V21.5613C24.7455 23.608 25.3006 25.6166 26.3537 27.3716C27.4067 29.1266 28.9178 30.5616 30.7248 31.5226L30.9458 31.6409C31.0237 31.6824 31.1105 31.7041 31.1988 31.7041C31.287 31.7041 31.3738 31.6824 31.4517 31.6409L31.6732 31.5226C33.4802 30.5616 34.9913 29.1266 36.0444 27.3716C37.0974 25.6166 37.6526 23.608 37.6503 21.5613V18.0314ZM36.5751 21.5613C36.5771 23.4069 36.0781 25.2185 35.1313 26.8028C34.1845 28.3871 32.8254 29.6846 31.199 30.5571C29.5726 29.6846 28.2135 28.3871 27.2667 26.8028C26.3199 25.2185 25.8209 23.4069 25.823 21.5613V18.6727C27.659 18.9276 29.5292 18.6227 31.1893 17.7981L31.199 17.7927L31.2119 17.7997C32.871 18.624 34.7402 18.9285 36.5751 18.6733V21.5613ZM30.1238 24.7794L34.2403 20.6629C34.2899 20.6116 34.3492 20.5706 34.4148 20.5425C34.4804 20.5143 34.5509 20.4994 34.6223 20.4988C34.6937 20.4982 34.7645 20.5118 34.8305 20.5388C34.8966 20.5659 34.9566 20.6058 35.0071 20.6563C35.0576 20.7067 35.0975 20.7668 35.1245 20.8328C35.1516 20.8989 35.1652 20.9697 35.1646 21.0411C35.1639 21.1125 35.1491 21.183 35.1209 21.2486C35.0928 21.3142 35.0518 21.3735 35.0004 21.4231L30.5039 25.9197C30.4031 26.0204 30.2664 26.0771 30.1238 26.0771C29.9813 26.0771 29.8445 26.0204 29.7437 25.9197L27.6852 23.8612C27.5873 23.7598 27.5331 23.624 27.5343 23.483C27.5356 23.342 27.5921 23.2072 27.6918 23.1075C27.7915 23.0079 27.9263 22.9513 28.0673 22.9501C28.2082 22.9489 28.344 23.0031 28.4454 23.101L30.1238 24.7794Z" fill="#B45754"/>
</svg>
