<svg width="56" height="34" viewBox="0 0 56 34" fill="none" xmlns="http://www.w3.org/2000/svg">
<path fill-rule="evenodd" clip-rule="evenodd" d="M47.2491 15.9075H45.7435C47.5636 14.3028 48.7155 11.9564 48.7155 9.3446C48.7155 4.51929 44.7899 0.59375 39.9646 0.59375H36.6436C36.0395 0.59375 35.5499 1.08337 35.5499 1.6875C35.5499 2.29163 36.0395 2.78125 36.6436 2.78125H39.9646C43.5834 2.78125 46.5275 5.7254 46.5275 9.3446C46.5275 12.9634 43.5834 15.9075 39.9646 15.9075H22.5654C22.7021 15.7866 22.8372 15.6623 22.9675 15.532C26.379 12.12 26.379 6.56879 22.9675 3.1568C22.8367 3.02606 22.7017 2.90216 22.565 2.78125H26.799C27.4031 2.78125 27.8928 2.29163 27.8928 1.6875C27.8928 1.08337 27.4031 0.59375 26.799 0.59375H16.7797C16.7391 0.59375 16.6989 0.596313 16.6592 0.600586C14.4589 0.63092 12.2675 1.48157 10.5923 3.1568C7.1803 6.56879 7.1803 12.12 10.5923 15.532C10.7226 15.6627 10.8576 15.7866 10.9943 15.9075H8.75214H8.75171H8.75085C3.92554 15.9075 0 19.8331 0 24.6584C0 29.4833 3.92554 33.4088 8.75085 33.4088H8.75171H8.75214H47.2491C52.0745 33.4088 56 29.4833 56 24.6584C56 19.8331 52.0745 15.9075 47.2491 15.9075ZM30.6276 24.658C30.6276 28.2772 27.6834 31.2213 24.0642 31.2213C20.4454 31.2213 17.5013 28.2772 17.5013 24.658C17.5013 21.0392 20.4454 18.095 24.0642 18.095C27.6834 18.095 30.6276 21.0392 30.6276 24.658ZM16.7797 18.095H18.2857C17.5342 18.7577 16.8967 19.546 16.4075 20.4278C15.9183 19.546 15.2809 18.7577 14.5298 18.095H16.7797ZM12.1389 13.9854C9.58014 11.4261 9.58014 7.26263 12.1389 4.70386C13.4185 3.42426 15.0989 2.78467 16.7797 2.78467C18.46 2.78467 20.1412 3.42468 21.4204 4.70386C23.9792 7.26263 23.9792 11.4261 21.4204 13.9854C20.181 15.2248 18.5327 15.9075 16.7797 15.9075C15.0267 15.9075 13.3788 15.2248 12.1389 13.9854ZM2.1875 24.658C2.1875 21.0392 5.13165 18.095 8.75085 18.095C12.3696 18.095 15.3138 21.0392 15.3138 24.658C15.3138 28.2772 12.3696 31.2213 8.75085 31.2213C5.13165 31.2213 2.1875 28.2772 2.1875 24.658ZM14.5294 31.2213C15.2809 30.5587 15.9183 29.7704 16.4075 28.8885C16.8967 29.7704 17.5342 30.5587 18.2857 31.2213H14.5294ZM47.2491 31.2213H29.8431C31.6636 29.6166 32.8151 27.2697 32.8151 24.658C32.8151 22.0462 31.6632 19.6998 29.8431 18.095H47.2491C50.8683 18.095 53.8125 21.0392 53.8125 24.658C53.8125 28.2772 50.8683 31.2213 47.2491 31.2213ZM16.7797 4.96924C14.3671 4.96924 12.4043 6.93201 12.4043 9.34467C12.4043 11.7569 14.3671 13.7197 16.7797 13.7197C19.1924 13.7197 21.1552 11.7569 21.1552 9.34467C21.1552 6.93201 19.1924 4.96924 16.7797 4.96924ZM16.7797 11.5322C15.5736 11.5322 14.5922 10.5508 14.5922 9.34467C14.5922 8.13812 15.5736 7.15674 16.7797 7.15674C17.9863 7.15674 18.9677 8.13812 18.9677 9.34467C18.9677 10.5508 17.9863 11.5322 16.7797 11.5322ZM28.4396 24.6582C28.4396 27.0709 26.4769 29.0336 24.0642 29.0336C21.652 29.0336 19.6892 27.0709 19.6892 24.6582C19.6892 22.246 21.652 20.2832 24.0642 20.2832C26.4769 20.2832 28.4396 22.246 28.4396 24.6582ZM26.2521 24.6582C26.2521 23.4521 25.2708 22.4707 24.0642 22.4707C22.8581 22.4707 21.8767 23.4521 21.8767 24.6582C21.8767 25.8647 22.8581 26.8461 24.0642 26.8461C25.2708 26.8461 26.2521 25.8647 26.2521 24.6582ZM13.1259 24.6582C13.1259 22.246 11.1631 20.2832 8.75092 20.2832C6.33826 20.2832 4.37549 22.246 4.37549 24.6582C4.37549 27.0709 6.33826 29.0336 8.75092 29.0336C11.1631 29.0336 13.1259 27.0709 13.1259 24.6582ZM6.56299 24.6582C6.56299 23.4521 7.54437 22.4707 8.75092 22.4707C9.95703 22.4707 10.9384 23.4521 10.9384 24.6582C10.9384 25.8647 9.95703 26.8461 8.75092 26.8461C7.54437 26.8461 6.56299 25.8647 6.56299 24.6582ZM32.4945 2.46082C32.2911 2.66418 32.0087 2.78125 31.7212 2.78125C31.4332 2.78125 31.1512 2.66418 30.9479 2.46082C30.7445 2.25745 30.6274 1.97546 30.6274 1.6875C30.6274 1.39996 30.7445 1.11755 30.9479 0.914185C31.1512 0.710815 31.4332 0.59375 31.7212 0.59375C32.0087 0.59375 32.2911 0.710815 32.4945 0.914185C32.6979 1.11755 32.8149 1.39996 32.8149 1.6875C32.8149 1.97546 32.6979 2.25745 32.4945 2.46082Z" fill="#B65855"/>
</svg>
