<svg width="56" height="56" viewBox="0 0 56 56" fill="none" xmlns="http://www.w3.org/2000/svg">
<path fill-rule="evenodd" clip-rule="evenodd" d="M47.2491 26.9075H45.7435C47.5636 25.3028 48.7155 22.9564 48.7155 20.3446C48.7155 15.5193 44.7899 11.5938 39.9646 11.5938H36.6436C36.0395 11.5938 35.5499 12.0834 35.5499 12.6875C35.5499 13.2916 36.0395 13.7812 36.6436 13.7812H39.9646C43.5834 13.7812 46.5275 16.7254 46.5275 20.3446C46.5275 23.9634 43.5834 26.9075 39.9646 26.9075H22.5654C22.7021 26.7866 22.8372 26.6623 22.9675 26.532C26.379 23.12 26.379 17.5688 22.9675 14.1568C22.8367 14.0261 22.7017 13.9022 22.565 13.7812H26.799C27.4031 13.7812 27.8928 13.2916 27.8928 12.6875C27.8928 12.0834 27.4031 11.5938 26.799 11.5938H16.7797C16.7391 11.5938 16.6989 11.5963 16.6592 11.6006C14.4589 11.6309 12.2675 12.4816 10.5923 14.1568C7.1803 17.5688 7.1803 23.12 10.5923 26.532C10.7226 26.6627 10.8576 26.7866 10.9943 26.9075H8.75214H8.75171H8.75085C3.92554 26.9075 0 30.8331 0 35.6584C0 40.4833 3.92554 44.4088 8.75085 44.4088H8.75171H8.75214H47.2491C52.0745 44.4088 56 40.4833 56 35.6584C56 30.8331 52.0745 26.9075 47.2491 26.9075ZM30.6276 35.658C30.6276 39.2772 27.6834 42.2213 24.0642 42.2213C20.4454 42.2213 17.5013 39.2772 17.5013 35.658C17.5013 32.0392 20.4454 29.095 24.0642 29.095C27.6834 29.095 30.6276 32.0392 30.6276 35.658ZM16.7797 29.095H18.2857C17.5342 29.7577 16.8967 30.546 16.4075 31.4278C15.9183 30.546 15.2809 29.7577 14.5298 29.095H16.7797ZM12.1389 24.9854C9.58014 22.4261 9.58014 18.2626 12.1389 15.7039C13.4185 14.4243 15.0989 13.7847 16.7797 13.7847C18.46 13.7847 20.1412 14.4247 21.4204 15.7039C23.9792 18.2626 23.9792 22.4261 21.4204 24.9854C20.181 26.2248 18.5327 26.9075 16.7797 26.9075C15.0267 26.9075 13.3788 26.2248 12.1389 24.9854ZM2.1875 35.658C2.1875 32.0392 5.13165 29.095 8.75085 29.095C12.3696 29.095 15.3138 32.0392 15.3138 35.658C15.3138 39.2772 12.3696 42.2213 8.75085 42.2213C5.13165 42.2213 2.1875 39.2772 2.1875 35.658ZM14.5294 42.2213C15.2809 41.5587 15.9183 40.7704 16.4075 39.8885C16.8967 40.7704 17.5342 41.5587 18.2857 42.2213H14.5294ZM47.2491 42.2213H29.8431C31.6636 40.6166 32.8151 38.2697 32.8151 35.658C32.8151 33.0462 31.6632 30.6998 29.8431 29.095H47.2491C50.8683 29.095 53.8125 32.0392 53.8125 35.658C53.8125 39.2772 50.8683 42.2213 47.2491 42.2213ZM16.7797 15.9692C14.3671 15.9692 12.4043 17.932 12.4043 20.3447C12.4043 22.7569 14.3671 24.7197 16.7797 24.7197C19.1924 24.7197 21.1552 22.7569 21.1552 20.3447C21.1552 17.932 19.1924 15.9692 16.7797 15.9692ZM16.7797 22.5322C15.5736 22.5322 14.5922 21.5508 14.5922 20.3447C14.5922 19.1381 15.5736 18.1567 16.7797 18.1567C17.9863 18.1567 18.9677 19.1381 18.9677 20.3447C18.9677 21.5508 17.9863 22.5322 16.7797 22.5322ZM28.4396 35.6582C28.4396 38.0709 26.4769 40.0336 24.0642 40.0336C21.652 40.0336 19.6892 38.0709 19.6892 35.6582C19.6892 33.246 21.652 31.2832 24.0642 31.2832C26.4769 31.2832 28.4396 33.246 28.4396 35.6582ZM26.2521 35.6582C26.2521 34.4521 25.2708 33.4707 24.0642 33.4707C22.8581 33.4707 21.8767 34.4521 21.8767 35.6582C21.8767 36.8647 22.8581 37.8461 24.0642 37.8461C25.2708 37.8461 26.2521 36.8647 26.2521 35.6582ZM13.1259 35.6582C13.1259 33.246 11.1631 31.2832 8.75092 31.2832C6.33826 31.2832 4.37549 33.246 4.37549 35.6582C4.37549 38.0709 6.33826 40.0336 8.75092 40.0336C11.1631 40.0336 13.1259 38.0709 13.1259 35.6582ZM6.56299 35.6582C6.56299 34.4521 7.54437 33.4707 8.75092 33.4707C9.95703 33.4707 10.9384 34.4521 10.9384 35.6582C10.9384 36.8647 9.95703 37.8461 8.75092 37.8461C7.54437 37.8461 6.56299 36.8647 6.56299 35.6582ZM32.4945 13.4608C32.2911 13.6642 32.0087 13.7812 31.7212 13.7812C31.4332 13.7812 31.1512 13.6642 30.9479 13.4608C30.7445 13.2574 30.6274 12.9755 30.6274 12.6875C30.6274 12.4 30.7445 12.1176 30.9479 11.9142C31.1512 11.7108 31.4332 11.5938 31.7212 11.5938C32.0087 11.5938 32.2911 11.7108 32.4945 11.9142C32.6979 12.1176 32.8149 12.4 32.8149 12.6875C32.8149 12.9755 32.6979 13.2574 32.4945 13.4608Z" fill="#B65855"/>
</svg>
