<svg width="1149" height="1208" viewBox="0 0 1149 1208" fill="none" xmlns="http://www.w3.org/2000/svg">
<rect x="1" y="959" width="219" height="110" rx="6" fill="white"/>
<rect x="1" y="959" width="219" height="110" rx="6" stroke="#D9E0F1" stroke-width="2"/>
<rect x="233" y="959" width="219" height="92" rx="6" fill="white"/>
<rect x="233" y="959" width="219" height="92" rx="6" stroke="#D9E0F1" stroke-width="2"/>
<rect x="465" y="959" width="219" height="110" rx="6" fill="white"/>
<rect x="465" y="959" width="219" height="110" rx="6" stroke="#D9E0F1" stroke-width="2"/>
<rect x="441" y="1151" width="267" height="56" rx="6" fill="#4262B9"/>
<rect x="441" y="1151" width="267" height="56" rx="6" stroke="#4262B9" stroke-width="2"/>
<rect x="700" y="959" width="219" height="110" rx="6" fill="white"/>
<rect x="700" y="959" width="219" height="110" rx="6" stroke="#D9E0F1" stroke-width="2"/>
<rect x="929" y="959" width="219" height="74" rx="6" fill="white"/>
<rect x="929" y="959" width="219" height="74" rx="6" stroke="#D9E0F1" stroke-width="2"/>
<circle cx="110.5" cy="1068" r="3" fill="#4262B9"/>
<path d="M442 1179L432 1173.23V1184.77L442 1179ZM109.5 1068V1159H111.5V1068H109.5ZM130.5 1180H433V1178H130.5V1180ZM109.5 1159C109.5 1170.6 118.902 1180 130.5 1180V1178C120.007 1178 111.5 1169.49 111.5 1159H109.5Z" fill="#4262B9"/>
<ellipse cx="336.969" cy="1068" rx="0.968889" ry="3" fill="#4262B9"/>
<path d="M444.031 1179L434.031 1173.23V1184.77L444.031 1179ZM335.969 1068V1159H337.969V1068H335.969ZM356.969 1180H435.031V1178H356.969V1180ZM335.969 1159C335.969 1170.6 345.371 1180 356.969 1180V1178C346.475 1178 337.969 1169.49 337.969 1159H335.969Z" fill="#4262B9"/>
<circle r="3" transform="matrix(-1 0 0 1 1040.5 1035)" fill="#4262B9"/>
<path d="M709 1179L719 1173.23V1184.77L709 1179ZM1041.5 1036V1159H1039.5V1036H1041.5ZM1020.5 1180H718V1178H1020.5V1180ZM1041.5 1159C1041.5 1170.6 1032.1 1180 1020.5 1180V1178C1030.99 1178 1039.5 1169.49 1039.5 1159H1041.5Z" fill="#4262B9"/>
<circle r="3" transform="matrix(-1 0 0 1 811 1071)" fill="#4262B9"/>
<path d="M707 1179L717 1173.23V1184.77L707 1179ZM812 1070V1159H810V1070H812ZM791 1180H716V1178H791V1180ZM812 1159C812 1170.6 802.598 1180 791 1180V1178C801.493 1178 810 1169.49 810 1159H812Z" fill="#4262B9"/>
<rect x="700" y="611" width="219" height="92" rx="6" fill="white"/>
<rect x="700" y="611" width="219" height="92" rx="6" stroke="#D9E0F1" stroke-width="2"/>
<rect x="465" y="611" width="219" height="128" rx="6" fill="white"/>
<rect x="465" y="611" width="219" height="128" rx="6" stroke="#D9E0F1" stroke-width="2"/>
<rect x="1" y="611" width="219" height="92" rx="6" fill="white"/>
<rect x="1" y="611" width="219" height="92" rx="6" stroke="#D9E0F1" stroke-width="2"/>
<rect x="1" y="778" width="219" height="146" rx="6" fill="white"/>
<rect x="1" y="778" width="219" height="146" rx="6" stroke="#D9E0F1" stroke-width="2"/>
<rect x="465" y="778" width="219" height="74" rx="6" fill="white"/>
<rect x="465" y="778" width="219" height="74" rx="6" stroke="#D9E0F1" stroke-width="2"/>
<rect x="929" y="611" width="219" height="92" rx="6" fill="white"/>
<rect x="929" y="611" width="219" height="92" rx="6" stroke="#D9E0F1" stroke-width="2"/>
<rect x="929" y="438" width="219" height="92" rx="6" fill="white"/>
<rect x="929" y="438" width="219" height="92" rx="6" stroke="#D9E0F1" stroke-width="2"/>
<rect x="700" y="438" width="219" height="128" rx="6" fill="white"/>
<rect x="700" y="438" width="219" height="128" rx="6" stroke="#D9E0F1" stroke-width="2"/>
<rect x="465" y="345" width="219" height="56" rx="6" fill="white"/>
<rect x="465" y="345" width="219" height="56" rx="6" stroke="#D9E0F1" stroke-width="2"/>
<rect x="465" y="438" width="219" height="110" rx="6" fill="white"/>
<rect x="465" y="438" width="219" height="110" rx="6" stroke="#D9E0F1" stroke-width="2"/>
<rect x="233" y="438" width="219" height="56" rx="6" fill="white"/>
<rect x="233" y="438" width="219" height="56" rx="6" stroke="#D9E0F1" stroke-width="2"/>
<rect x="1" y="438" width="219" height="128" rx="6" fill="white"/>
<rect x="1" y="438" width="219" height="128" rx="6" stroke="#D9E0F1" stroke-width="2"/>
<circle cx="574.5" cy="403" r="3" fill="#4262B9"/>
<path d="M574.5 439L580.274 429H568.726L574.5 439ZM573.5 403V430H575.5V403H573.5Z" fill="#4262B9"/>
<circle r="3" transform="matrix(-1 0 0 1 461.5 391)" fill="#4262B9"/>
<path d="M111 437L105.227 427H116.773L111 437ZM461.5 392H131V390H461.5V392ZM112 411V428H110V411H112ZM131 392C120.507 392 112 400.507 112 411H110C110 399.402 119.402 390 131 390V392Z" fill="#4262B9"/>
<ellipse rx="1.03927" ry="3" transform="matrix(-1 0 0 1 463.461 391)" fill="#4262B9"/>
<path d="M342.039 437L336.266 427H347.813L342.039 437ZM463.461 392H362.039V390H463.461V392ZM343.039 411V428H341.039V411H343.039ZM362.039 392C351.546 392 343.039 400.507 343.039 411H341.039C341.039 399.402 350.441 390 362.039 390V392Z" fill="#4262B9"/>
<circle cx="686" cy="391" r="3" fill="#4262B9"/>
<path d="M1036.5 437L1042.27 427H1030.73L1036.5 437ZM686 392H1016.5V390H686V392ZM1035.5 411V428H1037.5V411H1035.5ZM1016.5 392C1026.99 392 1035.5 400.507 1035.5 411H1037.5C1037.5 399.402 1028.1 390 1016.5 390V392Z" fill="#4262B9"/>
<ellipse cx="684.153" cy="391" rx="1.15288" ry="3" fill="#4262B9"/>
<path d="M818.847 437L824.621 427H813.074L818.847 437ZM684.153 392H798.847V390H684.153V392ZM817.847 411V428H819.847V411H817.847ZM798.847 392C809.34 392 817.847 400.507 817.847 411H819.847C819.847 399.402 810.445 390 798.847 390V392Z" fill="#4262B9"/>
<path d="M463.013 375L453.013 369.226V380.774L463.013 375ZM454.013 374H133.987V376H454.013V374ZM114.987 355V327H112.987V355H114.987ZM133.987 374C123.494 374 114.987 365.493 114.987 355H112.987C112.987 366.598 122.389 376 133.987 376V374Z" fill="#4262B9"/>
<path d="M463.013 375L453.013 369.226V380.774L463.013 375ZM454.013 374H361V376H454.013V374ZM342 355V184H340V355H342ZM361 374C350.507 374 342 365.493 342 355H340C340 366.598 349.402 376 361 376V374Z" fill="#4262B9"/>
<path d="M687 375L697 369.226V380.774L687 375ZM696 374H1016.03V376H696V374ZM1035.03 355V183H1037.03V355H1035.03ZM1016.03 374C1026.52 374 1035.03 365.493 1035.03 355H1037.03C1037.03 366.598 1027.62 376 1016.03 376V374Z" fill="#4262B9"/>
<path d="M687 375L697 369.226V380.774L687 375ZM696 374H789V376H696V374ZM808 355V272H810V355H808ZM789 374C799.493 374 808 365.493 808 355H810C810 366.598 800.598 376 789 376V374Z" fill="#4262B9"/>
<rect x="233" y="109" width="219" height="74" rx="6" fill="white"/>
<rect x="233" y="109" width="219" height="74" rx="6" stroke="#D9E0F1" stroke-width="2"/>
<rect x="1" y="109" width="219" height="218" rx="6" fill="white"/>
<rect x="1" y="109" width="219" height="218" rx="6" stroke="#D9E0F1" stroke-width="2"/>
<rect x="465" y="109" width="219" height="128" rx="6" fill="white"/>
<rect x="465" y="109" width="219" height="128" rx="6" stroke="#D9E0F1" stroke-width="2"/>
<rect x="700" y="109" width="219" height="164" rx="6" fill="white"/>
<rect x="700" y="109" width="219" height="164" rx="6" stroke="#D9E0F1" stroke-width="2"/>
<rect x="929" y="109" width="219" height="74" rx="6" fill="white"/>
<rect x="929" y="109" width="219" height="74" rx="6" stroke="#D9E0F1" stroke-width="2"/>
<rect x="460" y="1" width="229" height="74" rx="6" fill="white"/>
<rect x="460" y="1" width="229" height="74" rx="6" stroke="#D9E0F1" stroke-width="2"/>
<circle cx="574.5" cy="74" r="3" fill="#4262B9"/>
<path d="M574.5 110L580.274 100H568.726L574.5 110ZM573.5 74V101H575.5V74H573.5Z" fill="#4262B9"/>
<circle cx="688" cy="38" r="3" fill="#4262B9"/>
<path d="M1038.5 110L1044.27 100H1032.73L1038.5 110ZM688 39H1018.5V37H688V39ZM1037.5 58V101H1039.5V58H1037.5ZM1018.5 39C1028.99 39 1037.5 47.5066 1037.5 58H1039.5C1039.5 46.402 1030.1 37 1018.5 37V39Z" fill="#4262B9"/>
<ellipse cx="686.052" cy="38" rx="1.05189" ry="3" fill="#4262B9"/>
<path d="M808.948 110L814.722 100H803.175L808.948 110ZM686.052 39H788.948V37H686.052V39ZM807.948 58V101H809.948V58H807.948ZM788.948 39C799.442 39 807.948 47.5066 807.948 58H809.948C809.948 46.402 800.546 37 788.948 37V39Z" fill="#4262B9"/>
<circle r="3" transform="matrix(-1 0 0 1 461.5 38)" fill="#4262B9"/>
<path d="M111 110L105.227 100H116.773L111 110ZM461.5 39H131V37H461.5V39ZM112 58V101H110V58H112ZM131 39C120.507 39 112 47.5066 112 58H110C110 46.402 119.402 37 131 37V39Z" fill="#4262B9"/>
<ellipse rx="1.04769" ry="3" transform="matrix(-1 0 0 1 463.452 38)" fill="#4262B9"/>
<path d="M341.048 110L335.274 100H346.821L341.048 110ZM463.452 39H361.048V37H463.452V39ZM342.048 58V101H340.048V58H342.048ZM361.048 39C350.554 39 342.048 47.5066 342.048 58H340.048C340.048 46.402 349.45 37 361.048 37V39Z" fill="#4262B9"/>
<circle cx="574.5" cy="236" r="3" fill="#4262B9"/>
<path d="M574.5 346L580.274 336H568.726L574.5 346ZM573.5 236V337H575.5V236H573.5Z" fill="#4262B9"/>
<circle cx="701" cy="191" r="3" fill="#4262B9"/>
<path d="M691 200V364H693V200H691ZM691 364C691 368.418 687.418 372 683 372V374C688.523 374 693 369.523 693 364H691ZM701 190C695.477 190 691 194.477 691 200H693C693 195.582 696.582 192 701 192V190Z" fill="#4262B9"/>
<circle cx="110.5" cy="565" r="3" fill="#4262B9"/>
<path d="M110.5 612L116.274 602H104.726L110.5 612ZM109.5 565V603H111.5V565H109.5Z" fill="#4262B9"/>
<circle cx="110.5" cy="702" r="3" fill="#4262B9"/>
<path d="M110.5 779L116.274 769H104.726L110.5 779ZM109.5 702V770H111.5V702H109.5Z" fill="#4262B9"/>
<circle cx="110.5" cy="923" r="3" fill="#4262B9"/>
<path d="M110.5 960L116.274 950H104.726L110.5 960ZM109.5 923V951H111.5V923H109.5Z" fill="#4262B9"/>
<circle cx="342.5" cy="493" r="3" fill="#4262B9"/>
<path d="M342.5 960L348.274 950H336.726L342.5 960ZM341.5 493V951H343.5V493H341.5Z" fill="#4262B9"/>
<circle cx="574.5" cy="738" r="3" fill="#4262B9"/>
<path d="M574.5 779L580.274 769H568.726L574.5 779ZM573.5 738V770H575.5V738H573.5Z" fill="#4262B9"/>
<ellipse cx="809" cy="568.128" rx="3" ry="3.12766" fill="#4262B9"/>
<path d="M809 610.872L814.774 600.872H803.226L809 610.872ZM808 568.128V601.872H810V568.128H808Z" fill="#4262B9"/>
<circle cx="571" cy="549" r="3" fill="#4262B9"/>
<path d="M571 610.596L576.774 600.596H565.226L571 610.596ZM570 550.404V601.596H572V550.404H570Z" fill="#4262B9"/>
<circle cx="574.5" cy="851" r="3" fill="#4262B9"/>
<path d="M574.5 960L580.274 950H568.726L574.5 960ZM573.5 851V951H575.5V851H573.5Z" fill="#4262B9"/>
<circle cx="809.5" cy="702" r="3" fill="#4262B9"/>
<path d="M809.5 960L815.274 950H803.726L809.5 960ZM808.5 702V951H810.5V702H808.5Z" fill="#4262B9"/>
<circle cx="1038.5" cy="529" r="3" fill="#4262B9"/>
<path d="M1038.5 612L1044.27 602H1032.73L1038.5 612ZM1037.5 529V603H1039.5V529H1037.5Z" fill="#4262B9"/>
<circle cx="1038.5" cy="702" r="3" fill="#4262B9"/>
<path d="M1038.5 960L1044.27 950H1032.73L1038.5 960ZM1037.5 702V951H1039.5V702H1037.5Z" fill="#4262B9"/>
<circle cx="574.5" cy="1068" r="3" fill="#4262B9"/>
<path d="M574.5 1152L580.274 1142H568.726L574.5 1152ZM573.5 1068V1143H575.5V1068H573.5Z" fill="#4262B9"/>
</svg>
