<svg width="62" height="62" viewBox="0 0 62 62" fill="none" xmlns="http://www.w3.org/2000/svg">
<circle cx="31" cy="31" r="30.5" fill="white" stroke="#D1C0C0"/>
<path fill-rule="evenodd" clip-rule="evenodd" d="M44.2701 27.1039C45.2207 27.323 46.1821 27.4919 47.1504 27.6101V27.6C47.4299 27.6153 47.6441 27.8544 47.6287 28.134C47.6133 28.4135 47.3742 28.6277 47.0947 28.6123H47.039C45.8355 28.4727 44.642 28.258 43.4653 27.9695C43.1465 28.213 42.7912 28.4043 42.4124 28.5364C42.4032 29.2346 42.5928 29.9211 42.9591 30.5156C43.0345 30.627 43.0624 30.7638 43.0368 30.8958C43.0111 31.0278 42.934 31.1441 42.8224 31.2192C42.7386 31.2755 42.6399 31.3055 42.539 31.3053C42.3743 31.3101 42.2176 31.2346 42.1188 31.1028C41.674 30.4058 41.4273 29.6009 41.4051 28.7743C41.1493 28.8013 40.8915 28.8013 40.6357 28.7743C40.6099 29.5939 40.3633 30.3914 39.922 31.0825C39.8277 31.222 39.6702 31.3055 39.5018 31.3053C39.4009 31.3055 39.3022 31.2755 39.2184 31.2192C39.1068 31.1441 39.0297 31.0278 39.0041 30.8958C38.9784 30.7638 39.0063 30.627 39.0817 30.5156C39.448 29.9211 39.6376 29.2346 39.6284 28.5364C38.6903 28.2086 37.9204 27.5224 37.4872 26.6281C36.7988 26.5167 36.1306 26.4357 35.4624 26.375C34.3286 27.519 33.7616 28.5617 33.9034 29.2552C33.9945 29.6956 34.4045 30.055 35.1233 30.3233C35.4068 30.4316 35.7246 30.5435 36.0683 30.6644L36.0685 30.6645L36.0686 30.6645L36.0686 30.6645L36.0689 30.6646L36.0689 30.6646L36.2926 30.7434L36.3067 30.7484L36.3067 30.7484C39.5603 31.9021 44.0122 33.4807 44.1487 36.1394C44.2448 37.8857 42.463 39.5815 38.7071 41.3784C36.8553 42.2188 35.1212 43.2977 33.549 44.5877C33.2703 44.836 32.9099 44.9729 32.5367 44.9724H20.6918C20.3117 44.9722 19.9638 44.7591 19.7908 44.4206C19.6193 44.0868 19.6466 43.6855 19.8617 43.3779C22.6153 39.4701 27.2217 38.073 30.5777 37.0606C31.6466 36.7925 32.6848 36.4142 33.6756 35.9318C33.7637 35.8903 33.8402 35.8277 33.8983 35.7496C33.8106 35.4913 32.6389 34.881 31.8064 34.4475L31.7116 34.3981L31.6351 34.3581C29.6093 33.3004 27.3533 32.1225 27.3533 30.2929C27.3533 28.9464 28.5023 27.6 30.7701 26.2839C29.6254 26.332 28.4845 26.4469 27.3533 26.6281C27.0593 27.2323 26.6082 27.7463 26.0473 28.1163C26.2143 28.7914 26.3127 29.4816 26.3409 30.1765C26.3409 33.0364 24.878 34.6512 23.1266 35.1574C23.1544 35.8444 23.3602 36.5125 23.7239 37.0961C23.7993 37.2074 23.8272 37.3442 23.8015 37.4762C23.7759 37.6082 23.6988 37.7246 23.5872 37.7997C23.5034 37.856 23.4047 37.8859 23.3038 37.8857C23.1382 37.8894 22.9813 37.8119 22.8836 37.6782C22.4401 36.9794 22.179 36.1806 22.1243 35.3548H21.7852H21.4461C21.3889 36.1754 21.1279 36.9687 20.6868 37.663C20.5925 37.8025 20.435 37.886 20.2666 37.8857C20.1657 37.8859 20.067 37.856 19.9832 37.7997C19.8716 37.7246 19.7945 37.6082 19.7688 37.4762C19.7432 37.3442 19.7711 37.2074 19.8465 37.0961C20.2102 36.5125 20.416 35.8444 20.4438 35.1574C18.6924 34.6309 17.2295 33.0364 17.2295 30.1765C17.2295 28.0353 19.0872 22.5431 20.297 20.0881C20.4251 19.8227 20.6228 19.5971 20.869 19.4351C21.3101 18.0717 21.8376 16.7377 22.4483 15.4413C22.7052 14.9259 23.2315 14.6001 23.8074 14.6001C24.3833 14.6001 24.9097 14.9259 25.1665 15.4413C26.2295 17.5723 27.8595 22.2951 27.8595 24.2186C27.862 24.666 27.8162 25.1123 27.7228 25.5499C28.1176 25.4942 28.5226 25.4436 28.9377 25.4031C28.8925 25.1799 28.8704 24.9526 28.8719 24.7248C28.8719 22.7679 30.4583 21.1815 32.4152 21.1815C34.3721 21.1815 35.9585 22.7679 35.9585 24.7248C35.9594 24.9525 35.9374 25.1798 35.8927 25.4031C36.2977 25.4436 36.7026 25.4942 37.1126 25.5499C37.0186 25.1124 36.9711 24.6661 36.9709 24.2186C36.9709 22.29 38.6008 17.5673 39.6638 15.4413C39.9217 14.9286 40.4465 14.6052 41.0204 14.6052C41.5943 14.6052 42.1191 14.9286 42.377 15.4413C43.44 17.5673 45.0699 22.29 45.0699 24.2186C45.1004 25.239 44.8216 26.2448 44.2701 27.1039ZM18.2419 30.1765C18.2419 32.7074 19.6339 34.3424 21.7852 34.3424C23.9365 34.3424 25.3285 32.7074 25.3285 30.1765C25.3285 28.2023 23.5113 22.8519 22.3673 20.5589C22.2586 20.3365 22.0327 20.1954 21.7852 20.1954C21.5377 20.1954 21.3118 20.3365 21.2031 20.5589C20.0591 22.8519 18.2419 28.2023 18.2419 30.1765ZM22.0282 19.1567C22.5734 19.2382 23.0412 19.5881 23.2734 20.0881C24.3071 22.3306 25.1471 24.6574 25.7841 27.0431C26.5271 26.2976 26.9142 25.269 26.8471 24.2186C26.8471 22.5229 25.2577 17.8963 24.2605 15.8969C24.1748 15.725 23.9994 15.6165 23.8074 15.6165C23.6155 15.6165 23.44 15.725 23.3544 15.8969C22.8508 16.9574 22.408 18.0458 22.0282 19.1567ZM32.4152 22.1939C31.0174 22.1939 29.8842 23.327 29.8842 24.7248C29.8848 24.9266 29.9121 25.1274 29.9652 25.3221C30.7599 25.2664 31.5749 25.236 32.4152 25.236H32.9416C33.5997 25.2462 34.2425 25.2765 34.8651 25.317C34.9175 25.1239 34.9447 24.9249 34.9461 24.7248C34.9461 23.327 33.813 22.1939 32.4152 22.1939ZM34.7791 31.2749C33.7161 30.875 33.0884 30.2625 32.9214 29.4627C32.6885 28.3896 33.3567 27.2557 34.1666 26.2737C33.792 26.2434 33.4174 26.2434 33.0327 26.2434C30.0665 27.6303 28.3657 29.0578 28.3657 30.2929C28.3657 31.528 30.4765 32.6214 32.2026 33.5021C33.7718 34.312 34.9056 34.8992 34.9309 35.7496C34.9105 36.207 34.6345 36.6141 34.2172 36.8025C33.1581 37.3314 32.0447 37.7438 30.8966 38.0325C27.6519 39.0044 23.243 40.3357 20.6868 43.96H32.5367C32.6604 43.9584 32.7792 43.9116 32.8708 43.8284C34.5189 42.4751 36.3383 41.345 38.2819 40.4673C42.3871 38.5033 43.197 37.0606 43.1515 36.195C43.0503 34.2069 38.616 32.6383 35.9681 31.7017L35.9636 31.7001L34.7791 31.2749ZM40.5699 15.8969C39.4613 18.114 37.9833 22.6342 37.9833 24.2186C37.9833 26.4053 39.1475 27.7619 41.0204 27.7619C41.2604 27.7634 41.4998 27.7379 41.7341 27.686C42.2043 27.5903 42.6409 27.372 42.9996 27.0533L43.0452 27.0077C43.7527 26.2573 44.119 25.2481 44.0575 24.2186C44.0575 22.6342 42.5795 18.114 41.4709 15.8969C41.3843 15.7278 41.2103 15.6215 41.0204 15.6215C40.8305 15.6215 40.6565 15.7278 40.5699 15.8969ZM40.008 24.2185C40.008 25.7371 40.742 25.7371 41.0204 25.7371C41.3 25.7371 41.5266 25.9637 41.5266 26.2433C41.5266 26.5229 41.3 26.7495 41.0204 26.7495C39.7347 26.7495 38.9956 25.8282 38.9956 24.2185C38.9956 23.939 39.2223 23.7123 39.5018 23.7123C39.7814 23.7123 40.008 23.939 40.008 24.2185ZM21.7852 32.3176C20.7728 32.3176 20.2666 31.5988 20.2666 30.1764C20.2666 29.8969 20.04 29.6702 19.7604 29.6702C19.4809 29.6702 19.2542 29.8969 19.2542 30.1764C19.2542 32.1506 20.2008 33.33 21.7852 33.33C22.0648 33.33 22.2914 33.1033 22.2914 32.8238C22.2914 32.5442 22.0648 32.3176 21.7852 32.3176ZM31.909 42.4414C31.909 42.721 31.6823 42.9476 31.4028 42.9476C31.1232 42.9476 30.8966 42.721 30.8966 42.4414C30.8966 42.1619 31.1232 41.9352 31.4028 41.9352C31.6823 41.9352 31.909 42.1619 31.909 42.4414ZM31.4028 39.9105C31.6823 39.9105 31.909 39.6839 31.909 39.4043C31.909 39.1248 31.6823 38.8982 31.4028 38.8982C31.1232 38.8982 30.8966 39.1248 30.8966 39.4043C30.8966 39.6839 31.1232 39.9105 31.4028 39.9105ZM41.5266 35.3549C41.5266 35.6344 41.2999 35.8611 41.0204 35.8611C40.7408 35.8611 40.5142 35.6344 40.5142 35.3549C40.5142 35.0753 40.7408 34.8487 41.0204 34.8487C41.2999 34.8487 41.5266 35.0753 41.5266 35.3549ZM38.4895 34.8485C38.769 34.8485 38.9957 34.6218 38.9957 34.3423C38.9957 34.0627 38.769 33.8361 38.4895 33.8361C38.2099 33.8361 37.9833 34.0627 37.9833 34.3423C37.9833 34.6218 38.2099 34.8485 38.4895 34.8485ZM30.3904 30.2928C30.3904 30.5724 30.1638 30.799 29.8842 30.799C29.6046 30.799 29.378 30.5724 29.378 30.2928C29.378 30.0133 29.6046 29.7866 29.8842 29.7866C30.1638 29.7866 30.3904 30.0133 30.3904 30.2928ZM38.9956 36.3671C39.2752 36.3671 39.5018 36.1404 39.5018 35.8609C39.5018 35.5813 39.2752 35.3547 38.9956 35.3547C38.7161 35.3547 38.4895 35.5813 38.4895 35.8609C38.4895 36.1404 38.7161 36.3671 38.9956 36.3671ZM32.9214 18.6505V19.6629C32.9214 19.9424 32.6947 20.1691 32.4152 20.1691C32.1356 20.1691 31.909 19.9424 31.909 19.6629V18.6505C31.909 18.3709 32.1356 18.1443 32.4152 18.1443C32.6947 18.1443 32.9214 18.3709 32.9214 18.6505ZM29.8843 20.8474C30.0655 20.8481 30.2332 20.7519 30.3241 20.5952C30.415 20.4384 30.4152 20.245 30.3246 20.0881L29.8184 19.2124C29.6787 18.9692 29.3682 18.8853 29.125 19.0251C28.8817 19.1649 28.7979 19.4754 28.9377 19.7186L29.4439 20.5943C29.5346 20.7515 29.7027 20.8481 29.8843 20.8474ZM35.3865 20.5942C35.2957 20.7515 35.1277 20.8481 34.9461 20.8473C34.7649 20.8481 34.5972 20.7519 34.5063 20.5951C34.4153 20.4384 34.4152 20.245 34.5058 20.0881L35.0119 19.2124C35.1024 19.055 35.2699 18.9579 35.4513 18.9575C35.6328 18.9572 35.8007 19.0536 35.8917 19.2106C35.9827 19.3676 35.9831 19.5612 35.8927 19.7185L35.3865 20.5942Z" fill="#B45754"/>
</svg>
