<svg width="50" height="50" viewBox="0 0 50 50" fill="none" xmlns="http://www.w3.org/2000/svg">
<path d="M24.5438 19.2096C23.9345 18.6002 22.9438 18.5971 22.3313 19.2064L17.1876 24.3533L15.1688 22.3314C14.5595 21.7221 13.5688 21.7221 12.9595 22.3314C12.3501 22.9408 12.3501 23.9314 12.9595 24.5408L16.0845 27.6658C16.3876 27.9721 16.7876 28.1252 17.1876 28.1252C17.5876 28.1252 17.9876 27.9721 18.2938 27.6689L24.5438 21.4189C25.1532 20.8096 25.1532 19.8189 24.5438 19.2096Z" fill="#B45754"/>
<path d="M24.5438 31.7096C23.9345 31.1002 22.9438 31.0971 22.3313 31.7064L17.1876 36.8533L15.1688 34.8346C14.5595 34.2252 13.5688 34.2252 12.9595 34.8346C12.3501 35.4439 12.3501 36.4346 12.9595 37.0439L16.0845 40.1689C16.3876 40.4721 16.7876 40.6252 17.1876 40.6252C17.5876 40.6252 17.9876 40.4721 18.2938 40.1689L24.5438 33.9189C25.1532 33.3096 25.1532 32.3189 24.5438 31.7096Z" fill="#B45754"/>
<path d="M35.9375 21.875H29.6875C28.825 21.875 28.125 22.575 28.125 23.4375C28.125 24.3 28.825 25 29.6875 25H35.9375C36.8 25 37.5 24.3 37.5 23.4375C37.5 22.575 36.8 21.875 35.9375 21.875Z" fill="#B45754"/>
<path d="M35.9375 34.375H29.6875C28.825 34.375 28.125 35.075 28.125 35.9375C28.125 36.8 28.825 37.5 29.6875 37.5H35.9375C36.8 37.5 37.5 36.8 37.5 35.9375C37.5 35.075 36.8 34.375 35.9375 34.375Z" fill="#B45754"/>
<path d="M40.625 6.25H34.375V4.6875C34.375 3.825 33.675 3.125 32.8125 3.125H29.4219C28.775 1.30625 27.0375 0 25 0C22.9625 0 21.225 1.30625 20.5781 3.125H17.1875C16.325 3.125 15.625 3.825 15.625 4.6875V6.25H9.375C7.65313 6.25 6.25 7.65312 6.25 9.375V46.875C6.25 48.5969 7.65313 50 9.375 50H40.625C42.3469 50 43.75 48.5969 43.75 46.875V9.375C43.75 7.65312 42.3469 6.25 40.625 6.25ZM18.75 6.25H21.875C22.7375 6.25 23.4375 5.55 23.4375 4.6875C23.4375 3.825 24.1375 3.125 25 3.125C25.8625 3.125 26.5625 3.825 26.5625 4.6875C26.5625 5.55 27.2625 6.25 28.125 6.25H31.25V9.375H18.75V6.25ZM40.625 46.875H9.375V9.375H15.625V10.9375C15.625 11.8 16.325 12.5 17.1875 12.5H32.8125C33.675 12.5 34.375 11.8 34.375 10.9375V9.375H40.625V46.875Z" fill="#B45754"/>
</svg>
