<svg width="57" height="57" viewBox="0 0 57 57" fill="none" xmlns="http://www.w3.org/2000/svg">
<path d="M40.8509 40.677V37.05C40.8509 36.5254 40.4256 36.1 39.9009 36.1H36.1009V34.2H38.0009C38.5256 34.2 38.9509 33.7746 38.9509 33.25V30.4H39.9009C40.4256 30.4 40.8509 29.9746 40.8509 29.45V27.7592C41.4549 27.2244 41.8009 26.4567 41.8009 25.65C41.8009 24.8433 41.4549 24.0756 40.8509 23.5408V20.8049C43.065 20.3554 44.6556 18.409 44.6556 16.15C44.6556 13.891 43.065 11.9446 40.8509 11.4951V8.55C40.8509 8.02537 40.4256 7.6 39.9009 7.6V2.85C39.9009 1.2761 38.6248 0 37.0509 0H19.9509C18.377 0 17.1009 1.2761 17.1009 2.85V7.6C16.5763 7.6 16.1509 8.02537 16.1509 8.55V11.4951C13.9374 11.9446 12.3463 13.891 12.3463 16.15C12.3463 18.409 13.9374 20.3554 16.1509 20.8049V23.596L15.4658 25.65H13.3009V23.75H11.4009V29.45H13.3009V27.55H14.8322L14.2992 29.1499C14.2027 29.4393 14.2514 29.758 14.43 30.0057C14.6086 30.2534 14.8957 30.4 15.2009 30.4H18.0509V33.25C18.0509 33.7746 18.4763 34.2 19.0009 34.2H20.9009V36.1H17.1009C16.5763 36.1 16.1509 36.5254 16.1509 37.05V40.677L10.5108 55.7155C10.4008 56.0073 10.4417 56.3348 10.6193 56.5913C10.797 56.8474 11.0892 57.0005 11.4009 57H17.1009C17.4971 57.0005 17.8519 56.7551 17.9911 56.3844L23.4592 41.8H24.7009V56.05C24.7009 56.5746 25.1263 57 25.6509 57H31.3509C31.8756 57 32.3009 56.5746 32.3009 56.05V41.8H33.5427L39.0108 56.3844C39.1504 56.7551 39.5048 57.0005 39.9009 57H45.6009C45.9126 57.0005 46.2049 56.8474 46.3825 56.5913C46.5602 56.3348 46.601 56.0073 46.4911 55.7155L40.8509 40.677ZM39.9009 25.65C39.9009 26.1746 39.4756 26.6 38.9509 26.6C38.4263 26.6 38.0009 26.1746 38.0009 25.65C38.0009 25.1254 38.4263 24.7 38.9509 24.7C39.4756 24.7 39.9009 25.1254 39.9009 25.65ZM36.1009 25.65C36.1009 27.2239 37.377 28.5 38.9509 28.5H35.1509V9.5H38.9509V22.8C37.377 22.8 36.1009 24.0761 36.1009 25.65ZM30.7697 28.5L32.0361 24.7H33.2509V28.5H30.7697ZM18.0509 9.5H21.8509V11.4H18.0509V9.5ZM33.2509 19H24.8721C25.9102 17.2419 25.9102 15.0581 24.8721 13.3H33.2509V19ZM34.2009 7.6C33.6763 7.6 33.2509 8.02537 33.2509 8.55V11.4H23.7509V8.55C23.7509 8.02537 23.3256 7.6 22.8009 7.6V5.7H34.2009V7.6ZM21.8509 13.3C22.8807 13.3 23.7509 14.6053 23.7509 16.15C23.7509 17.6947 22.8807 19 21.8509 19H20.8763C22.1756 17.3222 22.1756 14.9778 20.8763 13.3H21.8509ZM21.8509 20.9V22.8H18.0509V20.9H21.8509ZM23.7509 20.9H33.2509V22.8H23.7509V20.9ZM42.7509 16.15C42.7509 16.9038 42.4531 17.627 41.9225 18.1623C41.6182 18.4596 41.2526 18.6864 40.8509 18.827V13.4749C41.9855 13.8761 42.7458 14.9467 42.7509 16.15ZM19.0009 2.85C19.0009 2.32537 19.4263 1.9 19.9509 1.9H37.0509C37.5756 1.9 38.0009 2.32537 38.0009 2.85V7.6H36.1009V4.75C36.1009 4.22537 35.6756 3.8 35.1509 3.8H21.8509C21.3263 3.8 20.9009 4.22537 20.9009 4.75V7.6H19.0009V2.85ZM14.2509 16.15C14.2509 14.5761 15.527 13.3 17.1009 13.3C18.6748 13.3 19.9509 14.5761 19.9509 16.15C19.9509 17.7239 18.6748 19 17.1009 19C15.527 19 14.2509 17.7239 14.2509 16.15ZM16.5188 28.5L17.7861 24.7H30.0331L28.7658 28.5H16.5188ZM19.9509 30.4H37.0509V32.3H19.9509V30.4ZM22.8009 34.2H34.2009V36.1H22.8009V34.2ZM18.0509 38H38.9509V39.9H18.0509V38ZM16.4427 55.1H12.7717L17.7592 41.8H21.4302L16.4427 55.1ZM30.4009 55.1H26.6009V41.8H30.4009V55.1ZM40.5592 55.1L35.5717 41.8H39.2427L44.2302 55.1H40.5592Z" fill="#B65855"/>
</svg>
