<svg width="62" height="62" viewBox="0 0 62 62" fill="none" xmlns="http://www.w3.org/2000/svg">
<circle cx="31" cy="31" r="30.5" fill="white" stroke="#D1C0C0"/>
<path fill-rule="evenodd" clip-rule="evenodd" d="M45 23.3226V17H40.4839V22.4194H39.5806V18.9324L36.871 18.0291V17H31.4516V19.7097H29.6452V18.9789L27.3871 17.8499L25.129 18.9789V22.4194H24.2258V17H19.7097V18.8065H17V23.3226H24.1224L22.8994 29.1935H17V31.9032H18.8065V38.2258H17.9032V39.129H20.8292L19.7941 44.0968H18.8065V45H43.1935V44.0968H42.2059L41.1708 39.129H44.0968V38.2258H43.1935V31.9032H45V29.1935H39.1006L37.8776 23.3226H45ZM41.3871 17.9032H44.0968V22.4194H41.3871V17.9032ZM38.6774 19.5838V22.4194H36.871V18.9813L38.6774 19.5838ZM32.3548 17.9032H35.9677V22.4194H33.2581V19.7097H32.3548V17.9032ZM34.6974 23.3226L39.0252 44.0968H22.9744L27.3022 23.3226H34.6974ZM32.3548 20.6129V22.4194H29.6452V20.6129H32.3548ZM26.0323 19.5372L27.3871 18.8598L28.7419 19.5372V22.4194H26.0323V19.5372ZM23.3226 17.9032V22.4194H20.6129V17.9032H23.3226ZM17.9032 19.7097H19.7097V22.4194H17.9032V19.7097ZM22.3345 31.9032L21.5161 35.8323V31.9032H22.3345ZM17.9032 30.0968H22.684L23.1356 30.5484L22.684 31H17.9032V30.0968ZM19.7097 31.9032H20.6129V38.2258H19.7097V31.9032ZM21.7514 39.129H22.4194V38.2258H21.9397L23.3096 31.6521L24.4128 30.5484L23.6897 29.8253L25.0446 23.3226H26.3804L22.0526 44.0968H20.7163L21.7514 39.129ZM42.2903 38.2258H41.3871V31.9032H42.2903V38.2258ZM40.4839 35.8323L39.6655 31.9032H40.4839V35.8323ZM44.0968 30.0968V31H39.316L38.8644 30.5484L39.316 30.0968H44.0968ZM38.3103 29.8253L37.5872 30.5484L38.6909 31.6521L40.0603 38.2258H39.5806V39.129H40.2486L41.2837 44.0968H39.9478L35.62 23.3226H36.9559L38.3103 29.8253ZM17.9032 44.0969H17V45.0001H17.9032V44.0969ZM45 44.0969H44.0968V45.0001H45V44.0969ZM32.3549 37.7743V43.1936H29.6452V37.7743H32.3549ZM31.4516 38.6775H30.5484V42.2904H31.4516V38.6775ZM32.3549 31.4516H29.6452V36.8709H32.3549V31.4516ZM31.4516 35.9677H30.5484V32.3548H31.4516V35.9677ZM29.6452 25.1291H32.3549V30.5484H29.6452V25.1291ZM30.5484 29.6452H31.4516V26.0323H30.5484V29.6452Z" fill="#B45754"/>
</svg>
