<svg width="59" height="59" viewBox="0 0 59 59" fill="none" xmlns="http://www.w3.org/2000/svg">
<g clip-path="url(#clip0)">
<path d="M34.7805 20.6334C34.8008 20.6269 34.8662 20.6066 34.8856 20.5992C35.0893 20.5236 35.2783 20.4232 35.4101 20.3254C35.4452 20.3052 35.4793 20.2812 35.5088 20.2591L43.1954 14.2881H56.6953C57.9666 14.2881 59 13.2547 59 11.9834C59 10.7121 57.9666 9.67871 56.6953 9.67871H42.4062C42.3758 9.67871 42.3334 9.68148 42.2956 9.68516C42.2265 9.68885 42.1564 9.69715 42.0762 9.70821C42.0181 9.71651 41.9573 9.72573 41.8817 9.7414C41.8135 9.75799 41.7471 9.7792 41.6494 9.81238C41.5793 9.83543 41.5111 9.86124 41.453 9.88798C41.3867 9.91748 41.3203 9.95435 41.2567 9.99123C41.206 10.0207 41.1571 10.0502 41.0972 10.0917C41.0622 10.112 41.0207 10.1406 40.993 10.1618L33.3064 16.1328H32.2656V14.4033C32.2656 14.383 32.2555 14.3664 32.2536 14.3452C32.2555 14.3268 32.2656 14.3102 32.2656 14.2899C32.2656 13.7801 31.8535 13.3681 31.3438 13.3681H27.6572C27.1474 13.3681 26.7353 13.7801 26.7353 14.2899V16.1337H24.4288C23.1575 16.1337 22.1241 17.1671 22.1241 18.4384C22.1241 19.7096 23.1575 20.7431 24.4288 20.7431H24.8906V21.6668H24.8759C24.8556 21.6668 24.8381 21.6778 24.8178 21.6788C24.7514 21.6834 24.6887 21.699 24.6242 21.7175C24.5707 21.7341 24.52 21.7461 24.4712 21.7709C24.4186 21.7968 24.3753 21.8318 24.3283 21.8668C24.2767 21.9055 24.2296 21.9443 24.1872 21.9931C24.1734 22.0088 24.154 22.0162 24.1411 22.0337L21.3598 25.7193C21.3386 25.7479 21.3331 25.7829 21.3138 25.8143C21.2815 25.8705 21.2529 25.9249 21.2317 25.9876C21.2114 26.0475 21.2022 26.1065 21.1948 26.1683C21.1902 26.2052 21.1736 26.2374 21.1736 26.2752V29.0409H18.4237C17.9139 29.0409 17.5018 29.4529 17.5018 29.9627V31.8074H16.5753V30.8855C16.5753 30.3757 16.1632 29.9636 15.6534 29.9636H12.9053C12.9053 29.4539 12.4932 29.0418 11.9835 29.0418H10.1388C10.1388 28.532 9.7267 28.1199 9.21691 28.1199C8.70711 28.1199 8.29503 28.532 8.29503 29.0418H7.375C7.375 28.532 6.96292 28.1199 6.45312 28.1199C5.94333 28.1199 5.53125 28.532 5.53125 29.0418H4.61122C4.61122 28.532 4.19914 28.1199 3.68934 28.1199C3.17955 28.1199 2.76747 28.532 2.76747 29.0418H0.921875C0.412078 29.0418 0 29.4539 0 29.9636V46.5546C0 47.0644 0.412078 47.4765 0.921875 47.4765H2.76747C2.76747 47.9863 3.17955 48.3984 3.68934 48.3984C4.19914 48.3984 4.61122 47.9863 4.61122 47.4765V47.4756H5.53125V47.4765C5.53125 47.9863 5.94333 48.3984 6.45312 48.3984C6.96292 48.3984 7.375 47.9863 7.375 47.4765V47.4756H8.29503V47.4765C8.29503 47.9863 8.70711 48.3984 9.21691 48.3984C9.7267 48.3984 10.1388 47.9863 10.1388 47.4765V47.4756H11.9835C12.4932 47.4756 12.9044 47.0644 12.9053 46.5546H15.6544C16.1642 46.5546 16.5762 46.1426 16.5762 45.6328C16.5762 45.6309 16.5753 45.63 16.5753 45.6282V44.7109H17.5009V46.5556C17.5009 47.0654 17.913 47.4774 18.4227 47.4774H40.5478C41.0575 47.4774 41.4696 47.0654 41.4696 46.5556V44.7109H42.3952V45.6282C42.3952 45.63 42.3943 45.6309 42.3943 45.6328C42.3943 46.1426 42.8063 46.5546 43.3161 46.5546H46.0827V46.5556C46.0827 48.0803 47.3235 49.3212 48.8483 49.3212H56.2344C57.7592 49.3212 59 48.0803 59 46.5556V29.9618C59 28.437 57.7592 27.1962 56.2344 27.1962H48.8483C47.3235 27.1962 46.0827 28.437 46.0827 29.9618V29.9627H43.3171C42.8073 29.9627 42.3952 30.3748 42.3952 30.8846V31.8065H41.4696V29.9618C41.4696 29.452 41.0575 29.0399 40.5478 29.0399H37.7692V26.2743C37.7692 26.2374 37.7517 26.2061 37.7489 26.1701C37.7416 26.1084 37.7314 26.0484 37.7121 25.9885C37.6918 25.9268 37.6623 25.8714 37.63 25.8161C37.6125 25.7857 37.6079 25.7516 37.5858 25.7221L34.833 22.0364C34.8192 22.018 34.7999 22.0106 34.786 21.994C34.7436 21.9443 34.6948 21.9055 34.6441 21.8668C34.598 21.8318 34.5537 21.7977 34.5039 21.7719C34.4532 21.7461 34.4007 21.7322 34.3454 21.7156C34.2836 21.6972 34.2228 21.6824 34.1573 21.6778C34.1407 21.6769 34.1269 21.6686 34.1094 21.6677V20.7412C34.3168 20.7403 34.527 20.708 34.7805 20.6334ZM2.76747 45.6318H1.84375V30.8846H2.76747V45.6318ZM5.53125 45.6318H4.61122V30.8846H5.53125V45.6318ZM8.29503 45.6318H7.375V30.8846H8.29503V45.6318ZM11.0616 45.5387C11.0579 45.5701 11.0422 45.5977 11.0422 45.6318H10.1388V30.8846H11.0422C11.0422 30.9178 11.0579 30.9454 11.0616 30.9786V45.5387ZM14.7316 44.7109H12.9053V31.8065H14.7316V44.7109ZM17.5009 42.8671H16.5753V33.6502H17.5009V42.8671ZM47.9264 30.8938C47.9264 30.8901 47.9283 30.8883 47.9283 30.8846C47.9283 30.8809 47.9264 30.8791 47.9264 30.8754V29.9618C47.9264 29.4529 48.3394 29.0399 48.8483 29.0399H56.2344C56.7433 29.0399 57.1562 29.4529 57.1562 29.9618V32.7274H47.9264V30.8938ZM47.9264 34.5712H57.1562V41.9462H47.9264V34.5712ZM47.9264 45.642C47.9264 45.6383 47.9283 45.6364 47.9283 45.6328C47.9283 45.6291 47.9264 45.6272 47.9264 45.6235V43.7899H57.1562V46.5556C57.1562 47.0644 56.7433 47.4774 56.2344 47.4774H48.8483C48.3394 47.4774 47.9264 47.0644 47.9264 46.5556V45.642ZM44.2389 31.8065H46.0827V44.7109H44.2389V31.8065ZM41.4696 33.6502H42.3952V42.8671H41.4696V33.6502ZM28.579 15.2118H30.4219V16.1337H28.579V15.2118ZM39.6259 30.8837V45.6337H19.3446V30.8837H39.6259ZM35.9264 26.5804V29.0399H23.0174V26.5831L25.3359 23.5105H33.6337L35.9264 26.5804ZM26.7344 21.6668V20.7431H32.2656V21.6668H26.7344ZM34.0937 18.8993H24.4288C24.1753 18.8993 23.9678 18.6919 23.9678 18.4384C23.9678 18.1849 24.1753 17.9774 24.4288 17.9774H33.6226C33.8273 17.9774 34.0264 17.9092 34.1877 17.7838L42.0891 11.646C42.114 11.6294 42.1389 11.6128 42.1564 11.599L41.595 10.8679L42.2412 11.5584C42.2412 11.5584 42.3316 11.5344 42.3325 11.5344L42.4275 11.5252C42.4357 11.5243 42.4459 11.5234 42.456 11.5225H56.6953C56.9488 11.5225 57.1562 11.7299 57.1562 11.9834C57.1562 12.2369 56.9488 12.4443 56.6953 12.4443H42.8801C42.6754 12.4443 42.4763 12.5126 42.315 12.6379L34.432 18.7619C34.4081 18.7767 34.3841 18.7924 34.3629 18.808C34.3315 18.832 34.2928 18.8532 34.2301 18.8735C34.173 18.8901 34.1278 18.8984 34.0937 18.8993Z" fill="#B45754"/>
</g>
<defs>
<clipPath id="clip0">
<rect width="59" height="59" fill="white"/>
</clipPath>
</defs>
</svg>
