<svg width="30" height="30" viewBox="0 0 30 30" fill="none" xmlns="http://www.w3.org/2000/svg">
<circle cx="15" cy="15" r="15" fill="#8E24AA"/>
<g clip-path="url(#clip0)">
<path d="M23.34 16.8537C23.8994 12.1451 23.0712 9.17248 21.5775 7.82795L21.5783 7.82716C19.1673 5.53107 11.0252 5.19123 8.14078 7.93029C6.84547 9.27013 6.38922 11.2365 6.33922 13.6709C6.28922 16.1061 6.22984 20.6678 10.4806 21.9053H10.4845L10.4806 23.7951C10.4806 23.7951 10.4517 24.5608 10.9408 24.7147C11.5002 24.8959 11.7533 24.5404 13.4931 22.4623C16.4025 22.7147 18.6369 22.1365 18.8908 22.0522C19.4783 21.8553 22.8025 21.4154 23.34 16.8537ZM13.7798 21.1326C13.7798 21.1326 11.9384 23.4287 11.3658 24.0248C11.1783 24.2186 10.9728 24.2006 10.9759 23.8162C10.9759 23.5639 10.99 20.6787 10.99 20.6787C7.38609 19.6459 7.59859 15.7615 7.63765 13.7295C7.67672 11.6967 8.04859 10.0319 9.14547 8.91076C11.6759 6.5381 18.8142 7.06857 20.633 8.77795C22.8564 10.749 22.065 16.3178 22.0697 16.5076C21.6127 20.3154 18.9189 20.5569 18.4236 20.7217C18.2119 20.792 16.247 21.2975 13.7798 21.1326Z" fill="white"/>
<path d="M14.7988 9.35699C14.498 9.35699 14.498 9.82574 14.7988 9.82965C17.1324 9.84762 19.0543 11.4742 19.0754 14.4578C19.0754 14.7726 19.5363 14.7687 19.5324 14.4539H19.5316C19.5066 11.239 17.4082 9.37496 14.7988 9.35699Z" fill="white"/>
<path d="M17.8681 13.9628C17.8611 14.2737 18.3212 14.2885 18.3251 13.9737C18.3634 12.201 17.2704 10.7409 15.2165 10.587C14.9158 10.5651 14.8845 11.0378 15.1845 11.0596C16.9658 11.1948 17.904 12.4104 17.8681 13.9628Z" fill="white"/>
<path d="M17.3759 15.9796C16.9899 15.7561 16.597 15.8952 16.4345 16.1147L16.0946 16.5546C15.9219 16.778 15.5993 16.7483 15.5993 16.7483C13.2446 16.1257 12.6149 13.6616 12.6149 13.6616C12.6149 13.6616 12.586 13.328 12.8016 13.1491L13.2266 12.7976C13.4391 12.6288 13.5735 12.2226 13.3571 11.8233C12.779 10.7788 12.3907 10.4186 12.193 10.1421C11.9852 9.88193 11.6727 9.82334 11.3477 9.99912H11.3407C10.6649 10.3944 9.92508 11.1343 10.1618 11.896C10.5657 12.6991 11.3079 15.2593 13.6735 17.1936C14.7852 18.1085 16.5446 19.046 17.2915 19.2624L17.2985 19.2733C18.0345 19.5186 18.7501 18.7499 19.1321 18.0538V18.0483C19.3016 17.7116 19.2454 17.3929 18.9977 17.1843C18.5587 16.7561 17.8962 16.2835 17.3759 15.9796Z" fill="white"/>
<path d="M15.5384 12.3308C16.2892 12.3746 16.6533 12.7668 16.6923 13.5722C16.7064 13.8871 17.1634 13.8652 17.1494 13.5504C17.0994 12.4988 16.5509 11.9129 15.5634 11.8582C15.2626 11.8402 15.2345 12.3129 15.5384 12.3308Z" fill="white"/>
</g>
<defs>
<clipPath id="clip0">
<rect x="5.25" y="6" width="18.75" height="18.75" fill="white"/>
</clipPath>
</defs>
</svg>
