<svg width="30" height="30" viewBox="0 0 30 30" fill="none" xmlns="http://www.w3.org/2000/svg">
<circle cx="15" cy="15" r="15" fill="#436EAB"/>
<g clip-path="url(#clip0)">
<path d="M22.9341 17.6916C23.6639 18.4041 24.4341 19.0744 25.0887 19.8587C25.3778 20.2073 25.6515 20.5669 25.8609 20.9715C26.1577 21.5465 25.8889 22.1792 25.3733 22.2135L22.1683 22.2121C21.3417 22.2807 20.6822 21.9479 20.1278 21.3827C19.684 20.9307 19.2731 20.4497 18.8464 19.9824C18.6715 19.7915 18.4884 19.6118 18.2697 19.4697C17.8321 19.1858 17.4523 19.2727 17.2023 19.729C16.9477 20.1932 16.8899 20.7071 16.8649 21.2243C16.8305 21.979 16.6024 22.1775 15.8443 22.212C14.2242 22.2884 12.6866 22.0433 11.2582 21.226C9.99886 20.5055 9.02235 19.4883 8.17234 18.3368C6.51749 16.0945 5.25012 13.6306 4.11111 11.0977C3.85471 10.527 4.04223 10.2207 4.67189 10.2099C5.71745 10.1895 6.76288 10.191 7.80969 10.2084C8.23465 10.2146 8.51596 10.4583 8.68006 10.8598C9.24575 12.2507 9.93793 13.5741 10.8068 14.8007C11.0381 15.1273 11.2741 15.4539 11.61 15.6837C11.9817 15.9382 12.2647 15.8539 12.4395 15.4398C12.5505 15.1773 12.5991 14.8945 12.6241 14.6134C12.7069 13.646 12.7178 12.6803 12.5726 11.7163C12.4834 11.1147 12.1445 10.7253 11.5442 10.6114C11.2379 10.5534 11.2835 10.4394 11.4318 10.2646C11.6894 9.963 11.9317 9.77527 12.4147 9.77527H16.0369C16.6071 9.8878 16.7337 10.144 16.8118 10.7177L16.8149 14.7412C16.8087 14.9633 16.9259 15.6225 17.3259 15.7695C17.6461 15.8742 17.8572 15.618 18.0494 15.415C18.9166 14.4945 19.5356 13.4067 20.0885 12.2803C20.3339 11.785 20.5449 11.2707 20.7494 10.7568C20.9009 10.3754 21.1387 10.1878 21.5682 10.1961L25.0544 10.1992C25.1578 10.1992 25.2623 10.2007 25.3625 10.2178C25.9499 10.3179 26.1109 10.5706 25.9294 11.1443C25.6436 12.0442 25.0873 12.7942 24.5435 13.5477C23.9621 14.3521 23.3403 15.129 22.7638 15.9382C22.2341 16.6773 22.2761 17.0497 22.9341 17.6916Z" fill="white"/>
</g>
<defs>
<clipPath id="clip0">
<rect x="4" y="5" width="22" height="22" fill="white"/>
</clipPath>
</defs>
</svg>
