<svg width="30" height="30" viewBox="0 0 30 30" fill="none" xmlns="http://www.w3.org/2000/svg">
<g clip-path="url(#clip0)">
<path d="M29.3767 22.497L18.7791 3.01602C17.0764 0.149558 12.9258 0.14575 11.2209 3.01602L0.623841 22.497C-1.11675 25.4261 0.990579 29.1352 4.40208 29.1352H25.5976C29.0062 29.1352 31.1173 25.4291 29.3767 22.497ZM15 25.6196C14.031 25.6196 13.2422 24.8308 13.2422 23.8617C13.2422 22.8927 14.031 22.1039 15 22.1039C15.969 22.1039 16.7578 22.8927 16.7578 23.8617C16.7578 24.8308 15.969 25.6196 15 25.6196ZM16.7578 18.5883C16.7578 19.5573 15.969 20.3461 15 20.3461C14.031 20.3461 13.2422 19.5573 13.2422 18.5883V9.79925C13.2422 8.83022 14.031 8.04143 15 8.04143C15.969 8.04143 16.7578 8.83022 16.7578 9.79925V18.5883Z" fill="#B65855"/>
</g>
<defs>
<clipPath id="clip0">
<rect width="30" height="30" fill="white"/>
</clipPath>
</defs>
</svg>
