<svg width="51" height="55" viewBox="0 0 51 55" fill="none" xmlns="http://www.w3.org/2000/svg">
<path fill-rule="evenodd" clip-rule="evenodd" d="M30.7581 34.8805L42.7212 37.5595C44.7778 37.9879 46.6261 39.1062 47.9599 40.7291C49.2937 42.352 50.0327 44.382 50.0546 46.4825V53.1485C50.0546 53.3914 49.9581 53.6244 49.7863 53.7962C49.6145 53.968 49.3815 54.0645 49.1386 54.0645C48.8956 54.0645 48.6627 53.968 48.4909 53.7962C48.3191 53.6244 48.2226 53.3914 48.2226 53.1485V46.4825C48.1989 44.7981 47.6005 43.1724 46.5265 41.8746C45.4525 40.5768 43.9674 39.6848 42.3171 39.3465L33.8228 37.4428L29.9572 41.4785C29.7934 41.6504 29.5691 41.7519 29.3318 41.7617C29.0945 41.7715 28.8627 41.6887 28.6853 41.5308L28.233 41.1272L26.5104 43.055L29.07 52.9182C29.1002 53.0347 29.1072 53.1559 29.0905 53.2751C29.0738 53.3943 29.0339 53.509 28.9729 53.6127C28.9119 53.7165 28.831 53.8072 28.735 53.8796C28.6389 53.9521 28.5296 54.005 28.4131 54.0352C28.2966 54.0654 28.1753 54.0724 28.0561 54.0557C27.937 54.0391 27.8222 53.9991 27.7185 53.9381C27.6148 53.8771 27.5241 53.7962 27.4516 53.7002C27.3791 53.6041 27.3263 53.4948 27.2961 53.3783L25.5001 46.4574L23.7027 53.3814C23.6417 53.6167 23.4897 53.818 23.2802 53.9412C23.1765 54.0022 23.0618 54.0422 22.9426 54.0589C22.8234 54.0755 22.7021 54.0685 22.5856 54.0383C22.4692 54.0081 22.3598 53.9553 22.2637 53.8828C22.1677 53.8103 22.0868 53.7196 22.0258 53.6159C21.9648 53.5122 21.9249 53.3974 21.9082 53.2783C21.8915 53.1591 21.8985 53.0378 21.9287 52.9213L24.4883 43.0577L22.7657 41.1298L22.3135 41.5334C22.136 41.6913 21.9042 41.7741 21.6669 41.7643C21.4296 41.7545 21.2054 41.653 21.0415 41.4811L17.1775 37.4428L8.68158 39.347C7.03263 39.6866 5.54907 40.579 4.47641 41.8766C3.40375 43.1742 2.80631 44.7991 2.78296 46.4825V53.1485C2.78296 53.3914 2.68645 53.6244 2.51466 53.7962C2.34288 53.968 2.10989 54.0645 1.86694 54.0645C1.624 54.0645 1.39101 53.968 1.21922 53.7962C1.04744 53.6244 0.950928 53.3914 0.950928 53.1485V46.4825C0.972652 44.3828 1.71104 42.3535 3.04377 40.7308C4.3765 39.1081 6.22359 37.9894 8.27905 37.56L20.2422 34.8805L20.5306 31.708C18.3798 30.7833 16.5279 29.2797 15.1811 27.3648C13.8344 25.4498 13.0456 23.1986 12.9026 20.8618C12.861 20.8512 12.819 20.8413 12.777 20.8314L12.7769 20.8314C12.7274 20.8197 12.678 20.8081 12.6293 20.7953L12.4666 20.7529C12.2699 20.7024 12.0956 20.5879 11.9711 20.4275C11.8466 20.267 11.779 20.0698 11.7788 19.8668V15.0155C11.7788 14.8032 11.8527 14.5975 11.9877 14.4337C12.1227 14.2698 12.3105 14.158 12.5189 14.1173C12.6221 11.2743 13.6517 8.54289 15.4509 6.33916C17.2501 4.13544 19.7202 2.58017 22.4851 1.91024C22.602 1.62026 22.8034 1.37218 23.0632 1.19834C23.3231 1.02449 23.6293 0.932938 23.9419 0.935603H27.0579C27.3712 0.933056 27.6779 1.02506 27.9381 1.19959C28.1983 1.37413 28.3997 1.62307 28.5162 1.91391C31.2858 2.57335 33.7617 4.12523 35.5625 6.33043C37.3632 8.53564 38.3889 11.2718 38.4814 14.1173C38.6895 14.1583 38.8769 14.2703 39.0116 14.4341C39.1463 14.5979 39.22 14.8035 39.22 15.0155V19.8668C39.2199 20.0694 39.1527 20.2663 39.0288 20.4267C38.9049 20.587 38.7314 20.7018 38.5353 20.7529L38.3725 20.7953C38.3241 20.8079 38.2752 20.8195 38.2264 20.831L38.2263 20.831C38.1839 20.8411 38.1414 20.8511 38.0993 20.8618C37.9565 23.199 37.1675 25.4507 35.8204 27.366C34.4734 29.2813 32.621 30.785 30.4697 31.7095L30.7581 34.8805ZM13.7924 19.1654C13.9749 19.1645 14.1537 19.2169 14.307 19.3161C21.6911 20.9822 29.3541 20.9788 36.7368 19.3062C36.8772 19.2154 37.0406 19.1666 37.2079 19.1654C37.2406 19.1668 37.2733 19.17 37.3058 19.1748L37.3874 19.1559V18.4079H13.6129V19.1559L13.6977 19.1753C13.729 19.1702 13.7607 19.1669 13.7924 19.1654ZM13.6129 16.5759H37.3874V15.9321H13.6129V16.5759ZM18.3777 11.5122L15.593 9.43361C14.8396 10.8768 14.413 12.4682 14.3436 14.0948H36.6556C36.5902 12.4648 36.1674 10.8691 35.4172 9.42052L32.6205 11.5075C32.4255 11.64 32.1869 11.6922 31.9544 11.6532C31.7219 11.6143 31.5133 11.4872 31.3721 11.2984C31.2309 11.1096 31.168 10.8736 31.1963 10.6396C31.2247 10.4055 31.3422 10.1915 31.5244 10.0418L34.4426 7.86435C32.9824 5.90294 30.9167 4.47723 28.5649 3.8077L28.2508 8.79606C28.2363 9.02839 28.1338 9.24647 27.9643 9.40594C27.7947 9.56541 27.5707 9.65429 27.3379 9.6545H27.2798C27.0381 9.63902 26.8123 9.52835 26.652 9.34675C26.4917 9.16515 26.4099 8.92741 26.4245 8.68562L26.7957 2.77078H24.2031L24.5742 8.68562C24.5849 8.80735 24.5711 8.93 24.5337 9.04634C24.4963 9.16267 24.436 9.27035 24.3563 9.36302C24.2767 9.45569 24.1793 9.53148 24.0698 9.58593C23.9604 9.64038 23.8413 9.67239 23.7193 9.68008C23.5973 9.68776 23.4751 9.67096 23.3597 9.63067C23.2443 9.59038 23.1382 9.52741 23.0475 9.44547C22.9568 9.36353 22.8835 9.26428 22.8318 9.15356C22.78 9.04284 22.751 8.92289 22.7463 8.80077L22.4323 3.8166C20.0861 4.49266 18.0265 5.92 16.5698 7.87953L19.4738 10.0466C19.5762 10.1161 19.6634 10.2057 19.7302 10.3099C19.797 10.4142 19.842 10.5308 19.8625 10.6529C19.8829 10.775 19.8784 10.9 19.8492 11.0203C19.82 11.1406 19.7667 11.2537 19.6926 11.3528C19.6184 11.452 19.525 11.535 19.4178 11.5971C19.3107 11.6591 19.1921 11.6987 19.0692 11.7136C18.9463 11.7285 18.8217 11.7183 18.7029 11.6837C18.584 11.6491 18.4734 11.5907 18.3777 11.5122ZM14.784 21.2974C15.0725 23.9384 16.3259 26.3799 18.3037 28.1538C20.282 29.9279 22.8457 30.9092 25.503 30.9092C28.1603 30.9092 30.7241 29.9279 32.7023 28.1538C34.6806 26.3796 35.9341 23.9374 36.2222 21.2958C32.6959 22.0325 29.1027 22.4019 25.5001 22.3981C21.8997 22.4021 18.3085 22.0332 14.784 21.2974ZM28.6853 32.3209C27.6453 32.5921 26.5749 32.7291 25.5001 32.7287C24.4253 32.7285 23.3549 32.5907 22.315 32.3188L22.0674 35.0376L25.5001 36.4686L28.9323 35.0396L28.6853 32.3209ZM21.0106 36.5838L19.2671 36.9743L21.755 39.5747L23.8037 37.7463L21.0106 36.5838ZM24.134 39.9055L25.5001 41.4361L26.8663 39.9055L25.5001 38.6885L24.134 39.9055ZM27.1961 37.7469L29.2448 39.5752L31.7327 36.9748L29.9891 36.5843L27.1961 37.7469ZM38.7234 46.0452C38.8952 45.8734 39.1282 45.7769 39.3711 45.7769C39.614 45.7769 39.847 45.8734 40.0188 46.0452C40.1906 46.2169 40.2871 46.4499 40.2871 46.6929V53.1484C40.2871 53.3914 40.1906 53.6244 40.0188 53.7961C39.847 53.9679 39.614 54.0644 39.3711 54.0644C39.1282 54.0644 38.8952 53.9679 38.7234 53.7961C38.5516 53.6244 38.4551 53.3914 38.4551 53.1484V46.6929C38.4551 46.4499 38.5516 46.2169 38.7234 46.0452ZM11.6289 45.7769C11.386 45.7769 11.153 45.8734 10.9812 46.0452C10.8094 46.2169 10.7129 46.4499 10.7129 46.6929V53.1484C10.7129 53.3914 10.8094 53.6244 10.9812 53.7961C11.153 53.9679 11.386 54.0644 11.6289 54.0644C11.8718 54.0644 12.1048 53.9679 12.2766 53.7961C12.4484 53.6244 12.5449 53.3914 12.5449 53.1484V46.6929C12.5449 46.4499 12.4484 46.2169 12.2766 46.0452C12.1048 45.8734 11.8718 45.7769 11.6289 45.7769ZM31.127 47.9141H36.2959C36.5388 47.9141 36.7718 48.0106 36.9436 48.1824C37.1154 48.3541 37.2119 48.5871 37.2119 48.8301C37.2119 49.073 37.1154 49.306 36.9436 49.4778C36.7718 49.6496 36.5388 49.7461 36.2959 49.7461H31.127C30.884 49.7461 30.651 49.6496 30.4792 49.4778C30.3074 49.306 30.2109 49.073 30.2109 48.8301C30.2109 48.5871 30.3074 48.3541 30.4792 48.1824C30.651 48.0106 30.884 47.9141 31.127 47.9141Z" fill="#B65855"/>
</svg>
