<svg width="30" height="30" viewBox="0 0 30 30" fill="none" xmlns="http://www.w3.org/2000/svg">
<circle cx="15" cy="15" r="15" fill="#7AD06D"/>
<g clip-path="url(#clip0)">
<path d="M14.9203 5.26103C9.96841 5.49681 6.0607 9.62074 6.07573 14.5782C6.0803 16.0881 6.44482 17.5133 7.08786 18.7725L6.10057 23.5649C6.04716 23.8242 6.28097 24.0512 6.5385 23.9902L11.2345 22.8776C12.441 23.4786 13.7961 23.8257 15.2303 23.8476C20.2915 23.9249 24.5117 19.9061 24.6695 14.8467C24.8386 9.42339 20.3626 5.00184 14.9203 5.26103ZM20.5236 19.6981C19.1483 21.0734 17.3198 21.8308 15.3749 21.8308C14.2361 21.8308 13.1458 21.5753 12.1342 21.0714L11.4803 20.7456L8.60114 21.4277L9.20718 18.4858L8.88499 17.8549C8.35984 16.8264 8.09357 15.7143 8.09357 14.5494C8.09357 12.6045 8.85095 10.776 10.2262 9.4007C11.5892 8.03773 13.4475 7.26802 15.3751 7.26802C17.3199 7.26806 19.1484 8.02544 20.5236 9.40066C21.8989 10.7759 22.6563 12.6044 22.6563 14.5493C22.6563 16.4769 21.8866 18.3352 20.5236 19.6981Z" fill="white"/>
<path d="M19.888 16.5662L18.0867 16.049C17.8499 15.981 17.5949 16.0482 17.4223 16.224L16.9818 16.6728C16.7961 16.862 16.5143 16.9228 16.2684 16.8234C15.4164 16.4785 13.6239 14.8848 13.1662 14.0877C13.0341 13.8577 13.056 13.5703 13.2181 13.3604L13.6027 12.8629C13.7534 12.668 13.7851 12.4062 13.6855 12.1809L12.9277 10.4669C12.7462 10.0564 12.2216 9.93685 11.8788 10.2267C11.3761 10.6519 10.7796 11.298 10.7071 12.0138C10.5793 13.2759 11.1205 14.8668 13.1672 16.777C15.5317 18.9839 17.4252 19.2755 18.6581 18.9769C19.3573 18.8075 19.9162 18.1285 20.2688 17.5725C20.5093 17.1935 20.3194 16.6901 19.888 16.5662Z" fill="white"/>
</g>
<defs>
<clipPath id="clip0">
<rect x="6" y="5.25" width="18.75" height="18.75" fill="white"/>
</clipPath>
</defs>
</svg>
