<svg width="30" height="30" viewBox="0 0 30 30" fill="none" xmlns="http://www.w3.org/2000/svg">
<circle cx="15" cy="15" r="15" fill="#F61C0D"/>
<path d="M20.8463 7.92383H9.15374C6.85969 7.92383 5 9.78352 5 12.0776V17.9226C5 20.2166 6.85969 22.0763 9.15374 22.0763H20.8463C23.1403 22.0763 25 20.2166 25 17.9226V12.0776C25 9.78352 23.1403 7.92383 20.8463 7.92383ZM18.0371 15.2845L12.5681 17.8928C12.4224 17.9623 12.2541 17.8561 12.2541 17.6947V12.3149C12.2541 12.1512 12.4268 12.045 12.5729 12.119L18.0418 14.8904C18.2044 14.9728 18.2016 15.206 18.0371 15.2845Z" fill="white"/>
</svg>
