<svg width="25" height="31" viewBox="0 0 25 31" fill="none" xmlns="http://www.w3.org/2000/svg">
<path opacity="0.15" fill-rule="evenodd" clip-rule="evenodd" d="M2.51133 11C0.951007 11 -0.00836427 12.7072 0.802978 14.04L10.136 29.3713C10.8885 30.6075 12.6644 30.6599 13.4885 29.4701L24.107 14.1388C25.0257 12.8123 24.0764 11 22.4629 11L18.5207 11C17.4162 11 16.5207 10.1046 16.5207 9L16.5207 2C16.5207 0.89543 15.6253 -3.95948e-07 14.5207 -4.45416e-07L9.73656 -6.59677e-07C8.63199 -7.09145e-07 7.73656 0.89543 7.73656 2L7.73656 9C7.73656 10.1046 6.84113 11 5.73656 11L2.51133 11Z" fill="#B45754"/>
</svg>
