<svg width="50" height="50" viewBox="0 0 50 50" fill="none" xmlns="http://www.w3.org/2000/svg">
<path fill-rule="evenodd" clip-rule="evenodd" d="M47.6562 21.875C47.8634 21.875 48.0622 21.7927 48.2087 21.6462C48.3552 21.4997 48.4375 21.301 48.4375 21.0938V14.8438C48.4375 14.6365 48.3552 14.4378 48.2087 14.2913C48.0622 14.1448 47.8634 14.0625 47.6562 14.0625H44.7117C44.4685 13.2678 44.1504 12.4979 43.7617 11.7633L45.8422 9.68281C45.9148 9.61026 45.9725 9.52409 46.0118 9.42925C46.0511 9.33441 46.0713 9.23275 46.0713 9.13008C46.0713 9.02741 46.0511 8.92575 46.0118 8.83091C45.9725 8.73606 45.9148 8.6499 45.8422 8.57734L41.4227 4.15781C41.2732 4.01679 41.0754 3.93823 40.8699 3.93823C40.6644 3.93823 40.4667 4.01679 40.3172 4.15781L38.2367 6.23906C37.5021 5.8499 36.7323 5.53129 35.9375 5.2875V2.34375C35.9375 2.13655 35.8552 1.93784 35.7087 1.79132C35.5622 1.64481 35.3634 1.5625 35.1562 1.5625H28.9062C28.699 1.5625 28.5003 1.64481 28.3538 1.79132C28.2073 1.93784 28.125 2.13655 28.125 2.34375V5.2875C27.3302 5.53129 26.5604 5.8499 25.8258 6.23906L23.7453 4.15781C23.6728 4.08517 23.5866 4.02755 23.4918 3.98823C23.3969 3.94892 23.2952 3.92868 23.1926 3.92868C23.0899 3.92868 22.9882 3.94892 22.8934 3.98823C22.7986 4.02755 22.7124 4.08517 22.6398 4.15781L21.875 4.92188V2.34375C21.875 2.13655 21.7927 1.93784 21.6462 1.79132C21.4997 1.64481 21.301 1.5625 21.0938 1.5625H2.34375C2.13655 1.5625 1.93784 1.64481 1.79132 1.79132C1.64481 1.93784 1.5625 2.13655 1.5625 2.34375V8.59375C1.5625 8.80095 1.64481 8.99966 1.79132 9.14618C1.93784 9.29269 2.13655 9.375 2.34375 9.375H18.0391C18.0746 9.49038 18.1366 9.59581 18.2203 9.68281L20.3008 11.7633C19.9121 12.4979 19.594 13.2678 19.3508 14.0625H16.4062C16.199 14.0625 16.0003 14.1448 15.8538 14.2913C15.7073 14.4378 15.625 14.6365 15.625 14.8438V17.1875H12.5V16.4062C12.5 14.9558 11.9238 13.5648 10.8982 12.5393C9.87265 11.5137 8.48165 10.9375 7.03125 10.9375C5.58085 10.9375 4.18985 11.5137 3.16426 12.5393C2.13867 13.5648 1.5625 14.9558 1.5625 16.4062V42.9688C1.56415 44.4186 2.14086 45.8087 3.16609 46.8339C4.19132 47.8591 5.58136 48.4358 7.03125 48.4375H30.4688C31.0904 48.4375 31.6865 48.1906 32.126 47.751C32.5656 47.3115 32.8125 46.7154 32.8125 46.0938V34.375H35.1562C35.3634 34.375 35.5622 34.2927 35.7087 34.1462C35.8552 33.9997 35.9375 33.8009 35.9375 33.5938V30.65C36.7323 30.4062 37.5021 30.0876 38.2367 29.6984L38.2812 29.743V35.1109C37.0686 35.7136 36.0559 36.6536 35.3646 37.818C34.6733 38.9824 34.333 40.3216 34.3845 41.6747C34.436 43.0279 34.8771 44.3373 35.6548 45.4458C36.4326 46.5543 37.5139 47.4146 38.7687 47.9234C38.8871 47.9715 39.0154 47.9897 39.1424 47.9767C39.2694 47.9636 39.3913 47.9196 39.4974 47.8485C39.6035 47.7775 39.6905 47.6815 39.7509 47.5689C39.8113 47.4564 39.8432 47.3308 39.8438 47.2031V42.1875H42.9688V47.2031C42.9688 47.4103 43.0511 47.609 43.1976 47.7556C43.3441 47.9021 43.5428 47.9844 43.75 47.9844C43.8508 47.9845 43.9506 47.9649 44.0438 47.9266C45.2995 47.4182 46.3817 46.5579 47.1601 45.4491C47.9385 44.3402 48.38 43.0302 48.4315 41.6764C48.483 40.3226 48.1423 38.9828 47.4504 37.818C46.7584 36.6533 45.7448 35.7132 44.5312 35.1109V28.6719L45.8422 27.3617C45.9148 27.2892 45.9725 27.203 46.0118 27.1082C46.0511 27.0133 46.0713 26.9117 46.0713 26.809C46.0713 26.7063 46.0511 26.6047 46.0118 26.5098C45.9725 26.415 45.9148 26.3288 45.8422 26.2563L43.7617 24.1758C44.1505 23.4406 44.4686 22.6703 44.7117 21.875H47.6562ZM3.125 3.125H4.6875V5.46875H6.25V3.125H7.8125V5.46875H9.375V3.125H10.9375V5.46875H12.5V3.125H14.0625V5.46875H15.625V3.125H17.1875V5.46875H18.75V3.125H20.3125V6.48438L18.9844 7.8125H3.125V3.125ZM3.125 16.4062C3.125 15.3702 3.53655 14.3767 4.26911 13.6441C5.00168 12.9116 5.99525 12.5 7.03125 12.5C8.06725 12.5 9.06082 12.9116 9.79339 13.6441C10.5259 14.3767 10.9375 15.3702 10.9375 16.4062V39.1406C10.4288 38.6201 9.8212 38.2064 9.15039 37.924C8.47957 37.6417 7.75908 37.4962 7.03125 37.4962C6.30342 37.4962 5.58293 37.6417 4.91211 37.924C4.2413 38.2064 3.63369 38.6201 3.125 39.1406V16.4062ZM31.25 46.0938C31.25 46.3009 31.1677 46.4997 31.0212 46.6462C30.8747 46.7927 30.676 46.875 30.4688 46.875H7.03125C6.25867 46.875 5.50343 46.6459 4.86105 46.2167C4.21867 45.7875 3.718 45.1774 3.42235 44.4636C3.12669 43.7498 3.04933 42.9644 3.20006 42.2067C3.35078 41.4489 3.72282 40.7529 4.26911 40.2066C4.81541 39.6603 5.51144 39.2883 6.26918 39.1376C7.02692 38.9868 7.81233 39.0642 8.52611 39.3598C9.23988 39.6555 9.84995 40.1562 10.2792 40.7986C10.7084 41.4409 10.9375 42.1962 10.9375 42.9688C10.9375 43.1759 11.0198 43.3747 11.1663 43.5212C11.3128 43.6677 11.5115 43.75 11.7188 43.75C11.926 43.75 12.1247 43.6677 12.2712 43.5212C12.4177 43.3747 12.5 43.1759 12.5 42.9688V18.75H15.625V21.0938C15.625 21.301 15.7073 21.4997 15.8538 21.6462C16.0003 21.7927 16.199 21.875 16.4062 21.875H19.3508C19.594 22.6697 19.9121 23.4396 20.3008 24.1742L18.2203 26.2547C18.1477 26.3272 18.09 26.4134 18.0507 26.5083C18.0114 26.6031 17.9912 26.7048 17.9912 26.8074C17.9912 26.9101 18.0114 27.0118 18.0507 27.1066C18.09 27.2014 18.1477 27.2876 18.2203 27.3602L22.6398 31.7797C22.7893 31.9207 22.9871 31.9993 23.1926 31.9993C23.3981 31.9993 23.5958 31.9207 23.7453 31.7797L25.8258 29.6984C26.5604 30.0876 27.3302 30.4062 28.125 30.65V33.5938C28.125 33.8009 28.2073 33.9997 28.3538 34.1462C28.5003 34.2927 28.699 34.375 28.9062 34.375H31.25V46.0938ZM43.4578 36.3422C44.3706 36.712 45.1667 37.3214 45.7618 38.1061C46.357 38.8908 46.7292 39.8216 46.8392 40.8004C46.9491 41.7791 46.7927 42.7693 46.3865 43.6665C45.9803 44.5637 45.3393 45.3346 44.5312 45.8977V41.4062C44.5312 41.1991 44.4489 41.0003 44.3024 40.8538C44.1559 40.7073 43.9572 40.625 43.75 40.625H39.0625C38.8553 40.625 38.6566 40.7073 38.5101 40.8538C38.3636 41.0003 38.2812 41.1991 38.2812 41.4062V45.8977C37.4732 45.3346 36.8322 44.5637 36.426 43.6665C36.0198 42.7693 35.8634 41.7791 35.9733 40.8004C36.0833 39.8216 36.4555 38.8908 37.0507 38.1061C37.6458 37.3214 38.4419 36.712 39.3547 36.3422C39.4992 36.2839 39.623 36.1837 39.7102 36.0545C39.7973 35.9253 39.8438 35.773 39.8438 35.6172V31.3055L40.3172 31.7797C40.3897 31.8523 40.4759 31.91 40.5708 31.9493C40.6656 31.9886 40.7673 32.0088 40.8699 32.0088C40.9726 32.0088 41.0743 31.9886 41.1691 31.9493C41.2639 31.91 41.3501 31.8523 41.4227 31.7797L42.9688 30.2344V35.6172C42.9687 35.773 43.0152 35.9253 43.1023 36.0545C43.1895 36.1837 43.3133 36.2839 43.4578 36.3422ZM43.3648 20.8984C43.0914 21.9565 42.6707 22.9708 42.1148 23.9117C42.0268 24.0609 41.9909 24.2351 42.0127 24.4069C42.0345 24.5787 42.1127 24.7384 42.2352 24.8609L44.182 26.807L40.8664 30.1227L38.9203 28.1758C38.7978 28.0532 38.6379 27.9748 38.4659 27.953C38.2939 27.9312 38.1196 27.9673 37.9703 28.0555C37.03 28.6118 36.0158 29.0326 34.9578 29.3055C34.79 29.3488 34.6414 29.4467 34.5353 29.5837C34.4292 29.7208 34.3717 29.8892 34.3719 30.0625V32.8125H29.6875V30.0594C29.6876 29.8861 29.6301 29.7176 29.5241 29.5806C29.418 29.4436 29.2694 29.3457 29.1016 29.3023C28.0436 29.0295 27.0294 28.6087 26.0891 28.0523C25.9398 27.9642 25.7655 27.9281 25.5935 27.9499C25.4215 27.9717 25.2616 28.05 25.1391 28.1727L23.193 30.1195L19.8773 26.8039L21.8242 24.8578C21.9467 24.7353 22.0249 24.5756 22.0467 24.4038C22.0685 24.232 22.0325 24.0578 21.9445 23.9086C21.3887 22.9677 20.9679 21.9534 20.6945 20.8953C20.6512 20.7275 20.5533 20.5789 20.4163 20.4728C20.2792 20.3667 20.1108 20.3092 19.9375 20.3094H17.1875V15.625H19.9406C20.1139 15.6251 20.2824 15.5676 20.4194 15.4616C20.5564 15.3555 20.6543 15.2069 20.6977 15.0391C20.9711 13.981 21.3918 12.9667 21.9477 12.0258C22.0357 11.8766 22.0716 11.7024 22.0498 11.5306C22.028 11.3588 21.9498 11.1991 21.8273 11.0766L19.8805 9.13047L23.1961 5.81484L25.1422 7.76172C25.2647 7.88434 25.4246 7.96271 25.5966 7.98449C25.7686 8.00627 25.9429 7.97022 26.0922 7.88203C27.0325 7.32572 28.0467 6.9049 29.1047 6.63203C29.2714 6.58825 29.4189 6.49058 29.5243 6.35422C29.6298 6.21787 29.6871 6.05048 29.6875 5.87813V3.125H34.375V5.87813C34.3749 6.05143 34.4324 6.21985 34.5384 6.3569C34.6445 6.49394 34.7931 6.59183 34.9609 6.63516C36.0189 6.90803 37.0331 7.32885 37.9734 7.88516C38.1227 7.97335 38.297 8.00939 38.469 7.98761C38.641 7.96583 38.8009 7.88746 38.9234 7.76484L40.8695 5.81797L44.1852 9.13359L42.2383 11.0797C42.1158 11.2022 42.0376 11.3619 42.0158 11.5337C41.994 11.7055 42.03 11.8797 42.118 12.0289C42.6738 12.9698 43.0946 13.9841 43.368 15.0422C43.4113 15.21 43.5092 15.3586 43.6462 15.4647C43.7833 15.5708 43.9517 15.6283 44.125 15.6281H46.875V20.3156H44.1219C43.949 20.3153 43.7809 20.3724 43.6439 20.4778C43.5069 20.5833 43.4088 20.7312 43.3648 20.8984ZM32.0313 9.375C30.3316 9.375 28.6701 9.87901 27.2568 10.8233C25.8436 11.7676 24.7421 13.1098 24.0917 14.6801C23.4412 16.2504 23.271 17.9783 23.6026 19.6453C23.9342 21.3123 24.7527 22.8436 25.9546 24.0455C27.1564 25.2473 28.6877 26.0658 30.3547 26.3974C32.0217 26.729 33.7496 26.5588 35.3199 25.9083C36.8902 25.2579 38.2324 24.1564 39.1767 22.7432C40.121 21.3299 40.625 19.6684 40.625 17.9688C40.6223 15.6904 39.716 13.5061 38.105 11.895C36.4939 10.284 34.3096 9.37769 32.0313 9.375ZM32.0313 25C30.6406 25 29.2812 24.5876 28.1249 23.815C26.9686 23.0424 26.0674 21.9443 25.5352 20.6595C25.003 19.3747 24.8638 17.961 25.1351 16.597C25.4064 15.2331 26.0761 13.9802 27.0594 12.9969C28.0427 12.0136 29.2956 11.3439 30.6595 11.0726C32.0235 10.8013 33.4372 10.9405 34.722 11.4727C36.0068 12.0049 37.1049 12.9061 37.8775 14.0624C38.6501 15.2187 39.0625 16.5781 39.0625 17.9688C39.0604 19.8329 38.319 21.6201 37.0008 22.9383C35.6826 24.2565 33.8954 24.9979 32.0313 25ZM28.993 13.4216C29.8923 12.8207 30.9496 12.5 32.0313 12.5C33.4811 12.5017 34.8712 13.0784 35.8964 14.1036C36.9216 15.1288 37.4983 16.5189 37.5 17.9688C37.5 19.0504 37.1793 20.1077 36.5784 21.007C35.9774 21.9064 35.1233 22.6073 34.1241 23.0212C33.1248 23.4351 32.0252 23.5434 30.9644 23.3324C29.9035 23.1214 28.9291 22.6006 28.1643 21.8357C27.3994 21.0709 26.8786 20.0965 26.6676 19.0357C26.4566 17.9748 26.5649 16.8752 26.9788 15.876C27.3927 14.8767 28.0936 14.0226 28.993 13.4216ZM29.8611 21.2167C30.5034 21.6459 31.2587 21.875 32.0313 21.875C33.0669 21.8738 34.0597 21.4618 34.792 20.7295C35.5243 19.9972 35.9363 19.0044 35.9375 17.9688C35.9375 17.1962 35.7084 16.4409 35.2792 15.7986C34.85 15.1562 34.2399 14.6555 33.5261 14.3598C32.8123 14.0642 32.0269 13.9868 31.2692 14.1376C30.5114 14.2883 29.8154 14.6603 29.2691 15.2066C28.7228 15.7529 28.3508 16.4489 28.2001 17.2067C28.0493 17.9644 28.1267 18.7498 28.4223 19.4636C28.718 20.1774 29.2187 20.7875 29.8611 21.2167ZM18.75 35.9375V37.5H15.625V35.9375H18.75ZM28.125 35.9375H20.3125V37.5H28.125V35.9375ZM18.75 39.0625V40.625H15.625V39.0625H18.75ZM28.125 39.0625H20.3125V40.625H28.125V39.0625ZM28.125 42.1875H20.3125V43.75H28.125V42.1875ZM18.75 42.1875V43.75H15.625V42.1875H18.75Z" fill="#B65855"/>
</svg>
