<svg width="63" height="61" viewBox="0 0 63 61" fill="none" xmlns="http://www.w3.org/2000/svg">
<path fill-rule="evenodd" clip-rule="evenodd" d="M22 48.8182C27.4224 48.8182 31.8182 44.4224 31.8182 39C31.8182 33.5776 27.4224 29.1818 22 29.1818C16.5776 29.1818 12.1818 33.5776 12.1818 39C12.1818 44.4224 16.5776 48.8182 22 48.8182ZM22 51C28.6274 51 34 45.6274 34 39C34 32.3726 28.6274 27 22 27C15.3726 27 10 32.3726 10 39C10 45.6274 15.3726 51 22 51Z" fill="#B65855"/>
<path fill-rule="evenodd" clip-rule="evenodd" d="M22 56.584C31.9411 56.584 40 48.5251 40 38.584C40 28.6429 31.9411 20.584 22 20.584C12.0589 20.584 4 28.6429 4 38.584C4 48.5251 12.0589 56.584 22 56.584ZM22 60.584C34.1503 60.584 44 50.7342 44 38.584C44 26.4337 34.1503 16.584 22 16.584C9.84974 16.584 0 26.4337 0 38.584C0 50.7342 9.84974 60.584 22 60.584Z" fill="#B65855"/>
<path fill-rule="evenodd" clip-rule="evenodd" d="M38.5001 24.0841L7.70718 54.877L10.7071 57.8769L10 58.584L7.00008 55.5841L6.00015 56.584L5.29304 55.8769L6.29297 54.877L3 51.584L3.70711 50.8769L7.00008 54.1698L37.793 23.377L34 19.584L34.7071 18.8769L38.5001 22.6698L45.5859 15.584H63.0001V16.584H46.0002L39.2072 23.377L41.7071 25.8769L41 26.584L38.5001 24.0841Z" fill="black"/>
<path d="M52.1444 8.764C52.5877 8.97867 53.0917 9.086 53.6564 9.086C54.1511 9.086 54.5944 9.00433 54.9864 8.841C55.3831 8.67767 55.7191 8.44433 55.9944 8.141C56.2697 7.833 56.4821 7.45967 56.6314 7.021C56.7807 6.57767 56.8554 6.07833 56.8554 5.523C56.8554 5.04233 56.7994 4.606 56.6874 4.214C56.5801 3.81733 56.4214 3.46967 56.2114 3.171L52.1444 8.764ZM55.3714 2.387C55.1334 2.247 54.8697 2.13967 54.5804 2.065C54.2957 1.99033 53.9877 1.953 53.6564 1.953C53.1617 1.953 52.7161 2.03467 52.3194 2.198C51.9274 2.36133 51.5914 2.597 51.3114 2.905C51.0361 3.213 50.8237 3.58867 50.6744 4.032C50.5251 4.47067 50.4504 4.96767 50.4504 5.523C50.4504 6.05967 50.5181 6.54033 50.6534 6.965C50.7887 7.38967 50.9871 7.756 51.2484 8.064L55.3714 2.387ZM57.2684 1.722C57.7491 2.18867 58.1201 2.74633 58.3814 3.395C58.6474 4.039 58.7804 4.74833 58.7804 5.523C58.7804 6.265 58.6567 6.95333 58.4094 7.588C58.1667 8.218 57.8214 8.764 57.3734 9.226C56.9254 9.688 56.3864 10.0497 55.7564 10.311C55.1264 10.5677 54.4264 10.696 53.6564 10.696C53.1851 10.696 52.7417 10.647 52.3264 10.549C51.9111 10.451 51.5214 10.3087 51.1574 10.122L50.6254 10.857C50.4901 11.0437 50.3291 11.1743 50.1424 11.249C49.9557 11.3237 49.7714 11.361 49.5894 11.361H48.8474L50.2124 9.485C49.6757 9.01833 49.2604 8.44667 48.9664 7.77C48.6724 7.09333 48.5254 6.34433 48.5254 5.523C48.5254 4.781 48.6491 4.095 48.8964 3.465C49.1437 2.83033 49.4914 2.282 49.9394 1.82C50.3921 1.358 50.9334 0.998667 51.5634 0.742001C52.1934 0.480667 52.8911 0.35 53.6564 0.35C54.1744 0.35 54.6574 0.408334 55.1054 0.525001C55.5581 0.641667 55.9757 0.812 56.3584 1.036L56.7714 0.462C56.8321 0.378 56.8881 0.308 56.9394 0.252C56.9907 0.191333 57.0444 0.142333 57.1004 0.105C57.1564 0.0676666 57.2194 0.0419999 57.2894 0.0280004C57.3641 0.00933337 57.4527 0 57.5554 0H58.5144L57.2684 1.722Z" fill="black"/>
</svg>
