<svg width="48" height="48" viewBox="0 0 48 48" fill="none" xmlns="http://www.w3.org/2000/svg">
<path d="M10.002 27.8472C11.2745 27.8472 12.3101 26.8116 12.3101 25.5391C12.3101 24.2665 11.2745 23.231 10.002 23.231C8.72943 23.231 7.69385 24.2665 7.69385 25.5391C7.69385 26.8116 8.72943 27.8472 10.002 27.8472ZM10.002 24.7697C10.4259 24.7697 10.7714 25.1152 10.7714 25.5391C10.7714 25.963 10.4259 26.3085 10.002 26.3085C9.57806 26.3085 9.23261 25.963 9.23261 25.5391C9.23261 25.1152 9.57806 24.7697 10.002 24.7697Z" fill="#B45754"/>
<path d="M45.4641 35.6262C44.8309 33.729 43.2129 32.3456 41.2402 32.0171L36.2177 31.18C38.3128 29.9436 39.8746 27.9071 40.4862 25.4912C42.3797 25.2519 43.8546 23.6493 43.8546 21.692V16.8619C44.3124 16.5949 44.624 16.104 44.624 15.537V13.9982C44.624 13.4197 44.3001 12.9211 43.8269 12.6587C43.5515 7.12306 39.3268 2.5368 33.8527 1.80281V1.68817C33.8527 0.839547 33.1625 0.149414 32.3139 0.149414H30.7751C29.9265 0.149414 29.2364 0.839547 29.2364 1.68817V1.80281C23.7623 2.5368 19.5376 7.12306 19.2622 12.6587C18.789 12.9211 18.4651 13.4197 18.4651 13.9982V15.537C18.4651 16.104 18.7767 16.5949 19.2345 16.8619V21.692C19.2345 23.6493 20.7094 25.2519 22.6036 25.4904C23.2152 27.9071 24.7771 29.9428 26.8721 31.1792L21.8496 32.0163C20.1162 32.3048 18.6574 33.4089 17.8988 34.9607L14.6182 24.6503V23.6924H14.6105C14.5728 22.3429 13.5972 21.2265 12.3101 20.9773V16.3064H7.69379V20.9773C6.40662 21.2258 5.43181 22.3429 5.39334 23.6924H5.38565V24.6503L0.121562 41.1958C0.0407771 41.4481 0 41.7105 0 41.9759V42.2014C0 43.2516 0.634737 44.154 1.53876 44.5526V47.8509H3.07751V44.7172C3.9523 44.541 4.69244 43.9217 4.99711 43.0577L6.29198 39.3877H13.7119L15.0067 43.0577C15.3114 43.9209 16.0515 44.5403 16.9263 44.7172V47.8509H18.4651V44.5533C19.0529 44.2941 19.5245 43.8224 19.7838 43.2346H48L45.4641 35.6262ZM40.7448 23.8686C40.7594 23.657 40.7771 23.4462 40.7771 23.2308V19.5254C41.6703 19.844 42.3158 20.6903 42.3158 21.692C42.3158 22.7053 41.6549 23.5593 40.7448 23.8686ZM42.3158 18.6345C41.8665 18.2944 41.3487 18.0398 40.7771 17.9236V17.0757H42.3158V18.6345ZM30.7751 1.68817H32.3139V9.38196H30.7751L30.7744 1.68817H30.7751ZM29.2364 3.3508V9.38196C29.2364 10.2306 29.9265 10.9207 30.7751 10.9207H32.3139C33.1625 10.9207 33.8527 10.2306 33.8527 9.38196V3.3508C34.7682 3.49313 35.6392 3.76165 36.4539 4.1348L34.7628 12.4595H28.327L26.6351 4.1348C27.4499 3.76165 28.3208 3.49237 29.2364 3.3508ZM25.2256 4.92726L26.7559 12.4595H20.8102C21.0517 9.33964 22.7436 6.59681 25.2256 4.92726ZM20.7732 21.692C20.7732 20.6903 21.4187 19.844 22.312 19.5254V23.2308C22.312 23.4462 22.3297 23.657 22.3443 23.8686C21.4341 23.5593 20.7732 22.7053 20.7732 21.692ZM20.7732 18.6337V17.0757H22.312V17.9228C21.7403 18.0398 21.2225 18.2937 20.7732 18.6337ZM20.0038 15.537V13.9982H39.2383V12.4595H36.3331L37.8634 4.92726C40.3455 6.59681 42.0373 9.33964 42.2781 12.4595H40.7771V13.9982H43.0852V15.537H20.0038ZM23.8507 23.2308V17.0757H39.2383V23.2308C39.2383 27.4731 35.7869 30.9246 31.5445 30.9246C27.3022 30.9246 23.8507 27.4731 23.8507 23.2308ZM9.23254 17.8451H10.7713V20.9226H9.23254V17.8451ZM8.23466 22.4614H11.7692C12.4916 22.4614 13.0794 23.0492 13.0794 23.7717C13.0794 23.8678 13.0687 23.9632 13.0479 24.0563L11.9208 29.1296C11.7869 29.7336 11.2606 30.1552 10.642 30.1552H9.36257C8.74322 30.1552 8.21773 29.7336 8.08309 29.1296L6.95595 24.0556C6.93518 23.9632 6.92441 23.8678 6.92441 23.7717C6.92441 23.0492 7.51221 22.4614 8.23466 22.4614ZM12.0823 34.7715H7.92075L9.01712 31.6647C9.13176 31.6786 9.24485 31.6939 9.3618 31.6939H10.6413C10.7582 31.6939 10.8721 31.6786 10.986 31.6647L12.0823 34.7715ZM3.54607 42.5453C3.39988 42.9576 3.00904 43.2346 2.57203 43.2346C2.00269 43.2346 1.53876 42.7707 1.53876 42.2014V41.9759C1.53876 41.8697 1.55491 41.7643 1.58723 41.6628L6.12349 27.4062L6.58127 29.4627C6.72822 30.1259 7.09367 30.6876 7.59223 31.0815L3.54607 42.5453ZM6.83516 37.849L7.37834 36.3102H12.6255L13.1687 37.849H6.83516ZM18.4651 42.2014C18.4651 42.7707 18.0012 43.2346 17.4318 43.2346C16.9948 43.2346 16.6032 42.9576 16.4578 42.5453L12.4116 31.0815C12.9102 30.6876 13.2749 30.1259 13.4226 29.4627L13.8796 27.4054L18.4158 41.6628C18.4489 41.7636 18.4651 41.8697 18.4651 41.9759V42.2014ZM22.4812 41.6959L23.0667 38.7691L21.558 38.4668L20.9117 41.6959H19.9823C19.9638 41.5266 19.9346 41.3589 19.8831 41.1958L18.6659 37.3712L19.0852 36.1133C19.5368 34.7576 20.6932 33.7697 22.1027 33.5351L25.5957 32.9526L24.4862 35.7263L26.0473 37.2873L25.2779 39.5955L27.3783 41.6959H22.4812ZM29.5549 41.6959L27.039 39.18L27.8084 36.8719L26.292 35.3554L27.3722 32.6564L27.8015 32.5849C27.8507 32.7918 27.9177 32.9919 27.9992 33.185L29.8234 41.6959H29.5549ZM31.6915 41.6959H31.3968L30.0058 35.2054C30.4797 35.4139 30.996 35.5408 31.5445 35.5408C32.0931 35.5408 32.6093 35.4139 33.0825 35.2054L31.6915 41.6959ZM31.5445 34.0021C30.6251 34.0021 29.8357 33.4574 29.4649 32.6772L29.361 32.191C30.0619 32.3625 30.7913 32.4633 31.5445 32.4633C32.2977 32.4633 33.0271 32.3625 33.7288 32.1917L33.6242 32.678C33.2533 33.4574 32.4639 34.0021 31.5445 34.0021ZM33.2656 41.6959L35.0898 33.1842C35.1714 32.9919 35.2383 32.7918 35.2876 32.5841L35.7169 32.6564L36.7971 35.3554L35.2806 36.8719L36.05 39.18L33.5341 41.6959H33.2656ZM41.5318 38.4676L40.0231 38.7699L40.6078 41.6959H35.7099L37.8103 39.5955L37.041 37.2873L38.602 35.7263L37.4926 32.9526L40.9856 33.5351C42.3958 33.7697 43.5515 34.7576 44.0038 36.1133L45.865 41.6959H42.1773L41.5318 38.4676Z" fill="#B45754"/>
</svg>
