<svg width="55" height="35" viewBox="0 0 55 35" fill="none" xmlns="http://www.w3.org/2000/svg">
<path fill-rule="evenodd" clip-rule="evenodd" d="M0 0.833333C0 0.373096 0.373096 0 0.833333 0H8.97583C9.35278 0 9.6828 0.253045 9.78061 0.617085L18.5715 33.3333H40.4357L42.3221 22.3016H29.3321C28.8718 22.3016 28.4987 21.9285 28.4987 21.4683V13.1349C28.4987 12.6747 28.8718 12.3016 29.3321 12.3016H44.032L46.017 0.692878C46.0854 0.292646 46.4324 0 46.8384 0H54.1667C54.6269 0 55 0.373096 55 0.833333C55 1.29357 54.6269 1.66667 54.1667 1.66667H47.5414L41.9601 34.3071C41.8917 34.7074 41.5447 35 41.1387 35H17.9326C17.5556 35 17.2256 34.747 17.1278 34.3829L8.33685 1.66667H0.833333C0.373096 1.66667 0 1.29357 0 0.833333ZM43.747 13.9683H30.1654V20.6349H42.6071L43.747 13.9683Z" fill="#B65855"/>
</svg>
