<svg width="56" height="56" viewBox="0 0 56 56" fill="none" xmlns="http://www.w3.org/2000/svg">
<g clip-path="url(#clip0)">
<path d="M43.8654 5.60228C37.71 5.59817 32.5281 10.2059 31.8131 16.3193C31.0976 22.4328 35.0755 28.1124 41.0654 29.5292V32.6681H40.1321C39.6167 32.6681 39.1988 33.086 39.1988 33.6014V41.0679C39.1988 41.5833 39.6167 42.0012 40.1321 42.0012H41.0654V43.8678H35.4656V42.0012H33.599V43.8678H29.8658V0.935747C29.8658 0.420333 29.4479 0.00244141 28.9325 0.00244141H15.8662C15.3508 0.00244141 14.9329 0.420333 14.9329 0.935747V22.4018H12.133C11.6176 22.4018 11.1997 22.8197 11.1997 23.3351V24.2684H5.59983V22.4018C5.59983 20.8555 4.34616 19.6019 2.79992 19.6019C1.25367 19.6019 0 20.8555 0 22.4018V31.7348C0 33.2811 1.25367 34.5348 2.79992 34.5348C4.34616 34.5348 5.59983 33.2811 5.59983 31.7348V29.8682H11.1997V30.8015C11.1997 31.3169 11.6176 31.7348 12.133 31.7348H14.9329V55.0675C14.9329 55.5829 15.3508 56.0008 15.8662 56.0008H28.9325C29.4479 56.0008 29.8658 55.5829 29.8658 55.0675V49.4676H33.599V51.3343H35.4656V49.4676H41.9988C44.5749 49.4645 46.6621 47.3768 46.6653 44.8011V42.0012H47.5986C48.114 42.0012 48.5319 41.5833 48.5319 41.0679V38.268H50.3985V40.1346H52.2651V34.5348H50.3985V36.4014H48.5319V33.6014C48.5319 33.086 48.114 32.6681 47.5986 32.6681H46.6653V29.5292C52.6552 28.1124 56.6332 22.4328 55.9177 16.3193C55.2027 10.2059 50.0207 5.59817 43.8654 5.60228ZM53.64 14.6049L51.942 15.453C51.5141 13.9473 50.6733 12.5916 49.5158 11.538L50.8351 10.2182C52.1307 11.4158 53.0963 12.9265 53.64 14.6049ZM54.1317 17.7353C54.1299 18.8718 53.9376 20.0002 53.5635 21.0738L51.8832 20.2335C52.1362 19.425 52.2651 18.5824 52.2651 17.7353C52.2651 17.6177 52.2519 17.5037 52.2473 17.388L54.0479 16.4875C54.1012 16.9013 54.1295 17.3178 54.1317 17.7353ZM39.7421 10.4256L38.3849 9.06845C39.7553 8.19575 41.3143 7.66348 42.9321 7.51628V9.39064C41.8096 9.51551 40.7241 9.86777 39.7421 10.4256ZM44.7987 9.39064V7.51628C46.4165 7.66348 47.9755 8.19575 49.3458 9.06845L47.9887 10.4256C47.0066 9.86777 45.9211 9.51551 44.7987 9.39064ZM36.8957 10.2182L38.2149 11.538C37.3377 12.3355 36.6382 13.3089 36.1619 14.3949L34.427 13.7013C34.9981 12.381 35.8388 11.1948 36.8957 10.2182ZM33.599 17.7353C33.6008 16.9774 33.687 16.2218 33.8556 15.4831L35.6151 16.1867C35.3544 17.5338 35.436 18.9247 35.8521 20.2317L34.1718 21.0715C33.7963 19.9992 33.6026 18.8713 33.599 17.7353ZM27.9992 16.8019H16.7995V14.9353H27.9992V16.8019ZM16.7995 18.6686H27.9992V35.4681H16.7995V18.6686ZM16.7995 37.3347H27.9992V39.2013H16.7995V37.3347ZM16.7995 1.86905H18.6661V10.2688H20.5327V1.86905H27.9992V13.0687H16.7995V1.86905ZM3.73322 31.7348C3.73322 32.2503 3.31533 32.6681 2.79992 32.6681C2.2845 32.6681 1.86661 32.2503 1.86661 31.7348V22.4018C1.86661 21.8864 2.2845 21.4685 2.79992 21.4685C3.31533 21.4685 3.73322 21.8864 3.73322 22.4018V31.7348ZM5.59983 28.0016V26.135H11.1997V28.0016H5.59983ZM13.0663 29.8682V24.2684H14.9329V29.8682H13.0663ZM27.9992 54.1342H16.7995V41.0679H27.9992V54.1342ZM29.8658 45.7344H33.599V47.601H29.8658V45.7344ZM44.7987 44.8011C44.7987 46.3474 43.545 47.601 41.9988 47.601H35.4656V45.7344H41.0654C42.0963 45.7344 42.9321 44.8986 42.9321 43.8678V42.0012H44.7987V44.8011ZM46.6653 40.1346H41.0654V34.5348H46.6653V40.1346ZM44.7987 32.6681H42.9321V29.8204C43.241 29.845 43.55 29.8682 43.8654 29.8682C44.1807 29.8682 44.4897 29.845 44.7987 29.8204V32.6681ZM43.8654 28.0016C40.1636 27.9971 36.7507 26.0001 34.9338 22.775L36.5994 21.9424C37.0524 22.7272 37.6303 23.4326 38.3093 24.0323L39.5452 22.6324C37.5068 20.8355 36.7936 17.9645 37.7538 15.4225C38.7144 12.8805 41.1479 11.1985 43.8654 11.1985C46.5828 11.1985 49.0163 12.8805 49.977 15.4225C50.9372 17.9645 50.224 20.8355 48.1856 22.6324L49.4215 24.0323C50.1005 23.4326 50.6783 22.7272 51.1313 21.9424L52.7969 22.775C50.98 26.0001 47.5671 27.9971 43.8654 28.0016Z" fill="#B45754"/>
<path d="M48.2583 14.6611L46.9385 13.3413L45.0646 15.2143C44.691 15.0316 44.2808 14.9359 43.8652 14.9345C42.319 14.9345 41.0653 16.1882 41.0653 17.7344C41.0671 18.15 41.1628 18.5602 41.3451 18.9338L39.4712 20.8077L40.7909 22.1275L42.6658 20.2541C43.0394 20.4368 43.4496 20.5325 43.8652 20.5343C45.4114 20.5343 46.6651 19.2806 46.6651 17.7344C46.6633 17.3183 46.5676 16.9086 46.3853 16.535L48.2583 14.6611ZM43.8652 18.6677C43.3498 18.6677 42.9319 18.2498 42.9319 17.7344C42.9319 17.219 43.3498 16.8011 43.8652 16.8011C44.3806 16.8011 44.7985 17.219 44.7985 17.7344C44.7985 18.2498 44.3806 18.6677 43.8652 18.6677Z" fill="#B45754"/>
<path d="M42.9321 23.3345H44.7988V25.2011H42.9321V23.3345Z" fill="#B45754"/>
<path d="M18.666 20.5347H20.5327V22.4013H18.666V20.5347Z" fill="#B45754"/>
<path d="M20.5326 46.667H18.666V52.2668H22.3992V50.4002H20.5326V46.667Z" fill="#B45754"/>
</g>
<defs>
<clipPath id="clip0">
<rect width="56" height="56" fill="white"/>
</clipPath>
</defs>
</svg>
