<svg width="52" height="52" viewBox="0 0 52 52" fill="none" xmlns="http://www.w3.org/2000/svg">
<g clip-path="url(#clip0)">
<path d="M21.9375 47.9375C22.4984 47.9375 22.9531 47.4828 22.9531 46.9219C22.9531 46.361 22.4984 45.9062 21.9375 45.9062C21.3766 45.9062 20.9219 46.361 20.9219 46.9219C20.9219 47.4828 21.3766 47.9375 21.9375 47.9375Z" fill="#B45754"/>
<path d="M30.0625 47.9375C30.6234 47.9375 31.0781 47.4828 31.0781 46.9219C31.0781 46.361 30.6234 45.9062 30.0625 45.9062C29.5016 45.9062 29.0469 46.361 29.0469 46.9219C29.0469 47.4828 29.5016 47.9375 30.0625 47.9375Z" fill="#B45754"/>
<path d="M26 47.9375C26.5609 47.9375 27.0156 47.4828 27.0156 46.9219C27.0156 46.361 26.5609 45.9062 26 45.9062C25.4391 45.9062 24.9844 46.361 24.9844 46.9219C24.9844 47.4828 25.4391 47.9375 26 47.9375Z" fill="#B45754"/>
<path d="M51.5183 38.9486C51.2189 38.7636 50.8449 38.7467 50.5302 38.9041L48.9531 39.6927L47.3761 38.9041C47.0612 38.7467 46.6874 38.7636 46.388 38.9486C46.0885 39.1336 45.9062 39.4605 45.9062 39.8125V43.875H43.875V39.8125C43.875 39.4605 43.6928 39.1336 43.3933 38.9486C43.0939 38.7636 42.7199 38.7467 42.4052 38.9041L40.8281 39.6927L39.2511 38.9041C38.9362 38.7467 38.5624 38.7636 38.263 38.9486C37.9635 39.1336 37.7812 39.4605 37.7812 39.8125V43.875H35.75V37.7812C35.75 37.4523 35.5906 37.1437 35.3225 36.9532C35.0544 36.7628 34.7104 36.7138 34.3999 36.8223L33.1094 37.2724V26.4062C33.1094 26.2974 33.0917 26.1888 33.0569 26.0856C33.0559 26.0828 33.0554 26.0797 33.0544 26.0769L27.7667 10.6543L28.5456 11.0579C28.6927 11.1342 28.8531 11.1719 29.0128 11.1719C29.2247 11.1719 29.4357 11.1056 29.6132 10.9755C29.9245 10.7472 30.0796 10.3624 30.0134 9.98217L29.5306 7.20728L31.5786 5.23951C31.8585 4.97047 31.9607 4.56534 31.8417 4.19585C31.7226 3.82627 31.4033 3.55682 31.0189 3.50187L28.1766 3.09471L26.9081 0.561133C26.736 0.217141 26.3845 0 26 0C25.6155 0 25.264 0.217141 25.0918 0.56093L23.8233 3.09451L20.981 3.50167C20.5967 3.55672 20.2773 3.82606 20.1582 4.19565C20.0392 4.56523 20.1413 4.97027 20.4213 5.23931L22.4693 7.20708L21.9865 9.98197C21.9203 10.3622 22.0753 10.7471 22.3867 10.9753C22.6979 11.2034 23.1118 11.2354 23.4543 11.0578L24.2332 10.6542L18.9455 26.0768C18.9445 26.0796 18.944 26.0827 18.943 26.0855C18.9086 26.1885 18.8906 26.2976 18.8906 26.4062V37.2724L17.6001 36.8223C17.2894 36.7138 16.9456 36.7627 16.6775 36.9532C16.4094 37.1437 16.25 37.4523 16.25 37.7812V43.875H14.2188V39.8125C14.2188 39.4605 14.0365 39.1336 13.737 38.9486C13.4376 38.7636 13.0638 38.7467 12.7489 38.9041L11.1719 39.6927L9.59481 38.9041C9.27987 38.7467 8.90612 38.7636 8.60671 38.9486C8.3072 39.1336 8.125 39.4605 8.125 39.8125V43.875H6.09375V39.8125C6.09375 39.4605 5.91155 39.1336 5.61204 38.9486C5.31263 38.7636 4.93868 38.7467 4.62394 38.9041L3.04688 39.6927L1.46981 38.9041C1.15487 38.7467 0.781117 38.7636 0.481711 38.9486C0.182203 39.1336 0 39.4605 0 39.8125V50.9844C0 51.5453 0.454695 52 1.01562 52H50.9844C51.5453 52 52 51.5453 52 50.9844V39.8125C52 39.4605 51.8178 39.1336 51.5183 38.9486ZM47.9375 41.4558L48.4989 41.7365C48.7848 41.8794 49.1214 41.8794 49.4073 41.7365L49.9688 41.4558V43.875H47.9375V41.4558ZM39.8125 41.4558L40.3739 41.7365C40.6598 41.8794 40.9964 41.8794 41.2823 41.7365L41.8438 41.4558V43.875H39.8125V41.4558ZM31.0781 27.4219V37.4614L29.246 36.8223C29.0294 36.7467 28.7936 36.7467 28.577 36.8223L26 37.7212L23.4231 36.8223C23.2064 36.7467 22.9706 36.7467 22.754 36.8223L20.9219 37.4614V27.4219H31.0781ZM23.3299 5.21716L24.6375 5.02988C24.9671 4.98266 25.2526 4.77689 25.4017 4.47921L26 3.28412L26.5983 4.47921C26.7474 4.77689 27.0329 4.98266 27.3625 5.02988L28.6701 5.21716L27.7338 6.1167C27.4903 6.3507 27.379 6.69043 27.4369 7.02315L27.6612 8.31167L26.4674 7.69305C26.3209 7.61709 26.1605 7.5791 26.0001 7.5791C25.8397 7.5791 25.6793 7.61709 25.5328 7.69305L24.339 8.31167L24.5633 7.02315C24.6212 6.69043 24.5099 6.3507 24.2664 6.1167L23.3299 5.21716ZM26 11.7643L30.6719 25.3906H27.0156V22.1406C27.0156 21.5797 26.5609 21.125 26 21.125C25.4391 21.125 24.9844 21.5797 24.9844 22.1406V25.3906H21.3281L26 11.7643ZM10.1562 41.4558L10.7177 41.7365C11.0036 41.8794 11.3402 41.8794 11.6261 41.7365L12.1875 41.4558V43.875H10.1562V41.4558ZM2.03125 41.4558L2.59269 41.7365C2.87859 41.8794 3.21516 41.8794 3.50106 41.7365L4.0625 41.4558V43.875H2.03125V41.4558ZM2.03125 45.9062H16.25V49.9688H2.03125V45.9062ZM18.2812 43.875H21.9375C22.4971 43.875 22.9531 43.419 22.9531 42.8594C22.9531 42.2998 22.4971 41.8438 21.9375 41.8438H18.2812V39.2112L19.8427 39.7558C20.0593 39.8314 20.2951 39.8314 20.5117 39.7558L23.0886 38.8569L25.6656 39.7558C25.8822 39.8314 26.1181 39.8314 26.3345 39.7558L28.9116 38.8569L31.4884 39.7558C31.7051 39.8314 31.9409 39.8314 32.1574 39.7558L33.7188 39.2112V41.8438H30.0625C29.5029 41.8438 29.0469 42.2998 29.0469 42.8594C29.0469 43.419 29.5029 43.875 30.0625 43.875H33.7188V49.9688H18.2812V43.875ZM49.9688 49.9688H35.75V45.9062H49.9688V49.9688Z" fill="#B45754"/>
<path d="M26 41.8438C25.4404 41.8438 24.9844 42.2998 24.9844 42.8594C24.9844 43.419 25.4404 43.875 26 43.875C26.5596 43.875 27.0156 43.419 27.0156 42.8594C27.0156 42.2998 26.5596 41.8438 26 41.8438Z" fill="#B45754"/>
<path d="M26 35.5469C27.68 35.5469 29.0469 34.18 29.0469 32.5C29.0469 30.82 27.68 29.4531 26 29.4531C24.32 29.4531 22.9531 30.82 22.9531 32.5C22.9531 34.18 24.32 35.5469 26 35.5469ZM26 31.4844C26.56 31.4844 27.0156 31.94 27.0156 32.5C27.0156 33.06 26.56 33.5156 26 33.5156C25.44 33.5156 24.9844 33.06 24.9844 32.5C24.9844 31.94 25.44 31.4844 26 31.4844Z" fill="#B45754"/>
</g>
<defs>
<clipPath id="clip0">
<rect width="52" height="52" fill="white"/>
</clipPath>
</defs>
</svg>
