<svg width="62" height="62" viewBox="0 0 62 62" fill="none" xmlns="http://www.w3.org/2000/svg">
<circle cx="31" cy="31" r="30.5" fill="white" stroke="#D1C0C0"/>
<path fill-rule="evenodd" clip-rule="evenodd" d="M46.3116 38.642L45.5128 38.3086C45.5058 38.3056 45.4986 38.3028 45.4914 38.3002C44.0397 37.7763 42.4893 37.5156 40.9439 37.5279V36.9641C41.8998 36.7617 42.6344 35.954 42.7268 34.9625C43.5564 35.0778 44.3741 35.2791 45.1622 35.5628L45.9503 35.8917C46.0093 35.9164 46.0705 35.9281 46.1308 35.9281C46.3144 35.9281 46.4887 35.8196 46.5638 35.6396C46.6635 35.4005 46.5507 35.1258 46.3116 35.026L45.5128 34.6925C45.5058 34.6896 45.4986 34.6868 45.4914 34.6842C44.6011 34.3628 43.6756 34.1401 42.7369 34.0185V32.3032C42.7369 31.0558 41.7222 30.0411 40.4749 30.0411C39.2276 30.0411 38.2128 31.0558 38.2128 32.3032V34.2241C37.9091 34.2921 37.6071 34.371 37.3086 34.4606V33.5542C37.3086 32.4202 36.3861 31.4977 35.2521 31.4977C34.5547 31.4977 33.9376 31.847 33.5656 32.3795C32.0586 31.4861 30.4587 30.7471 28.8017 30.1783V26.0883C28.8017 24.4296 27.4522 23.0801 25.7936 23.0801C25.3438 23.0801 24.9022 23.1804 24.5001 23.372V23.1422C24.5001 20.9418 22.7099 19.1516 20.5094 19.1516C18.309 19.1516 16.5188 20.9418 16.5188 23.1422V28.7862H15.0692C14.8101 28.7862 14.6001 28.9962 14.6001 29.2552C14.6001 29.5143 14.8101 29.7243 15.0692 29.7243H16.5188V30.0056C16.5188 32.0473 18.0603 33.7347 20.0404 33.9677V34.7597H15.0692C14.8101 34.7597 14.6001 34.9697 14.6001 35.2287C14.6001 35.4878 14.8101 35.6978 15.0692 35.6978H20.3849C22.9148 35.6978 25.2977 36.6785 27.0947 38.4592L31.8912 43.2121C33.1841 44.4933 34.7786 45.4793 36.5024 46.0636L36.926 46.2072C36.976 46.2242 37.0267 46.2322 37.0766 46.2322C37.2721 46.2322 37.4546 46.109 37.5209 45.9136C37.6041 45.6682 37.4726 45.4019 37.2272 45.3188L36.8036 45.1752C35.982 44.8967 35.1926 44.5184 34.4567 44.0556L35.6187 43.4713C36.914 42.82 38.3017 42.4098 39.743 42.2521C40.2169 42.2002 40.7037 42.1768 41.1892 42.1817C41.4492 42.1874 41.6604 41.9767 41.6632 41.7176C41.6659 41.4586 41.4582 41.2464 41.1991 41.2436C40.6766 41.2381 40.152 41.2637 39.6409 41.3195C38.088 41.4894 36.5929 41.9314 35.1972 42.6331L33.5819 43.4453C33.2202 43.1666 32.8753 42.8666 32.5515 42.5457L31.6449 41.6473C32.1503 41.4627 32.646 41.2489 33.1253 41.0079L35.6187 39.7542C36.9141 39.1028 38.3017 38.6927 39.743 38.535C41.5644 38.3357 43.438 38.5584 45.1621 39.1787L45.9503 39.5077C46.1893 39.6076 46.464 39.4947 46.5638 39.2555C46.6635 39.0165 46.5507 38.7419 46.3116 38.642ZM40.4748 30.9792C41.2048 30.9792 41.7988 31.5732 41.7988 32.3032V34.7512C41.7988 35.4812 41.2048 36.0752 40.4748 36.0752C39.7448 36.0752 39.1509 35.4812 39.1509 34.7512V34.6114V34.6103V32.3032C39.1509 31.5732 39.7448 30.9792 40.4748 30.9792ZM34.1336 33.5542C34.1336 32.9375 34.6353 32.4358 35.252 32.4358C35.8687 32.4358 36.3704 32.9375 36.3704 33.5542V35.7216C36.3704 36.3382 35.8687 36.8399 35.252 36.8399C34.6353 36.8399 34.1336 36.3382 34.1336 35.7216V33.5542ZM17.4569 30.0056V23.1422C17.4569 21.4591 18.8263 20.0897 20.5094 20.0897C22.1926 20.0897 23.562 21.4591 23.562 23.1422V26.1182C23.562 26.3773 23.772 26.5873 24.031 26.5873C24.2901 26.5873 24.5001 26.3773 24.5001 26.1182V24.4739C24.5692 24.4181 24.6404 24.3667 24.7138 24.3218C25.0378 24.1232 25.4112 24.0183 25.7936 24.0183C26.9349 24.0183 27.8636 24.9469 27.8636 26.0883V31.0368C27.8636 32.0168 27.1787 32.8393 26.2626 33.0525V31.6722C26.2626 31.4131 26.0526 31.2031 25.7936 31.2031C25.5345 31.2031 25.3245 31.4131 25.3245 31.6722V33.0512C24.7784 32.923 24.2963 32.5763 24.0065 32.0822C23.9914 32.0564 23.9769 32.0296 23.9625 32.0022C24.3037 31.4145 24.5001 30.7328 24.5001 30.0057V28.1172C24.5001 27.8582 24.2901 27.6482 24.0311 27.6482C23.772 27.6482 23.562 27.8582 23.562 28.1172V30.0057C23.562 31.5293 22.4398 32.7957 20.9786 33.0221V27.558L21.6091 27.1383C21.8247 26.9947 21.8832 26.7035 21.7396 26.4879C21.596 26.2723 21.3048 26.2138 21.0892 26.3574L20.9786 26.431V25.4202C20.9786 25.1611 20.7686 24.9511 20.5096 24.9511C20.2505 24.9511 20.0405 25.1611 20.0405 25.4202V27.3034V27.3051V33.0221C18.5791 32.7957 17.4569 31.5293 17.4569 30.0056ZM23.3568 32.7979C23.8267 33.4457 24.5387 33.8807 25.3245 34.006V35.9934C23.9929 35.2792 22.5163 34.8624 20.9785 34.7768V33.9678C21.9051 33.8587 22.7353 33.4315 23.3568 32.7979ZM26.2626 36.5627V34.008C27.656 33.7888 28.7346 32.6097 28.7982 31.1711C30.3348 31.7209 31.8178 32.4232 33.2163 33.264C33.2029 33.3589 33.1955 33.4557 33.1955 33.5542V35.7216C33.1955 35.9111 33.2218 36.0946 33.2701 36.269L32.7038 36.5537C31.2354 37.2921 29.6609 37.7409 28.0238 37.8879L27.8652 37.9021L27.755 37.7929C27.2912 37.3332 26.7913 36.9227 26.2626 36.5627ZM32.7038 40.1699C32.1246 40.4611 31.5199 40.7102 30.9028 40.9121L28.7238 38.7529C30.2581 38.5469 31.736 38.0904 33.1252 37.3919L33.7207 37.0925C33.9975 37.4012 34.366 37.6257 34.7829 37.7234V39.1244L32.7038 40.1699ZM39.641 37.6025C38.2807 37.7513 36.9648 38.109 35.7211 38.6671V37.7235C36.6297 37.5106 37.3086 36.6942 37.3086 35.7216V35.4434C37.6195 35.3422 37.9353 35.2533 38.2537 35.1774C38.4244 36.0692 39.1201 36.7765 40.0058 36.9641V37.568C39.884 37.5778 39.7624 37.5892 39.641 37.6025ZM34.1133 24.638H35.4932C35.7522 24.638 35.9622 24.428 35.9622 24.169C35.9622 23.9099 35.7522 23.6999 35.4932 23.6999H34.1133C33.7209 23.6999 33.4016 23.3806 33.4016 22.9882C33.4016 22.5958 33.7209 22.2765 34.1133 22.2765H36.383C36.5862 22.2765 36.7662 22.1458 36.829 21.9526C36.8918 21.7594 36.8232 21.5477 36.6589 21.4282C36.4717 21.292 36.3644 21.0824 36.3644 20.853C36.3644 20.4605 36.6836 20.1412 37.0761 20.1412H42.7914C43.1838 20.1412 43.5031 20.4605 43.5031 20.853C43.5031 21.2453 43.1838 21.5646 42.7914 21.5646H40.5217C40.3185 21.5646 40.1385 21.6954 40.0756 21.8886C40.0128 22.0818 40.0815 22.2935 40.2458 22.413C40.433 22.5491 40.5403 22.7588 40.5403 22.9882C40.5403 23.3806 40.221 23.6998 39.8286 23.6998H37.4921C37.2331 23.6998 37.023 23.9099 37.023 24.1689C37.023 24.4279 37.2331 24.638 37.4921 24.638H39.8286C40.7382 24.638 41.4784 23.8978 41.4784 22.9882C41.4784 22.822 41.4528 22.6585 41.4045 22.5027H42.7913C43.701 22.5027 44.4411 21.7626 44.4411 20.853C44.4411 19.9432 43.701 19.2031 42.7913 19.2031H37.076C36.1663 19.2031 35.4262 19.9432 35.4262 20.853C35.4262 21.0191 35.4517 21.1826 35.5 21.3384H34.1132C33.2035 21.3384 32.4634 22.0785 32.4634 22.9882C32.4635 23.8979 33.2036 24.638 34.1133 24.638ZM45.5128 42.0256L46.3116 42.359C46.5506 42.4588 46.6635 42.7336 46.5637 42.9726C46.4886 43.1526 46.3143 43.2611 46.1307 43.2611C46.0705 43.2611 46.0092 43.2494 45.9502 43.2247L45.1621 42.8958C44.5008 42.6579 43.8116 42.4764 43.1136 42.3563C42.8583 42.3124 42.6869 42.0698 42.7308 41.8145C42.7747 41.5592 43.0174 41.3881 43.2726 41.4317C44.0286 41.5618 44.7751 41.7588 45.4913 42.0172C45.4985 42.0198 45.5057 42.0226 45.5128 42.0256Z" fill="#B45754"/>
</svg>
