<svg width="20" height="20" viewBox="0 0 20 20" fill="none" xmlns="http://www.w3.org/2000/svg">
<path d="M10 2.34375C7.7384 2.34375 5.89844 4.18371 5.89844 6.44531C5.89844 7.84934 6.60648 9.14121 7.79246 9.90105C9.00352 10.677 10.4901 10.7594 11.8716 10.1238C12.1655 9.98859 12.2943 9.64062 12.159 9.34664C12.0237 9.0527 11.6758 8.92398 11.3818 9.05922C10.3716 9.52398 9.29375 9.47113 8.42465 8.91434C7.5766 8.37102 7.07031 7.44801 7.07031 6.44531C7.07031 4.82988 8.38457 3.51562 10 3.51562C11.6154 3.51562 12.9297 4.82988 12.9297 6.44531C12.9297 6.7684 12.6668 7.03125 12.3438 7.03125C12.0485 7.03125 11.7727 6.80734 11.7579 6.45422C11.7579 6.45125 11.7578 6.44828 11.7578 6.44531C11.7578 5.47605 10.9693 4.6875 10 4.6875C9.03074 4.6875 8.24219 5.47605 8.24219 6.44531C8.24219 7.41457 9.03074 8.20312 10 8.20312C10.4498 8.20312 10.8606 8.03309 11.1718 7.75414C11.483 8.03312 11.8939 8.20312 12.3438 8.20312C13.313 8.20312 14.1016 7.41457 14.1016 6.44531C14.1016 4.18371 12.2616 2.34375 10 2.34375ZM10.5777 6.5393C10.5325 6.81777 10.291 7.03125 10 7.03125C9.67691 7.03125 9.41406 6.7684 9.41406 6.44531C9.41406 6.12223 9.67691 5.85938 10 5.85938C10.3004 5.85938 10.5484 6.08672 10.5818 6.37832C10.5731 6.43156 10.5716 6.48574 10.5777 6.5393Z" fill="#B45754"/>
<path d="M18.789 7.69438C18.7889 7.54285 18.7279 7.39141 18.6174 7.28098L16.4453 5.10887V0.585938C16.4453 0.262344 16.183 0 15.8594 0H4.14062C3.81703 0 3.55469 0.262344 3.55469 0.585938V5.10887L1.38258 7.28098C1.38055 7.28301 1.37883 7.28527 1.37684 7.28734C1.26703 7.40047 1.21121 7.54941 1.21098 7.69438C1.21098 7.69477 1.21094 7.69512 1.21094 7.69551V18.2422C1.21094 19.2127 2.00063 20 2.96875 20H17.0312C18.0015 20 18.7891 19.2107 18.7891 18.2422V7.69551C18.7891 7.69512 18.789 7.69477 18.789 7.69438ZM16.4453 6.76613L17.3745 7.69531L16.4453 8.62449V6.76613ZM4.72656 5.35176C4.72656 5.35164 4.72656 5.35148 4.72656 5.35137V1.17188H15.2734V5.35137C15.2734 5.35148 15.2734 5.35164 15.2734 5.35176V9.79637L12.1011 12.9688H7.89895L4.72656 9.79637V5.35176ZM3.55469 6.76613V8.62449L2.62551 7.69531L3.55469 6.76613ZM2.38281 17.9995V9.10988L6.82762 13.5547L2.38281 17.9995ZM3.21148 18.8281L7.89895 14.1406H12.1011L16.7885 18.8281H3.21148ZM17.6172 17.9995L13.1724 13.5547L17.6172 9.10988V17.9995Z" fill="#B45754"/>
</svg>
