<svg width="22" height="32" viewBox="0 0 22 32" fill="none" xmlns="http://www.w3.org/2000/svg">
<path fill-rule="evenodd" clip-rule="evenodd" d="M14.2407 1.64574V0H9.8355V1.64574H9.2923V0H7.45736V1.64574H6V3.29147H8.55037V1.64574H9.09357V3.29147H15.698V1.64574H14.2407ZM10.5265 25.7496H8.79543V28.0086L10.5265 28.0086V25.7496ZM11.3028 28.0086V25.7496H13.197V28.0086L11.3028 28.0086ZM10.6585 28.094V30.4849H11.1165V28.094H12.3352V29.8173L10.9612 31.1215L9.66478 29.8173V28.094H10.6585ZM4.30845 4.37046H6.17594L8.30687 8.85742H4.30845V4.37046ZM9.69053 4.37046L11.9981 8.85742H17.9168V4.37046H9.69053ZM5.06135 9.08255H8.41379L9.39077 11.1397H5.06135V9.08255ZM12.1139 9.08255L13.1719 11.1397H20.8977V9.08255H12.1139ZM2.19696 11.3338H9.48293L10.4747 13.422H5.73685V11.3571H5.10029V13.422H2.19696V11.3338ZM13.2717 11.3338L14.3456 13.422H19.8032V11.3338H13.2717ZM6.45879 13.5773H10.5484L11.5364 15.6577H6.45879V13.5773ZM14.4255 13.5773L15.4954 15.6577H18.7009V13.5773H14.4255ZM7.14961 15.8363H11.6213L12.5798 17.8546H7.14961V15.8363ZM15.5872 15.8363L16.6253 17.8546H17.5985V15.8363H15.5872ZM14.7255 22.3726L13.7522 20.3232H8.56251V22.3726H14.7255ZM13.6416 20.0903L12.6867 18.0797H7.84042V20.0903H13.6416ZM3.67185 4.37046H0V8.85742H3.67185V4.37046ZM6.76915 7.39799C6.6806 7.28717 6.56338 7.20273 6.43021 7.15384C6.29705 7.10495 6.15303 7.09349 6.01381 7.1207C5.87459 7.1479 5.74548 7.21273 5.64051 7.30815C5.53554 7.40357 5.45873 7.52593 5.41841 7.66193C5.40433 7.76518 5.41118 7.8702 5.43856 7.97074C5.46593 8.07128 5.51326 8.16527 5.57773 8.24713C5.6422 8.32899 5.7225 8.39703 5.81382 8.4472C5.90515 8.49737 6.00564 8.52864 6.10931 8.53914C6.25581 8.53998 6.39917 8.4967 6.52074 8.41494C6.68155 8.30697 6.79619 8.1428 6.84215 7.95464C6.88812 7.76648 6.86208 7.56794 6.76915 7.39799ZM6.3422 8.10442C6.28362 8.14179 6.21542 8.16125 6.14596 8.16044C6.07648 8.15963 6.00876 8.13857 5.95108 8.09984C5.8934 8.06111 5.84827 8.0064 5.82122 7.94241C5.79417 7.87841 5.78638 7.80792 5.79879 7.73956C5.82152 7.64817 5.8767 7.56816 5.95405 7.51444C6.01134 7.47533 6.07877 7.45375 6.14812 7.45234C6.20719 7.45168 6.26542 7.46636 6.31712 7.49493C6.36883 7.5235 6.41224 7.565 6.44311 7.61536C6.46639 7.65656 6.48125 7.70198 6.48682 7.74898C6.4924 7.79598 6.48857 7.84362 6.47557 7.88912C6.46257 7.93463 6.44065 7.9771 6.41109 8.01406C6.38153 8.05102 6.34492 8.08173 6.30338 8.10442H6.3422ZM5.26315 4.89058C5.45446 4.93077 5.62357 5.04166 5.73669 5.20109C5.83127 5.36582 5.86217 5.55951 5.82354 5.74549C5.78492 5.93147 5.67944 6.09683 5.52709 6.21027C5.40686 6.29569 5.26314 6.34179 5.11566 6.34224C5.06676 6.34947 5.01706 6.34947 4.96816 6.34224C4.87376 6.3241 4.78393 6.28729 4.70395 6.23396C4.62397 6.18064 4.55544 6.11189 4.50239 6.03172C4.39398 5.86697 4.35235 5.66713 4.38594 5.4728C4.43225 5.28328 4.54821 5.11814 4.71076 5.01025C4.87331 4.90237 5.07052 4.85964 5.26315 4.89058ZM5.04579 5.96186C5.13651 5.97816 5.23007 5.96165 5.30973 5.91528C5.35192 5.8912 5.38887 5.85893 5.41843 5.82037C5.44798 5.78181 5.46953 5.73774 5.48183 5.69074C5.49412 5.64374 5.4969 5.59476 5.49001 5.54667C5.48312 5.49858 5.46669 5.45235 5.4417 5.41069C5.41612 5.37214 5.38297 5.33919 5.34428 5.31384C5.30558 5.28848 5.26213 5.27125 5.21657 5.2632H5.11566C5.04615 5.26367 4.97845 5.28534 4.92158 5.3253C4.8426 5.37738 4.78693 5.45809 4.76632 5.55042C4.75746 5.59583 4.75769 5.64254 4.76702 5.68784C4.77635 5.73315 4.79458 5.77616 4.82066 5.81436C4.84624 5.85291 4.87939 5.88586 4.91809 5.91122C4.95679 5.93657 5.00023 5.9538 5.04579 5.96186ZM18.5533 4.37046H22V8.85742H18.5533V4.37046ZM5.81442 13.5773H3.29924V15.6577H5.81442V13.5773ZM4.40151 15.8363H6.51302V17.8546H4.40151V15.8363ZM7.20404 18.0797H5.4962V20.0903H7.20404V18.0797ZM6.59847 20.3232H7.92593V22.3726H6.59847V20.3232ZM8.65558 22.5667H7.70074V24.8257H8.65558V22.5667ZM9.29218 22.5667H14.2993V24.8257H9.29218V22.5667ZM12.1797 20.7988C12.308 20.7117 12.4595 20.665 12.6147 20.6648C12.814 20.6645 13.0058 20.741 13.1503 20.8783C13.2949 21.0156 13.381 21.2032 13.391 21.4023C13.3987 21.5572 13.3599 21.7109 13.2794 21.8436C13.199 21.9763 13.0806 22.0818 12.9397 22.1465C12.7987 22.2113 12.6415 22.2323 12.4885 22.2069C12.3354 22.1815 12.1935 22.1108 12.081 22.0039C11.9685 21.897 11.8906 21.7589 11.8574 21.6074C11.8242 21.4558 11.8371 21.2978 11.8945 21.1537C11.952 21.0096 12.0513 20.8859 12.1797 20.7988ZM12.3968 21.6393C12.4527 21.7042 12.53 21.7468 12.6147 21.7594C12.6655 21.7669 12.7173 21.7634 12.7666 21.7491C12.8159 21.7348 12.8615 21.7101 12.9004 21.6766C12.9393 21.6431 12.9705 21.6015 12.9919 21.5549C13.0132 21.5082 13.0243 21.4575 13.0243 21.4061C13.0243 21.3548 13.0132 21.3041 12.9919 21.2574C12.9705 21.2108 12.9393 21.1692 12.9004 21.1357C12.8615 21.1022 12.8159 21.0774 12.7666 21.0632C12.7173 21.0489 12.6655 21.0454 12.6147 21.0529C12.53 21.0655 12.4527 21.1081 12.3968 21.1729C12.3409 21.2378 12.3101 21.3205 12.3101 21.4061C12.3101 21.4918 12.3409 21.5745 12.3968 21.6393ZM12.2033 19.2131C12.2033 19.0596 12.1577 18.9095 12.0724 18.7818C11.9871 18.6542 11.8659 18.5547 11.724 18.4959C11.5822 18.4372 11.4261 18.4218 11.2755 18.4518C11.1249 18.4817 10.9866 18.5556 10.8781 18.6642C10.7695 18.7728 10.6956 18.9111 10.6656 19.0617C10.6356 19.2123 10.651 19.3684 10.7098 19.5102C10.7685 19.6521 10.868 19.7733 10.9957 19.8586C11.1234 19.9439 11.2734 19.9894 11.427 19.9894C11.6329 19.9894 11.8303 19.9076 11.9759 19.7621C12.1215 19.6165 12.2033 19.419 12.2033 19.2131ZM11.427 19.5702C11.3563 19.5702 11.2873 19.5493 11.2286 19.51C11.1699 19.4708 11.1241 19.415 11.0971 19.3498C11.07 19.2845 11.063 19.2127 11.0767 19.1435C11.0905 19.0742 11.1245 19.0106 11.1745 18.9606C11.2244 18.9107 11.288 18.8767 11.3573 18.8629C11.4266 18.8491 11.4984 18.8562 11.5636 18.8832C11.6289 18.9102 11.6847 18.956 11.7239 19.0147C11.7631 19.0735 11.7841 19.1425 11.7841 19.2131C11.7821 19.3072 11.7438 19.3969 11.6773 19.4634C11.6107 19.53 11.5211 19.5682 11.427 19.5702ZM11.1251 16.595C11.1453 16.7149 11.137 16.8379 11.1009 16.9541C11.0518 17.1123 10.9533 17.2507 10.8199 17.3489C10.6866 17.4472 10.5252 17.5002 10.3596 17.5002C10.1939 17.5002 10.0326 17.4472 9.8992 17.3489C9.76582 17.2507 9.66735 17.1123 9.61822 16.9541C9.58214 16.8379 9.57386 16.7149 9.59406 16.595C9.61427 16.475 9.66238 16.3615 9.73453 16.2635C9.80667 16.1656 9.90083 16.0859 10.0094 16.0311C10.118 15.9762 10.2379 15.9476 10.3596 15.9476C10.4812 15.9476 10.6012 15.9762 10.7098 16.0311C10.8183 16.0859 10.9125 16.1656 10.9846 16.2635C11.0568 16.3615 11.1049 16.475 11.1251 16.595ZM10.191 17.2769C10.2333 17.2944 10.2788 17.3035 10.3246 17.3035H10.3557C10.4436 17.2958 10.5256 17.2559 10.5858 17.1914C10.646 17.1269 10.6802 17.0423 10.6817 16.9541C10.6798 16.86 10.6415 16.7704 10.575 16.7038C10.5084 16.6373 10.4187 16.599 10.3246 16.597C10.2313 16.5991 10.1424 16.6376 10.0771 16.7043C10.0118 16.7711 9.97529 16.8608 9.97531 16.9541C9.97531 17 9.98435 17.0454 10.0019 17.0878C10.0195 17.1302 10.0452 17.1687 10.0776 17.2011C10.1101 17.2336 10.1486 17.2593 10.191 17.2769ZM10.1073 14.9797C10.1433 14.8635 10.1516 14.7405 10.1314 14.6205C10.1112 14.5006 10.0631 14.387 9.99095 14.2891C9.91881 14.1911 9.82465 14.1115 9.71608 14.0566C9.60751 14.0018 9.48755 13.9732 9.3659 13.9732C9.24425 13.9732 9.1243 14.0018 9.01573 14.0566C8.90716 14.1115 8.813 14.1911 8.74085 14.2891C8.66871 14.387 8.62059 14.5006 8.60039 14.6205C8.58019 14.7405 8.58846 14.8635 8.62454 14.9797C8.67368 15.1379 8.77214 15.2763 8.90553 15.3745C9.03892 15.4728 9.20024 15.5258 9.3659 15.5258C9.53157 15.5258 9.69289 15.4728 9.82627 15.3745C9.95966 15.2763 10.0581 15.1379 10.1073 14.9797ZM9.33097 15.329C9.24629 15.3165 9.16895 15.2739 9.11304 15.209C9.05714 15.1442 9.02638 15.0614 9.02638 14.9758C9.02638 14.8902 9.05714 14.8075 9.11304 14.7426C9.16895 14.6778 9.24629 14.6352 9.33097 14.6226C9.38174 14.6151 9.43355 14.6186 9.48285 14.6328C9.53216 14.6471 9.5778 14.6719 9.61668 14.7054C9.65555 14.7389 9.68674 14.7804 9.70812 14.8271C9.7295 14.8738 9.74057 14.9245 9.74057 14.9758C9.74057 15.0272 9.7295 15.0779 9.70812 15.1246C9.68674 15.1712 9.65555 15.2127 9.61668 15.2463C9.5778 15.2798 9.53216 15.3045 9.48285 15.3188C9.43355 15.3331 9.38174 15.3366 9.33097 15.329ZM8.8818 11.9893C8.9671 12.117 9.01263 12.2671 9.01263 12.4206C9.01263 12.6265 8.93084 12.8239 8.78526 12.9695C8.63968 13.1151 8.44222 13.1969 8.23634 13.1969C8.0828 13.1969 7.93272 13.1514 7.80506 13.0661C7.6774 12.9808 7.57789 12.8595 7.51914 12.7177C7.46038 12.5758 7.44501 12.4197 7.47496 12.2691C7.50492 12.1186 7.57885 11.9802 7.68742 11.8717C7.79598 11.7631 7.93431 11.6892 8.08489 11.6592C8.23548 11.6293 8.39156 11.6446 8.53341 11.7034C8.67526 11.7621 8.7965 11.8616 8.8818 11.9893ZM7.98603 12.6709C8.05257 12.7374 8.14225 12.7757 8.23634 12.7777H8.26739C8.35596 12.7682 8.438 12.7267 8.49806 12.6609C8.55812 12.5951 8.59204 12.5097 8.59343 12.4206C8.59343 12.3259 8.55581 12.2351 8.48884 12.1681C8.42188 12.1011 8.33105 12.0635 8.23634 12.0635C8.14163 12.0635 8.0508 12.1011 7.98384 12.1681C7.91687 12.2351 7.87924 12.3259 7.87924 12.4206C7.88123 12.5147 7.91948 12.6044 7.98603 12.6709ZM4.42479 11.1397V9.08255H1.0945V11.1397H4.42479ZM7.82502 9.64777C7.71025 9.48315 7.5362 9.36937 7.33936 9.33029C7.14253 9.29121 6.93821 9.32988 6.76926 9.43818C6.60982 9.55129 6.49893 9.7204 6.45874 9.91171C6.42287 10.1051 6.46171 10.3048 6.56742 10.4706C6.63647 10.5703 6.72791 10.6524 6.83441 10.7104C6.94091 10.7684 7.0595 10.8006 7.18069 10.8044C7.3268 10.8026 7.4694 10.7595 7.59213 10.6802C7.75435 10.5695 7.86859 10.4014 7.9118 10.2098C7.95502 10.0183 7.92401 9.81741 7.82502 9.64777ZM7.40582 10.3542C7.32607 10.4051 7.2297 10.423 7.13701 10.4041C7.04433 10.3853 6.96258 10.3312 6.90899 10.2533C6.88424 10.2145 6.86738 10.1713 6.85938 10.126C6.85139 10.0807 6.85242 10.0342 6.86242 9.98934C6.87047 9.94378 6.8877 9.90034 6.91305 9.86164C6.93841 9.82294 6.97136 9.7898 7.00991 9.76422C7.0672 9.72511 7.13463 9.70353 7.20398 9.70211H7.27385C7.32021 9.71063 7.36424 9.72887 7.40304 9.75563C7.44184 9.78239 7.47454 9.81707 7.49897 9.85737C7.52552 9.8961 7.54417 9.93968 7.55386 9.98562C7.56355 10.0316 7.56408 10.079 7.55543 10.1251C7.54678 10.1713 7.52911 10.2152 7.50344 10.2545C7.47776 10.2939 7.44459 10.3277 7.40582 10.3542Z" fill="white"/>
</svg>
