<svg width="16" height="20" viewBox="0 0 16 20" fill="none" xmlns="http://www.w3.org/2000/svg">
<path d="M8 0C3.86426 0 0.5 3.36465 0.5 7.5C0.5 13.033 7.41977 19.6094 7.71438 19.8869C7.79492 19.9621 7.89746 20 8 20C8.10254 20 8.20508 19.9621 8.28566 19.8869C8.58023 19.6094 15.5 13.033 15.5 7.5C15.5 3.36465 12.1357 0 8 0ZM8 11.6667C5.70262 11.6667 3.83332 9.79738 3.83332 7.5C3.83332 5.20262 5.70266 3.33332 8 3.33332C10.2973 3.33332 12.1667 5.20266 12.1667 7.5C12.1667 9.79734 10.2974 11.6667 8 11.6667Z" fill="#B65855"/>
</svg>
