<svg width="998" height="931" viewBox="0 0 998 931" fill="none" xmlns="http://www.w3.org/2000/svg">
<rect opacity="0.8" x="395" width="223" height="107" rx="5" fill="#4262B9"/>
<rect opacity="0.8" x="77" y="76" width="225" height="109" rx="6" fill="white" stroke="#6881C7" stroke-width="2"/>
<rect opacity="0.8" x="1" y="277" width="210" height="76" rx="6" fill="white" stroke="#6881C7" stroke-width="2" stroke-dasharray="2 2"/>
<rect opacity="0.8" x="263" y="277" width="210" height="76" rx="6" fill="white" stroke="#6881C7" stroke-width="2" stroke-dasharray="2 2"/>
<rect opacity="0.8" x="525" y="277" width="210" height="76" rx="6" fill="white" stroke="#6881C7" stroke-width="2" stroke-dasharray="2 2"/>
<rect opacity="0.8" x="787" y="277" width="210" height="76" rx="6" fill="white" stroke="#6881C7" stroke-width="2" stroke-dasharray="2 2"/>
<rect opacity="0.8" x="711" y="76" width="225" height="109" rx="6" fill="white" stroke="#6881C7" stroke-width="2"/>
<path d="M109 278L114.774 268H103.226L109 278ZM896 278L901.773 268H890.227L896 278ZM110 269V262H108V269H110ZM129 243H876V241H129V243ZM895 262V269H897V262H895ZM876 243C886.493 243 895 251.507 895 262H897C897 250.402 887.598 241 876 241V243ZM110 262C110 251.507 118.507 243 129 243V241C117.402 241 108 250.402 108 262H110Z" fill="#4262B9"/>
<circle cx="301" cy="119.5" r="3" fill="#4262B9"/>
<path d="M395 42.5L385 36.7265V48.2735L395 42.5ZM301 120.5H301.833V118.5H301V120.5ZM303.5 120.5H305.167V118.5H303.5V120.5ZM306.833 120.5H308.5V118.5H306.833V120.5ZM310.167 120.5H311V118.5H310.167V120.5ZM311 120.5C311.345 120.5 311.689 120.492 312.03 120.475L311.933 118.477C311.624 118.492 311.313 118.5 311 118.5V120.5ZM314.081 120.275C314.767 120.175 315.441 120.041 316.104 119.875L315.619 117.935C315.02 118.084 314.41 118.206 313.79 118.297L314.081 120.275ZM318.077 119.277C318.727 119.045 319.362 118.781 319.981 118.488L319.125 116.68C318.565 116.945 317.991 117.184 317.403 117.394L318.077 119.277ZM321.798 117.515C322.389 117.16 322.96 116.777 323.511 116.368L322.318 114.763C321.82 115.133 321.303 115.479 320.768 115.8L321.798 117.515ZM325.103 115.06C325.612 114.598 326.098 114.112 326.56 113.603L325.078 112.259C324.661 112.72 324.22 113.161 323.759 113.578L325.103 115.06ZM327.868 112.011C328.277 111.46 328.66 110.889 329.015 110.298L327.3 109.268C326.979 109.803 326.633 110.32 326.263 110.818L327.868 112.011ZM329.988 108.481C330.281 107.862 330.545 107.227 330.777 106.577L328.894 105.903C328.684 106.491 328.445 107.065 328.18 107.625L329.988 108.481ZM331.375 104.604C331.541 103.941 331.675 103.267 331.775 102.581L329.797 102.29C329.706 102.91 329.584 103.52 329.435 104.119L331.375 104.604ZM331.975 100.53C331.992 100.189 332 99.8453 332 99.5H330C330 99.8131 329.992 100.124 329.977 100.433L331.975 100.53ZM332 99.5V98.4722H330V99.5H332ZM332 96.4167V94.3611H330V96.4167H332ZM332 92.3056V90.25H330V92.3056H332ZM332 88.1944V86.1389H330V88.1944H332ZM332 84.0833V82.0278H330V84.0833H332ZM332 79.9722V77.9167H330V79.9722H332ZM332 75.8611V73.8056H330V75.8611H332ZM332 71.75V69.6944H330V71.75H332ZM332 67.6389V65.5833H330V67.6389H332ZM332 63.5278V62.5H330V63.5278H332ZM332 62.5C332 62.1869 332.008 61.8757 332.023 61.5665L330.025 61.47C330.008 61.8113 330 62.1547 330 62.5H332ZM332.203 59.7098C332.294 59.0898 332.416 58.4797 332.565 57.8809L330.625 57.3964C330.459 58.0587 330.325 58.7334 330.225 59.4188L332.203 59.7098ZM333.106 56.097C333.316 55.5092 333.555 54.9347 333.82 54.3751L332.012 53.5188C331.719 54.1375 331.455 54.7729 331.223 55.4232L333.106 56.097ZM334.7 52.7315C335.021 52.1974 335.367 51.6802 335.737 51.1818L334.132 49.9892C333.723 50.5399 333.34 51.1113 332.985 51.7017L334.7 52.7315ZM336.922 49.7406C337.339 49.2797 337.78 48.8395 338.241 48.4215L336.897 46.94C336.388 47.4017 335.902 47.888 335.44 48.397L336.922 49.7406ZM339.682 47.2374C340.18 46.8672 340.697 46.5208 341.232 46.1999L340.202 44.4854C339.611 44.8401 339.04 45.2228 338.489 45.6319L339.682 47.2374ZM342.875 45.3196C343.435 45.0545 344.009 44.816 344.597 44.6056L343.923 42.7226C343.273 42.9553 342.638 43.2191 342.019 43.5122L342.875 45.3196ZM346.381 44.0651C346.98 43.9156 347.59 43.7945 348.21 43.7033L347.919 41.7246C347.233 41.8254 346.559 41.9593 345.896 42.1247L346.381 44.0651ZM350.067 43.5225C350.376 43.5076 350.687 43.5 351 43.5V41.5C350.655 41.5 350.311 41.5083 349.97 41.5248L350.067 43.5225ZM351 43.5H352V41.5H351V43.5ZM354 43.5H356V41.5H354V43.5ZM358 43.5H360V41.5H358V43.5ZM362 43.5H364V41.5H362V43.5ZM366 43.5H368V41.5H366V43.5ZM370 43.5H372V41.5H370V43.5ZM374 43.5H376V41.5H374V43.5ZM378 43.5H380V41.5H378V43.5ZM382 43.5H384V41.5H382V43.5ZM386 43.5H388V41.5H386V43.5ZM390 43.5H392V41.5H390V43.5Z" fill="#4262B9"/>
<circle cx="395" cy="71.5" r="3" fill="#4262B9"/>
<path d="M301 148.5L311 154.274V142.726L301 148.5ZM395 70.5H368V72.5H395V70.5ZM347 91.5V128.5H349V91.5H347ZM328 147.5H310V149.5H328V147.5ZM347 128.5C347 138.993 338.493 147.5 328 147.5V149.5C339.598 149.5 349 140.098 349 128.5H347ZM368 70.5C356.402 70.5 347 79.902 347 91.5H349C349 81.0066 357.507 72.5 368 72.5V70.5Z" fill="#4262B9"/>
<circle cx="618" cy="68" r="3" fill="#4262B9"/>
<path d="M712 145L702 139.226V150.774L712 145ZM618 69H645V67H618V69ZM664 88V125H666V88H664ZM685 146H703V144H685V146ZM664 125C664 136.598 673.402 146 685 146V144C674.507 144 666 135.493 666 125H664ZM645 69C655.493 69 664 77.5066 664 88H666C666 76.402 656.598 67 645 67V69Z" fill="#4262B9"/>
<circle cx="712" cy="122" r="3" fill="#4262B9"/>
<path d="M618 45L628 50.7735V39.2265L618 45ZM621 46H623V44H621V46ZM625 46H627V44H625V46ZM629 46H631V44H629V46ZM633 46H635V44H633V46ZM637 46H639V44H637V46ZM641 46H643V44H641V46ZM645 46H647V44H645V46ZM649 46H651V44H649V46ZM653 46H655V44H653V46ZM657 46H658V44H657V46ZM658 46C658.313 46 658.624 46.0076 658.933 46.0225L659.03 44.0248C658.689 44.0083 658.345 44 658 44V46ZM660.79 46.2033C661.41 46.2945 662.02 46.4156 662.619 46.5651L663.104 44.6247C662.441 44.4593 661.767 44.3254 661.081 44.2246L660.79 46.2033ZM664.403 47.1056C664.991 47.316 665.565 47.5545 666.125 47.8196L666.981 46.0122C666.362 45.7191 665.727 45.4553 665.077 45.2226L664.403 47.1056ZM667.768 48.6999C668.303 49.0208 668.82 49.3672 669.318 49.7374L670.511 48.1319C669.96 47.7228 669.389 47.3401 668.798 46.9854L667.768 48.6999ZM670.759 50.9215C671.22 51.3395 671.661 51.7797 672.078 52.2406L673.56 50.897C673.098 50.388 672.612 49.9017 672.103 49.44L670.759 50.9215ZM673.263 53.6818C673.633 54.1802 673.979 54.6974 674.3 55.2315L676.015 54.2017C675.66 53.6113 675.277 53.0399 674.868 52.4892L673.263 53.6818ZM675.18 56.8751C675.445 57.4347 675.684 58.0092 675.894 58.597L677.777 57.9232C677.545 57.2729 677.281 56.6375 676.988 56.0188L675.18 56.8751ZM676.435 60.3809C676.584 60.9797 676.706 61.5898 676.797 62.2098L678.775 61.9188C678.675 61.2334 678.541 60.5587 678.375 59.8964L676.435 60.3809ZM676.977 64.0665C676.992 64.3757 677 64.6869 677 65H679C679 64.6547 678.992 64.3113 678.975 63.97L676.977 64.0665ZM677 65V66.0278H679V65H677ZM677 68.0833V70.1389H679V68.0833H677ZM677 72.1944V74.25H679V72.1944H677ZM677 76.3056V78.3611H679V76.3056H677ZM677 80.4167V82.4722H679V80.4167H677ZM677 84.5278V86.5833H679V84.5278H677ZM677 88.6389V90.6944H679V88.6389H677ZM677 92.75V94.8056H679V92.75H677ZM677 96.8611V98.9167H679V96.8611H677ZM677 100.972V102H679V100.972H677ZM677 102C677 102.345 677.008 102.689 677.025 103.03L679.023 102.933C679.008 102.624 679 102.313 679 102H677ZM677.225 105.081C677.325 105.767 677.459 106.441 677.625 107.104L679.565 106.619C679.416 106.02 679.294 105.41 679.203 104.79L677.225 105.081ZM678.223 109.077C678.455 109.727 678.719 110.362 679.012 110.981L680.82 110.125C680.555 109.565 680.316 108.991 680.106 108.403L678.223 109.077ZM679.985 112.798C680.34 113.389 680.723 113.96 681.132 114.511L682.737 113.318C682.367 112.82 682.021 112.303 681.7 111.768L679.985 112.798ZM682.44 116.103C682.902 116.612 683.388 117.098 683.897 117.56L685.241 116.078C684.78 115.661 684.339 115.22 683.922 114.759L682.44 116.103ZM685.489 118.868C686.04 119.277 686.611 119.66 687.202 120.015L688.232 118.3C687.697 117.979 687.18 117.633 686.682 117.263L685.489 118.868ZM689.019 120.988C689.638 121.281 690.273 121.545 690.923 121.777L691.597 119.894C691.009 119.684 690.435 119.445 689.875 119.18L689.019 120.988ZM692.896 122.375C693.559 122.541 694.233 122.675 694.919 122.775L695.21 120.797C694.59 120.706 693.98 120.584 693.381 120.435L692.896 122.375ZM696.97 122.975C697.311 122.992 697.655 123 698 123V121C697.687 121 697.376 120.992 697.067 120.977L696.97 122.975ZM698 123H698.875V121H698V123ZM700.625 123H702.375V121H700.625V123ZM704.125 123H705.875V121H704.125V123ZM707.625 123H709.375V121H707.625V123ZM711.125 123H712V121H711.125V123Z" fill="#4262B9"/>
<circle cx="181" cy="187" r="3" fill="#4262B9"/>
<path d="M181 243L186.774 233L175.226 233L181 243ZM180 187L180 234L182 234L182 187L180 187Z" fill="#4262B9"/>
<circle cx="203" cy="240" r="3" transform="rotate(-180 203 240)" fill="#4262B9"/>
<path d="M203 184L197.226 194L208.774 194L203 184ZM204 240L204 239L202 239L202 240L204 240ZM204 237L204 235L202 235L202 237L204 237ZM204 233L204 231L202 231L202 233L204 233ZM204 229L204 227L202 227L202 229L204 229ZM204 225L204 223L202 223L202 225L204 225ZM204 221L204 219L202 219L202 221L204 221ZM204 217L204 215L202 215L202 217L204 217ZM204 213L204 211L202 211L202 213L204 213ZM204 209L204 207L202 207L202 209L204 209ZM204 205L204 203L202 203L202 205L204 205ZM204 201L204 199L202 199L202 201L204 201ZM204 197L204 195L202 195L202 197L204 197ZM204 193L204 191L202 191L202 193L204 193ZM204 189L204 187L202 187L202 189L204 189Z" fill="#4262B9"/>
<circle cx="817" cy="240" r="3" transform="rotate(-180 817 240)" fill="#4262B9"/>
<path d="M817 184L811.226 194L822.774 194L817 184ZM818 240L818 239L816 239L816 240L818 240ZM818 237L818 235L816 235L816 237L818 237ZM818 233L818 231L816 231L816 233L818 233ZM818 229L818 227L816 227L816 229L818 229ZM818 225L818 223L816 223L816 225L818 225ZM818 221L818 219L816 219L816 221L818 221ZM818 217L818 215L816 215L816 217L818 217ZM818 213L818 211L816 211L816 213L818 213ZM818 209L818 207L816 207L816 209L818 209ZM818 205L818 203L816 203L816 205L818 205ZM818 201L818 199L816 199L816 201L818 201ZM818 197L818 195L816 195L816 197L818 197ZM818 193L818 191L816 191L816 193L818 193ZM818 189L818 187L816 187L816 189L818 189Z" fill="#4262B9"/>
<circle cx="838" cy="187" r="3" fill="#4262B9"/>
<path d="M838 243L843.774 233L832.226 233L838 243ZM837 187L837 234L839 234L839 187L837 187Z" fill="#4262B9"/>
<circle cx="498" cy="107" r="3" fill="#4262B9"/>
<path d="M498 243L503.774 233L492.227 233L498 243ZM497 107L497 234L499 234L499 107L497 107Z" fill="#4262B9"/>
<circle r="3" transform="matrix(1 0 0 -1 520 240)" fill="#4262B9"/>
<path d="M520 104L525.774 114L514.227 114L520 104ZM519 240L519 239L521 239L521 240L519 240ZM519 237L519 235L521 235L521 237L519 237ZM519 233L519 231L521 231L521 233L519 233ZM519 229L519 227L521 227L521 229L519 229ZM519 225L519 223L521 223L521 225L519 225ZM519 221L519 219L521 219L521 221L519 221ZM519 217L519 215L521 215L521 217L519 217ZM519 213L519 211L521 211L521 213L519 213ZM519 209L519 207L521 207L521 209L519 209ZM519 205L519 203L521 203L521 205L519 205ZM519 201L519 199L521 199L521 201L519 201ZM519 197L519 195L521 195L521 197L519 197ZM519 193L519 191L521 191L521 193L519 193ZM519 189L519 187L521 187L521 189L519 189ZM519 185L519 183L521 183L521 185L519 185ZM519 181L519 179L521 179L521 181L519 181ZM519 177L519 175L521 175L521 177L519 177ZM519 173L519 171L521 171L521 173L519 173ZM519 169L519 167L521 167L521 169L519 169ZM519 165L519 163L521 163L521 165L519 165ZM519 161L519 159L521 159L521 161L519 161ZM519 157L519 155L521 155L521 157L519 157ZM519 153L519 151L521 151L521 153L519 153ZM519 149L519 147L521 147L521 149L519 149ZM519 145L519 143L521 143L521 145L519 145ZM519 141L519 139L521 139L521 141L519 141ZM519 137L519 135L521 135L521 137L519 137ZM519 133L519 131L521 131L521 133L519 133ZM519 129L519 127L521 127L521 129L519 129ZM519 125L519 123L521 123L521 125L519 125ZM519 121L519 119L521 119L521 121L519 121ZM519 117L519 115L521 115L521 117L519 117ZM519 113L519 111L521 111L521 113L519 113ZM519 109L519 107L521 107L521 109L519 109Z" fill="#4262B9"/>
<path d="M895 354V370H897V354H895ZM876 389H129V391H876V389ZM110 370V354H108V370H110ZM129 389C118.507 389 110 380.493 110 370H108C108 381.598 117.402 391 129 391V389ZM895 370C895 380.493 886.493 389 876 389V391C887.598 391 897 381.598 897 370H895Z" fill="#4262B9"/>
<path opacity="0.8" d="M920 354L914.226 364H925.774L920 354ZM85.0001 354L79.2266 364H90.7736L85.0001 354ZM919 357V359H921V357H919ZM919 361V363H921V361H919ZM919 365V367H921V365H919ZM919 369V370H921V369H919ZM919 370C919 370.313 918.992 370.624 918.977 370.933L920.975 371.03C920.992 370.689 921 370.345 921 370H919ZM918.797 372.79C918.706 373.41 918.584 374.02 918.435 374.619L920.375 375.104C920.541 374.441 920.675 373.767 920.775 373.081L918.797 372.79ZM917.894 376.403C917.684 376.991 917.445 377.565 917.18 378.125L918.988 378.981C919.281 378.362 919.545 377.727 919.777 377.077L917.894 376.403ZM916.3 379.768C915.979 380.303 915.633 380.82 915.263 381.318L916.868 382.511C917.277 381.96 917.66 381.389 918.015 380.798L916.3 379.768ZM914.078 382.759C913.661 383.22 913.22 383.661 912.759 384.078L914.103 385.56C914.612 385.098 915.098 384.612 915.56 384.103L914.078 382.759ZM911.318 385.263C910.82 385.633 910.303 385.979 909.768 386.3L910.798 388.015C911.389 387.66 911.96 387.277 912.511 386.868L911.318 385.263ZM908.125 387.18C907.565 387.445 906.991 387.684 906.403 387.894L907.077 389.777C907.727 389.545 908.362 389.281 908.981 388.988L908.125 387.18ZM904.619 388.435C904.02 388.584 903.41 388.706 902.79 388.797L903.081 390.775C903.767 390.675 904.441 390.541 905.104 390.375L904.619 388.435ZM900.933 388.977C900.624 388.992 900.313 389 900 389V391C900.345 391 900.689 390.992 901.03 390.975L900.933 388.977ZM900 389H899.001V391H900V389ZM897.004 389H895.006V391H897.004V389ZM893.009 389H891.011V391H893.009V389ZM889.014 389H887.016V391H889.014V389ZM885.019 389H883.021V391H885.019V389ZM881.024 389H879.026V391H881.024V389ZM877.029 389H875.031V391H877.029V389ZM873.034 389H871.036V391H873.034V389ZM869.039 389H867.041V391H869.039V389ZM865.044 389H863.046V391H865.044V389ZM861.049 389H859.052V391H861.049V389ZM857.054 389H855.057V391H857.054V389ZM853.059 389H851.062V391H853.059V389ZM849.064 389H847.067V391H849.064V389ZM845.069 389H843.072V391H845.069V389ZM841.074 389H839.077V391H841.074V389ZM837.079 389H835.082V391H837.079V389ZM833.084 389H831.087V391H833.084V389ZM829.089 389H827.092V391H829.089V389ZM825.094 389H823.097V391H825.094V389ZM821.099 389H819.102V391H821.099V389ZM817.104 389H815.107V391H817.104V389ZM813.109 389H811.112V391H813.109V389ZM809.114 389H807.117V391H809.114V389ZM805.119 389H803.122V391H805.119V389ZM801.124 389H799.127V391H801.124V389ZM797.129 389H795.132V391H797.129V389ZM793.134 389H791.137V391H793.134V389ZM789.139 389H787.142V391H789.139V389ZM785.144 389H783.147V391H785.144V389ZM781.149 389H779.152V391H781.149V389ZM777.154 389H775.157V391H777.154V389ZM773.159 389H771.162V391H773.159V389ZM769.165 389H767.167V391H769.165V389ZM765.17 389H763.172V391H765.17V389ZM761.175 389H759.177V391H761.175V389ZM757.18 389H755.182V391H757.18V389ZM753.185 389H751.187V391H753.185V389ZM749.19 389H747.192V391H749.19V389ZM745.195 389H743.197V391H745.195V389ZM741.2 389H739.202V391H741.2V389ZM737.205 389H735.207V391H737.205V389ZM733.21 389H731.212V391H733.21V389ZM729.215 389H727.217V391H729.215V389ZM725.22 389H723.222V391H725.22V389ZM721.225 389H719.227V391H721.225V389ZM717.23 389H715.232V391H717.23V389ZM713.235 389H711.238V391H713.235V389ZM709.24 389H707.243V391H709.24V389ZM705.245 389H703.248V391H705.245V389ZM701.25 389H699.253V391H701.25V389ZM697.255 389H695.258V391H697.255V389ZM693.26 389H691.263V391H693.26V389ZM689.265 389H687.268V391H689.265V389ZM685.27 389H683.273V391H685.27V389ZM681.275 389H679.278V391H681.275V389ZM677.28 389H675.283V391H677.28V389ZM673.285 389H671.288V391H673.285V389ZM669.29 389H667.293V391H669.29V389ZM665.295 389H663.298V391H665.295V389ZM661.3 389H659.303V391H661.3V389ZM657.306 389H655.308V391H657.306V389ZM653.311 389H651.313V391H653.311V389ZM649.316 389H647.318V391H649.316V389ZM645.321 389H643.323V391H645.321V389ZM641.326 389H639.328V391H641.326V389ZM637.331 389H635.333V391H637.331V389ZM633.336 389H631.338V391H633.336V389ZM629.341 389H627.343V391H629.341V389ZM625.346 389H623.348V391H625.346V389ZM621.351 389H619.353V391H621.351V389ZM617.356 389H615.358V391H617.356V389ZM613.361 389H611.363V391H613.361V389ZM609.366 389H607.368V391H609.366V389ZM605.371 389H603.373V391H605.371V389ZM601.376 389H599.378V391H601.376V389ZM597.381 389H595.383V391H597.381V389ZM593.386 389H591.388V391H593.386V389ZM589.391 389H587.393V391H589.391V389ZM585.396 389H583.398V391H585.396V389ZM581.401 389H579.403V391H581.401V389ZM577.406 389H575.408V391H577.406V389ZM573.411 389H571.413V391H573.411V389ZM569.416 389H567.418V391H569.416V389ZM565.421 389H563.423V391H565.421V389ZM561.426 389H559.428V391H561.426V389ZM557.431 389H555.433V391H557.431V389ZM553.436 389H551.438V391H553.436V389ZM549.441 389H547.443V391H549.441V389ZM545.446 389H543.448V391H545.446V389ZM541.451 389H539.453V391H541.451V389ZM537.456 389H535.458V391H537.456V389ZM533.461 389H531.463V391H533.461V389ZM529.466 389H527.468V391H529.466V389ZM525.471 389H523.473V391H525.471V389ZM521.476 389H519.478V391H521.476V389ZM517.481 389H515.483V391H517.481V389ZM513.486 389H511.488V391H513.486V389ZM509.491 389H507.493V391H509.491V389ZM505.496 389H503.498V391H505.496V389ZM501.501 389H499.503V391H501.501V389ZM497.506 389H495.508V391H497.506V389ZM493.511 389H491.513V391H493.511V389ZM489.516 389H487.518V391H489.516V389ZM485.521 389H483.523V391H485.521V389ZM481.526 389H479.528V391H481.526V389ZM477.531 389H475.533V391H477.531V389ZM473.536 389H471.538V391H473.536V389ZM469.541 389H467.543V391H469.541V389ZM465.546 389H463.548V391H465.546V389ZM461.551 389H459.553V391H461.551V389ZM457.556 389H455.558V391H457.556V389ZM453.561 389H451.563V391H453.561V389ZM449.566 389H447.568V391H449.566V389ZM445.571 389H443.573V391H445.571V389ZM441.576 389H439.578V391H441.576V389ZM437.581 389H435.583V391H437.581V389ZM433.586 389H431.588V391H433.586V389ZM429.591 389H427.593V391H429.591V389ZM425.596 389H423.598V391H425.596V389ZM421.601 389H419.603V391H421.601V389ZM417.606 389H415.608V391H417.606V389ZM413.611 389H411.613V391H413.611V389ZM409.616 389H407.618V391H409.616V389ZM405.621 389H403.623V391H405.621V389ZM401.626 389H399.628V391H401.626V389ZM397.631 389H395.633V391H397.631V389ZM393.636 389H391.638V391H393.636V389ZM389.641 389H387.643V391H389.641V389ZM385.646 389H383.648V391H385.646V389ZM381.651 389H379.653V391H381.651V389ZM377.656 389H375.658V391H377.656V389ZM373.661 389H371.663V391H373.661V389ZM369.666 389H367.668V391H369.666V389ZM365.671 389H363.673V391H365.671V389ZM361.676 389H359.678V391H361.676V389ZM357.681 389H355.683V391H357.681V389ZM353.686 389H351.688V391H353.686V389ZM349.691 389H347.693V391H349.691V389ZM345.696 389H343.698V391H345.696V389ZM341.701 389H339.703V391H341.701V389ZM337.706 389H335.708V391H337.706V389ZM333.711 389H331.713V391H333.711V389ZM329.716 389H327.718V391H329.716V389ZM325.721 389H323.723V391H325.721V389ZM321.726 389H319.728V391H321.726V389ZM317.731 389H315.733V391H317.731V389ZM313.736 389H311.739V391H313.736V389ZM309.741 389H307.744V391H309.741V389ZM305.746 389H303.749V391H305.746V389ZM301.751 389H299.754V391H301.751V389ZM297.756 389H295.759V391H297.756V389ZM293.761 389H291.764V391H293.761V389ZM289.766 389H287.769V391H289.766V389ZM285.771 389H283.774V391H285.771V389ZM281.776 389H279.779V391H281.776V389ZM277.781 389H275.784V391H277.781V389ZM273.786 389H271.789V391H273.786V389ZM269.791 389H267.794V391H269.791V389ZM265.796 389H263.799V391H265.796V389ZM261.801 389H259.804V391H261.801V389ZM257.806 389H255.809V391H257.806V389ZM253.811 389H251.814V391H253.811V389ZM249.816 389H247.819V391H249.816V389ZM245.821 389H243.824V391H245.821V389ZM241.826 389H239.829V391H241.826V389ZM237.831 389H235.834V391H237.831V389ZM233.836 389H231.839V391H233.836V389ZM229.841 389H227.844V391H229.841V389ZM225.846 389H223.849V391H225.846V389ZM221.851 389H219.854V391H221.851V389ZM217.856 389H215.859V391H217.856V389ZM213.861 389H211.864V391H213.861V389ZM209.866 389H207.869V391H209.866V389ZM205.871 389H203.874V391H205.871V389ZM201.876 389H199.879V391H201.876V389ZM197.881 389H195.884V391H197.881V389ZM193.886 389H191.889V391H193.886V389ZM189.891 389H187.894V391H189.891V389ZM185.896 389H183.899V391H185.896V389ZM181.901 389H179.904V391H181.901V389ZM177.906 389H175.909V391H177.906V389ZM173.911 389H171.914V391H173.911V389ZM169.916 389H167.919V391H169.916V389ZM165.921 389H163.924V391H165.921V389ZM161.926 389H159.929V391H161.926V389ZM157.931 389H155.934V391H157.931V389ZM153.936 389H151.939V391H153.936V389ZM149.941 389H147.944V391H149.941V389ZM145.946 389H143.949V391H145.946V389ZM141.951 389H139.954V391H141.951V389ZM137.956 389H135.959V391H137.956V389ZM133.961 389H131.964V391H133.961V389ZM129.966 389H127.969V391H129.966V389ZM125.971 389H123.974V391H125.971V389ZM121.976 389H119.979V391H121.976V389ZM117.981 389H115.984V391H117.981V389ZM113.986 389H111.989V391H113.986V389ZM109.991 389H107.994V391H109.991V389ZM105.996 389H105V391H105.996V389ZM105 389C104.687 389 104.376 388.992 104.067 388.977L103.97 390.975C104.311 390.992 104.655 391 105 391V389ZM102.21 388.797C101.59 388.706 100.98 388.584 100.381 388.435L99.8964 390.375C100.559 390.541 101.233 390.675 101.919 390.775L102.21 388.797ZM98.5971 387.894C98.0092 387.684 97.4347 387.445 96.8752 387.18L96.0188 388.988C96.6376 389.281 97.2729 389.545 97.9232 389.777L98.5971 387.894ZM95.2316 386.3C94.6974 385.979 94.1803 385.633 93.6819 385.263L92.4892 386.868C93.0399 387.277 93.6114 387.66 94.2018 388.015L95.2316 386.3ZM92.2407 384.078C91.7798 383.661 91.3395 383.22 90.9216 382.759L89.4401 384.103C89.9017 384.612 90.388 385.098 90.8971 385.56L92.2407 384.078ZM89.7375 381.318C89.3672 380.82 89.0208 380.303 88.7 379.768L86.9855 380.798C87.3401 381.389 87.7229 381.96 88.132 382.511L89.7375 381.318ZM87.8197 378.125C87.5546 377.565 87.316 376.991 87.1057 376.403L85.2226 377.077C85.4553 377.727 85.7191 378.362 86.0123 378.981L87.8197 378.125ZM86.5652 374.619C86.4156 374.02 86.2946 373.41 86.2034 372.79L84.2247 373.081C84.3254 373.767 84.4594 374.441 84.6248 375.104L86.5652 374.619ZM86.0226 370.933C86.0076 370.624 86.0001 370.313 86.0001 370H84.0001C84.0001 370.345 84.0084 370.689 84.0249 371.03L86.0226 370.933ZM86.0001 370V369H84.0001V370H86.0001ZM86.0001 367V365H84.0001V367H86.0001ZM86.0001 363V361H84.0001V363H86.0001ZM86.0001 359V357H84.0001V359H86.0001Z" fill="#4262B9"/>
<circle cx="362" cy="355" r="3" fill="#4262B9"/>
<path d="M362 390.5L367.774 380.5L356.226 380.5L362 390.5ZM361 355L361 381.5L363 381.5L363 355H361Z" fill="#4262B9"/>
<circle cx="634" cy="355" r="3" fill="#4262B9"/>
<path d="M634 390.5L639.774 380.5L628.226 380.5L634 390.5ZM633 355L633 381.5L635 381.5L635 355H633Z" fill="#4262B9"/>
<circle cx="896" cy="355" r="3" fill="#4262B9"/>
<path d="M896 373.5L901.774 363.5L890.226 363.5L896 373.5ZM895 355L895 364.5L897 364.5L897 355H895Z" fill="#4262B9"/>
<circle cx="109" cy="355" r="3" fill="#4262B9"/>
<path d="M109 373.5L114.774 363.5L103.226 363.5L109 373.5ZM108 355L108 364.5L110 364.5L110 355H108Z" fill="#4262B9"/>
<circle r="3" transform="matrix(1 0 0 -1 384 387.5)" fill="#4262B9"/>
<path d="M384 352L389.774 362L378.226 362L384 352ZM383 387.5L383 386.514L385 386.514L385 387.5H383ZM383 384.542L383 382.569L385 382.569L385 384.542L383 384.542ZM383 380.597L383 378.625L385 378.625L385 380.597L383 380.597ZM383 376.653L383 374.681L385 374.681L385 376.653L383 376.653ZM383 372.708L383 370.736L385 370.736L385 372.708L383 372.708ZM383 368.764L383 366.792L385 366.792L385 368.764L383 368.764ZM383 364.819L383 362.847L385 362.847L385 364.819L383 364.819ZM383 360.875L383 358.903L385 358.903L385 360.875L383 360.875ZM383 356.931L383 354.958L385 354.958L385 356.931L383 356.931Z" fill="#4262B9"/>
<circle r="3" transform="matrix(1 0 0 -1 656 387.5)" fill="#4262B9"/>
<path d="M656 352L661.774 362L650.226 362L656 352ZM655 387.5L655 386.514L657 386.514L657 387.5H655ZM655 384.542L655 382.569L657 382.569L657 384.542L655 384.542ZM655 380.597L655 378.625L657 378.625L657 380.597L655 380.597ZM655 376.653L655 374.681L657 374.681L657 376.653L655 376.653ZM655 372.708L655 370.736L657 370.736L657 372.708L655 372.708ZM655 368.764L655 366.792L657 366.792L657 368.764L655 368.764ZM655 364.819L655 362.847L657 362.847L657 364.819L655 364.819ZM655 360.875L655 358.903L657 358.903L657 360.875L655 360.875ZM655 356.931L655 354.958L657 354.958L657 356.931L655 356.931Z" fill="#4262B9"/>
<rect opacity="0.2" x="80" y="427" width="208" height="74" rx="5" fill="#4262B9"/>
<rect opacity="0.2" x="410" y="427" width="208" height="74" rx="5" fill="#4262B9"/>
<rect opacity="0.2" x="709" y="427" width="208" height="74" rx="5" fill="#4262B9"/>
<circle cx="181" cy="393" r="3" fill="#4262B9"/>
<path d="M181 428.5L186.774 418.5L175.226 418.5L181 428.5ZM180 393L180 419.5L182 419.5L182 393H180Z" fill="#4262B9"/>
<circle cx="498" cy="393" r="3" fill="#4262B9"/>
<path d="M498 428.5L503.774 418.5L492.226 418.5L498 428.5ZM497 393L497 419.5L499 419.5L499 393H497Z" fill="#4262B9"/>
<circle cx="820" cy="393" r="3" fill="#4262B9"/>
<path d="M820 428.5L825.774 418.5L814.226 418.5L820 428.5ZM819 393L819 419.5L821 419.5L821 393H819Z" fill="#4262B9"/>
<circle r="3" transform="matrix(1 0 0 -1 203 425.5)" fill="#4262B9"/>
<path d="M203 390L208.774 400L197.226 400L203 390ZM202 425.5L202 424.514L204 424.514L204 425.5H202ZM202 422.542L202 420.569L204 420.569L204 422.542L202 422.542ZM202 418.597L202 416.625L204 416.625L204 418.597L202 418.597ZM202 414.653L202 412.681L204 412.681L204 414.653L202 414.653ZM202 410.708L202 408.736L204 408.736L204 410.708L202 410.708ZM202 406.764L202 404.792L204 404.792L204 406.764L202 406.764ZM202 402.819L202 400.847L204 400.847L204 402.819L202 402.819ZM202 398.875L202 396.903L204 396.903L204 398.875L202 398.875ZM202 394.931L202 392.958L204 392.958L204 394.931L202 394.931Z" fill="#4262B9"/>
<circle r="3" transform="matrix(1 0 0 -1 520 425.5)" fill="#4262B9"/>
<path d="M520 390L525.774 400L514.226 400L520 390ZM519 425.5L519 424.514L521 424.514L521 425.5H519ZM519 422.542L519 420.569L521 420.569L521 422.542L519 422.542ZM519 418.597L519 416.625L521 416.625L521 418.597L519 418.597ZM519 414.653L519 412.681L521 412.681L521 414.653L519 414.653ZM519 410.708L519 408.736L521 408.736L521 410.708L519 410.708ZM519 406.764L519 404.792L521 404.792L521 406.764L519 406.764ZM519 402.819L519 400.847L521 400.847L521 402.819L519 402.819ZM519 398.875L519 396.903L521 396.903L521 398.875L519 398.875ZM519 394.931L519 392.958L521 392.958L521 394.931L519 394.931Z" fill="#4262B9"/>
<circle r="3" transform="matrix(1 0 0 -1 842 425.5)" fill="#4262B9"/>
<path d="M842 390L847.774 400L836.226 400L842 390ZM841 425.5L841 424.514L843 424.514L843 425.5H841ZM841 422.542L841 420.569L843 420.569L843 422.542L841 422.542ZM841 418.597L841 416.625L843 416.625L843 418.597L841 418.597ZM841 414.653L841 412.681L843 412.681L843 414.653L841 414.653ZM841 410.708L841 408.736L843 408.736L843 410.708L841 410.708ZM841 406.764L841 404.792L843 404.792L843 406.764L841 406.764ZM841 402.819L841 400.847L843 400.847L843 402.819L841 402.819ZM841 398.875L841 396.903L843 396.903L843 398.875L841 398.875ZM841 394.931L841 392.958L843 392.958L843 394.931L841 394.931Z" fill="#4262B9"/>
<rect x="749" y="518" width="143" height="76" rx="6" fill="white" stroke="#D9E0F1" stroke-width="2"/>
<rect x="749" y="602" width="143" height="76" rx="6" fill="white" stroke="#D9E0F1" stroke-width="2"/>
<rect x="749" y="686" width="143" height="76" rx="6" fill="white" stroke="#D9E0F1" stroke-width="2"/>
<rect x="749" y="770" width="143" height="50" rx="6" fill="white" stroke="#D9E0F1" stroke-width="2"/>
<rect x="749" y="825" width="143" height="49" rx="6" fill="white" stroke="#D9E0F1" stroke-width="2"/>
<rect x="749" y="880" width="143" height="50" rx="6" fill="white" stroke="#D9E0F1" stroke-width="2"/>
<circle cx="820.5" cy="593" r="3" fill="#4262B9"/>
<circle cx="820.5" cy="603" r="3" fill="#4262B9"/>
<path d="M819.5 593V603H821.5V593H819.5Z" fill="#4262B9"/>
<circle cx="820.5" cy="677" r="3" fill="#4262B9"/>
<circle cx="820.5" cy="687" r="3" fill="#4262B9"/>
<path d="M819.5 677V687H821.5V677H819.5Z" fill="#4262B9"/>
<circle cx="820.5" cy="761" r="3" fill="#4262B9"/>
<circle cx="820.5" cy="771" r="3" fill="#4262B9"/>
<path d="M819.5 761V771H821.5V761H819.5Z" fill="#4262B9"/>
<rect x="446" y="518" width="143" height="76" rx="6" fill="white" stroke="#D9E0F1" stroke-width="2"/>
<rect x="446" y="602" width="143" height="76" rx="6" fill="white" stroke="#D9E0F1" stroke-width="2"/>
<rect x="446" y="686" width="143" height="76" rx="6" fill="white" stroke="#D9E0F1" stroke-width="2"/>
<rect x="446" y="770" width="143" height="76" rx="6" fill="white" stroke="#D9E0F1" stroke-width="2"/>
<rect x="446" y="854" width="143" height="76" rx="6" fill="white" stroke="#D9E0F1" stroke-width="2"/>
<circle cx="517.5" cy="593" r="3" fill="#4262B9"/>
<circle cx="517.5" cy="603" r="3" fill="#4262B9"/>
<path d="M516.5 593V603H518.5V593H516.5Z" fill="#4262B9"/>
<circle cx="517.5" cy="677" r="3" fill="#4262B9"/>
<circle cx="517.5" cy="687" r="3" fill="#4262B9"/>
<path d="M516.5 677V687H518.5V677H516.5Z" fill="#4262B9"/>
<circle cx="517.5" cy="761" r="3" fill="#4262B9"/>
<circle cx="517.5" cy="771" r="3" fill="#4262B9"/>
<path d="M516.5 761V771H518.5V761H516.5Z" fill="#4262B9"/>
<rect x="114" y="518" width="143" height="76" rx="6" fill="white" stroke="#D9E0F1" stroke-width="2"/>
<rect x="114" y="602" width="143" height="76" rx="6" fill="white" stroke="#D9E0F1" stroke-width="2"/>
<rect x="114" y="686" width="143" height="76" rx="6" fill="white" stroke="#D9E0F1" stroke-width="2"/>
<rect x="114" y="770" width="143" height="76" rx="6" fill="white" stroke="#D9E0F1" stroke-width="2"/>
<rect x="114" y="854" width="143" height="76" rx="6" fill="white" stroke="#D9E0F1" stroke-width="2"/>
<circle cx="185.5" cy="593" r="3" fill="#4262B9"/>
<circle cx="185.5" cy="603" r="3" fill="#4262B9"/>
<path d="M184.5 593V603H186.5V593H184.5Z" fill="#4262B9"/>
<circle cx="185.5" cy="677" r="3" fill="#4262B9"/>
<circle cx="185.5" cy="687" r="3" fill="#4262B9"/>
<path d="M184.5 677V687H186.5V677H184.5Z" fill="#4262B9"/>
<circle cx="185.5" cy="761" r="3" fill="#4262B9"/>
<circle cx="185.5" cy="771" r="3" fill="#4262B9"/>
<path d="M184.5 761V771H186.5V761H184.5Z" fill="#4262B9"/>
<circle cx="185.5" cy="845" r="3" fill="#4262B9"/>
<circle cx="185.5" cy="855" r="3" fill="#4262B9"/>
<path d="M184.5 845V855H186.5V845H184.5Z" fill="#4262B9"/>
<circle cx="517.5" cy="845" r="3" fill="#4262B9"/>
<circle cx="517.5" cy="855" r="3" fill="#4262B9"/>
<path d="M516.5 845V855H518.5V845H516.5Z" fill="#4262B9"/>
<circle cx="820.5" cy="818" r="3" fill="#4262B9"/>
<circle cx="820.5" cy="828" r="3" fill="#4262B9"/>
<path d="M819.5 818V828H821.5V818H819.5Z" fill="#4262B9"/>
<circle cx="820.5" cy="871" r="3" fill="#4262B9"/>
<circle cx="820.5" cy="881" r="3" fill="#4262B9"/>
<path d="M819.5 871V881H821.5V871H819.5Z" fill="#4262B9"/>
</svg>
