<svg width="44" height="44" viewBox="0 0 44 44" fill="none" xmlns="http://www.w3.org/2000/svg">
<path fill-rule="evenodd" clip-rule="evenodd" d="M40.4312 0H15.5985C14.7693 0 14.0946 0.674746 14.0946 1.50391V17.9919L6.23196 9.23832C6.00368 8.9842 5.68981 8.83414 5.34874 8.81601C5.00667 8.79755 4.6797 8.91336 4.42558 9.14164L2.65782 10.7295C2.13313 11.2008 2.08982 12.0112 2.56114 12.5358L13.6676 24.9002C13.7888 25.0351 13.9341 25.1395 14.0946 25.2117V35.1607H11.5893C11.2331 35.1607 10.9448 35.4494 10.9448 35.8052C10.9448 36.161 11.2331 36.4497 11.5893 36.4497H29.3583C29.4768 36.4497 29.5731 36.5461 29.5731 36.6646V37.9896C29.5731 39.9023 30.4715 41.6094 31.868 42.7108H9.03031C6.42666 42.7108 4.30843 40.5929 4.30843 37.9892V36.6646C4.30843 36.5461 4.40477 36.4497 4.52327 36.4497H8.78256C9.1384 36.4497 9.4271 36.161 9.4271 35.8052C9.4271 35.4494 9.1384 35.1607 8.78256 35.1607H4.52327C3.69411 35.1607 3.01936 35.8354 3.01936 36.6646V37.9892C3.01936 41.3035 5.71599 43.9998 9.03031 43.9998H35.9241C39.2385 43.9998 41.9351 41.3035 41.9351 37.9892V20.4498C41.9351 20.094 41.6467 19.8053 41.2906 19.8053C40.9344 19.8053 40.646 20.094 40.646 20.4498V37.9892C40.646 40.5929 38.5278 42.7111 35.9241 42.7111H35.5834C32.9798 42.7111 30.8619 40.5932 30.8619 37.9896V36.6649C30.8619 35.8354 30.1871 35.161 29.358 35.161H15.3837V25.678L17.2226 26.5921C17.3686 26.6646 17.5251 26.7001 17.6802 26.7001C17.9272 26.7001 18.1706 26.6102 18.364 26.4366C18.6785 26.154 18.7869 25.7152 18.6402 25.3184L17.652 22.6456C17.6577 22.606 17.662 22.5664 17.664 22.5261C17.6825 22.1851 17.5667 21.8571 17.3384 21.603L15.3837 19.427V1.50391C15.3837 1.38541 15.48 1.28907 15.5985 1.28907H40.4312C40.5497 1.28907 40.646 1.38541 40.646 1.50391V9.90904C40.646 10.2652 40.9344 10.5536 41.2906 10.5536C41.6467 10.5536 41.9351 10.2652 41.9351 9.90904V1.50391C41.9351 0.674746 41.2603 0 40.4312 0ZM5.27959 10.1071L6.04498 10.9594L4.29231 12.5342L3.52659 11.6818L5.27959 10.1071ZM5.15337 13.4932L5.5505 13.1364L15.0167 23.6749L14.62 24.0317L5.15337 13.4932ZM15.9856 24.5376L16.7298 23.8689L17.2008 25.1415L15.9856 24.5376ZM15.9758 22.8135L6.50958 12.275L6.90637 11.9185L16.3726 22.457L15.9758 22.8135ZM41.2908 12.0718C40.9349 12.0718 40.6462 12.3601 40.6462 12.7163V17.6433C40.6462 17.9995 40.9349 18.2878 41.2908 18.2878C41.6469 18.2878 41.9353 17.9995 41.9353 17.6433V12.7163C41.9353 12.3601 41.6469 12.0718 41.2908 12.0718ZM18.3916 15.1484C18.3916 13.9322 19.3809 12.9429 20.5968 12.9429C21.813 12.9429 22.8023 13.9322 22.8023 15.1484C22.8023 16.3643 21.813 17.3536 20.5968 17.3536C19.3809 17.3536 18.3916 16.3643 18.3916 15.1484ZM19.6807 15.1484C19.6807 15.6536 20.0916 16.0645 20.5968 16.0645C21.102 16.0645 21.5132 15.6536 21.5132 15.1484C21.5132 14.6432 21.102 14.2319 20.5968 14.2319C20.0916 14.2319 19.6807 14.6432 19.6807 15.1484ZM24.7412 15.9312H27.8994C28.2553 15.9312 28.544 15.6425 28.544 15.2866C28.544 14.9308 28.2553 14.6421 27.8994 14.6421H24.7412C24.3854 14.6421 24.0967 14.9308 24.0967 15.2866C24.0967 15.6425 24.3854 15.9312 24.7412 15.9312ZM24.7412 16.1865H35.7503C36.1062 16.1865 36.3948 16.4749 36.3948 16.8311C36.3948 17.1869 36.1062 17.4756 35.7503 17.4756H24.7412C24.3854 17.4756 24.0967 17.1869 24.0967 16.8311C24.0967 16.4749 24.3854 16.1865 24.7412 16.1865ZM24.7445 14.1094H24.7489C25.1047 14.107 25.3914 13.8166 25.3894 13.4608C25.387 13.106 25.0987 12.8203 24.7448 12.8203H24.7405H24.7341C24.3779 12.8223 24.0946 13.1127 24.0969 13.4689C24.099 13.8234 24.3903 14.1094 24.7445 14.1094ZM18.3916 21.957C18.3916 20.7408 19.3809 19.7515 20.5968 19.7515C21.813 19.7515 22.8023 20.7408 22.8023 21.957C22.8023 23.1729 21.813 24.1622 20.5968 24.1622C19.3809 24.1622 18.3916 23.1729 18.3916 21.957ZM19.6807 21.9566C19.6807 22.4622 20.0916 22.8731 20.5968 22.8731C21.102 22.8731 21.5132 22.4622 21.5132 21.9566C21.5132 21.4514 21.102 21.0405 20.5968 21.0405C20.0916 21.0405 19.6807 21.4514 19.6807 21.9566ZM24.7412 22.7393H27.8994C28.2553 22.7393 28.544 22.4506 28.544 22.0947C28.544 21.7389 28.2553 21.4502 27.8994 21.4502H24.7412C24.3854 21.4502 24.0967 21.7389 24.0967 22.0947C24.0967 22.4506 24.3854 22.7393 24.7412 22.7393ZM24.7412 22.9956H35.7503C36.1062 22.9956 36.3948 23.284 36.3948 23.6401C36.3948 23.996 36.1062 24.2847 35.7503 24.2847H24.7412C24.3854 24.2847 24.0967 23.996 24.0967 23.6401C24.0967 23.284 24.3854 22.9956 24.7412 22.9956ZM24.7445 20.918H24.7489C25.1047 20.916 25.3914 20.6256 25.3894 20.2694C25.387 19.9149 25.0987 19.6289 24.7448 19.6289H24.7405H24.7341C24.3779 19.6313 24.0946 19.9216 24.0969 20.2775C24.099 20.6323 24.3903 20.918 24.7445 20.918ZM18.3916 28.7651C18.3916 27.5489 19.3809 26.5596 20.5968 26.5596C21.813 26.5596 22.8023 27.5489 22.8023 28.7651C22.8023 29.981 21.813 30.9703 20.5968 30.9703C19.3809 30.9703 18.3916 29.981 18.3916 28.7651ZM19.6807 28.7651C19.6807 29.2703 20.0916 29.6812 20.5968 29.6812C21.102 29.6812 21.5132 29.2703 21.5132 28.7651C21.5132 28.2599 21.102 27.8486 20.5968 27.8486C20.0916 27.8486 19.6807 28.2599 19.6807 28.7651ZM24.7412 29.5483H27.8994C28.2553 29.5483 28.544 29.2597 28.544 28.9038C28.544 28.548 28.2553 28.2593 27.8994 28.2593H24.7412C24.3854 28.2593 24.0967 28.548 24.0967 28.9038C24.0967 29.2597 24.3854 29.5483 24.7412 29.5483ZM35.7503 31.0933H24.7412C24.3854 31.0933 24.0967 30.8046 24.0967 30.4487C24.0967 30.0926 24.3854 29.8042 24.7412 29.8042H35.7503C36.1062 29.8042 36.3948 30.0926 36.3948 30.4487C36.3948 30.8046 36.1062 31.0933 35.7503 31.0933ZM24.7445 27.7266H24.7489C25.1047 27.7242 25.3914 27.4338 25.3894 27.078C25.387 26.7232 25.0987 26.4375 24.7448 26.4375H24.7405H24.7341C24.3779 26.4395 24.0946 26.7299 24.0969 27.0861C24.099 27.4406 24.3903 27.7266 24.7445 27.7266ZM37.3595 4.70801V8.44597C37.3595 8.80214 37.0708 9.0905 36.715 9.0905H19.3149C18.9588 9.0905 18.6704 8.80214 18.6704 8.44597V4.70801C18.6704 4.35184 18.9588 4.06348 19.3149 4.06348H36.715C37.0708 4.06348 37.3595 4.35184 37.3595 4.70801ZM19.9595 7.80144H36.0705V5.35254H19.9595V7.80144Z" fill="#B65855"/>
</svg>
