<svg width="62" height="62" viewBox="0 0 62 62" fill="none" xmlns="http://www.w3.org/2000/svg">
<circle cx="31" cy="31" r="30.5" fill="white" stroke="#D1C0C0"/>
<path fill-rule="evenodd" clip-rule="evenodd" d="M20.541 34.3946C21.2539 37.0147 22.9443 39.2002 25.3012 40.5488C26.0617 40.9844 26.3264 41.9575 25.8912 42.718C25.6804 43.0865 25.3386 43.3507 24.9288 43.4622C24.79 43.5 24.649 43.5186 24.5091 43.5186C24.2358 43.5186 23.9658 43.4475 23.7223 43.308C20.6284 41.5377 18.4093 38.6685 17.4736 35.2292C17.1594 34.0739 17 32.8885 17 31.7055C17 29.4041 17.6114 27.1192 18.7679 25.0979C19.7322 23.4128 21.0518 21.9598 22.6228 20.8436L22.4059 20.7729C22.0024 20.6413 21.6741 20.3604 21.4816 19.9818C21.2891 19.6035 21.2556 19.1729 21.3872 18.7691C21.6587 17.9358 22.5576 17.4788 23.391 17.7501L27.2719 19.0148C27.2772 19.0165 27.2823 19.0182 27.2872 19.0201C27.2917 19.0214 27.2962 19.0229 27.3001 19.0244C27.3129 19.0287 27.3257 19.0336 27.3383 19.0389C27.3684 19.0502 27.3977 19.0622 27.4265 19.075C27.4423 19.0821 27.4579 19.0893 27.4731 19.0968C27.5032 19.1113 27.5318 19.1265 27.5602 19.1425L27.5647 19.1449C27.5778 19.1521 27.5908 19.1594 27.6036 19.1673C27.6406 19.1897 27.6758 19.213 27.7091 19.2372C27.7217 19.2461 27.7343 19.2559 27.7469 19.2658L27.747 19.2658L27.7523 19.2698C27.7784 19.2901 27.8036 19.3104 27.8277 19.3318C27.84 19.3424 27.8517 19.3534 27.8634 19.3644L27.8634 19.3644L27.8634 19.3644L27.8691 19.3698L27.8732 19.3739C27.8924 19.392 27.9112 19.4106 27.9296 19.4298C27.9441 19.4454 27.958 19.4604 27.9715 19.4756C27.9903 19.4967 28.0082 19.5187 28.0259 19.5414L28.0298 19.5458L28.0313 19.5478L28.0313 19.5478C28.0407 19.5595 28.0501 19.5715 28.0591 19.5836C28.0868 19.6215 28.1118 19.6584 28.1347 19.6956L28.1358 19.6974C28.1407 19.7057 28.1455 19.7137 28.1498 19.7219C28.1686 19.7539 28.1864 19.7864 28.2024 19.8186C28.2086 19.8312 28.2141 19.843 28.2195 19.8549L28.2221 19.8607C28.2355 19.8898 28.2481 19.919 28.2596 19.9487C28.2656 19.9641 28.2716 19.9801 28.2774 19.9964C28.2876 20.025 28.2968 20.0545 28.3056 20.0844L28.3073 20.0906L28.3086 20.0953C28.3122 20.1078 28.3158 20.1201 28.319 20.1327C28.3276 20.1662 28.3348 20.2002 28.341 20.2341L28.3419 20.2378L28.3439 20.2486L28.3439 20.2487L28.3439 20.2487C28.3461 20.2602 28.3482 20.2718 28.35 20.2835C28.3562 20.3245 28.3611 20.3655 28.3641 20.4055C28.3656 20.425 28.3662 20.4451 28.3669 20.465L28.3669 20.4655L28.3671 20.4736C28.3682 20.4918 28.3688 20.5089 28.3688 20.5262C28.3688 20.5394 28.3686 20.5505 28.368 20.5612C28.3675 20.5808 28.3665 20.5999 28.3654 20.6189C28.3639 20.6447 28.3618 20.671 28.359 20.6973C28.3566 20.718 28.3541 20.7385 28.3511 20.759C28.3462 20.7923 28.34 20.8254 28.3329 20.8588L28.3318 20.8641L28.3318 20.8641C28.3295 20.8759 28.3271 20.8874 28.3242 20.8989C28.3139 20.9423 28.3013 20.9861 28.287 21.029L28.2847 21.0361C28.2832 21.0407 28.2817 21.0453 28.2802 21.0495L26.9499 24.8894C26.663 25.7174 25.7558 26.1577 24.9278 25.871C24.288 25.6495 23.8582 25.0458 23.8582 24.369C23.8582 24.1921 23.8879 24.0172 23.9462 23.8488L23.9556 23.8215C22.9812 24.6104 22.1558 25.5783 21.5271 26.6768C20.1783 29.0335 19.8282 31.7745 20.541 34.3946ZM24.6402 42.4014C24.7665 42.367 24.872 42.2856 24.937 42.1719C25.0711 41.9374 24.9895 41.6375 24.7549 41.5033C22.1434 40.0088 20.2701 37.5867 19.4802 34.6834C18.6902 31.78 19.0783 28.7427 20.5728 26.131C21.5694 24.3895 23.0126 22.9446 24.7468 21.9519C24.9455 21.838 25.1944 21.8594 25.3706 22.0057C25.5471 22.152 25.6144 22.3924 25.5394 22.609L24.985 24.209C24.9669 24.2611 24.9577 24.3152 24.9577 24.3694C24.9577 24.5779 25.0903 24.764 25.2875 24.8324C25.543 24.9208 25.8226 24.7849 25.9111 24.5297L27.2387 20.6973L27.2434 20.6827C27.2473 20.6718 27.2511 20.659 27.2543 20.6462L27.258 20.6278C27.2599 20.6191 27.262 20.6088 27.2635 20.5981C27.2646 20.5915 27.2652 20.5853 27.2659 20.5791C27.2667 20.5712 27.2674 20.5633 27.2678 20.5554L27.2682 20.5484C27.2685 20.5431 27.2689 20.5381 27.2689 20.533C27.2689 20.5311 27.2689 20.5289 27.2691 20.5268L27.2676 20.4854C27.2667 20.4764 27.2652 20.4638 27.2633 20.4514L27.2607 20.4379C27.2584 20.4255 27.2565 20.4155 27.2539 20.4057L27.2494 20.3905L27.2471 20.3829C27.2451 20.3764 27.2432 20.3698 27.2409 20.3634L27.2355 20.3493C27.2317 20.3392 27.2276 20.3303 27.2236 20.3213L27.218 20.3095C27.2125 20.2978 27.2065 20.2871 27.2003 20.2764C27.1977 20.2722 27.1952 20.2679 27.1928 20.2634C27.1879 20.2557 27.1821 20.2474 27.1753 20.2382L27.1631 20.223C27.1578 20.216 27.1522 20.2091 27.1465 20.2025C27.142 20.1974 27.1375 20.1927 27.1332 20.1882C27.1279 20.1826 27.1221 20.1769 27.1159 20.1713L27.1012 20.1572C27.0969 20.1535 27.092 20.1497 27.0869 20.1457L27.0792 20.1395L27.0631 20.1271C27.0561 20.122 27.0467 20.1158 27.0369 20.1098L27.0206 20.1006C27.011 20.0953 27.0025 20.0906 26.9935 20.0863L26.979 20.0797C26.9689 20.0752 26.9587 20.0711 26.9482 20.0673L26.9339 20.0617C26.9298 20.0605 26.9251 20.0587 26.9207 20.057L23.05 18.7958C22.9998 18.7796 22.9488 18.7717 22.8986 18.7717C22.6922 18.7717 22.4997 18.9033 22.4324 19.11C22.3918 19.2344 22.4021 19.3672 22.4615 19.4839C22.5209 19.6005 22.6219 19.687 22.7465 19.7276L24.0613 20.1562C24.2672 20.2232 24.4146 20.4048 24.4377 20.6201C24.4608 20.8355 24.3553 21.0444 24.1683 21.1536C22.325 22.2296 20.7875 23.7824 19.7222 25.6441C18.6605 27.4992 18.0993 29.5953 18.0995 31.7055C18.0995 32.7909 18.2459 33.8793 18.5345 34.9404C19.393 38.0964 21.4295 40.7293 24.2683 42.3537C24.382 42.4189 24.514 42.4358 24.6402 42.4014ZM38.2775 18.9923C41.3712 20.7628 43.5903 23.6319 44.5262 27.0713C45.4619 30.5106 45.0024 34.1084 43.2314 37.2026C42.2671 38.8876 40.9476 40.3407 39.3766 41.4569L39.5936 41.5276C40.4268 41.7991 40.8839 42.6978 40.6124 43.5312C40.3939 44.2015 39.7695 44.6285 39.1 44.6285C38.9372 44.6285 38.7716 44.6033 38.6086 44.5501L34.7277 43.2855L34.7128 43.2806L34.7076 43.2789L34.701 43.2767C34.6842 43.2707 34.669 43.2648 34.6538 43.2588L34.6493 43.2571C34.631 43.25 34.6126 43.2428 34.5944 43.2351C34.5754 43.227 34.5579 43.2188 34.5406 43.2105L34.5271 43.2041C34.5118 43.1968 34.4964 43.1894 34.4814 43.1815C34.4596 43.1699 34.4391 43.1582 34.4186 43.1462L34.4107 43.1415C34.3981 43.1342 34.3857 43.127 34.3736 43.1193C34.3509 43.1052 34.3287 43.09 34.3069 43.0746C34.2924 43.0646 34.2819 43.0573 34.2719 43.0496C34.2492 43.0328 34.227 43.015 34.2052 42.9969C34.1941 42.9879 34.1849 42.9802 34.176 42.9725C34.1548 42.9542 34.1345 42.9347 34.1142 42.9151C34.1029 42.9044 34.0946 42.8965 34.0864 42.8881C34.0672 42.8685 34.0491 42.8484 34.0309 42.8279C34.0198 42.8155 34.0115 42.8061 34.0033 42.7963C33.9869 42.7771 33.9713 42.757 33.9559 42.7367L33.9531 42.7331C33.9444 42.7217 33.9358 42.7102 33.9275 42.6987C33.9145 42.6805 33.9025 42.6621 33.8903 42.6438L33.885 42.6352C33.8765 42.6222 33.8679 42.6092 33.8598 42.5959C33.85 42.5792 33.8408 42.563 33.8318 42.5468L33.8254 42.5348C33.8166 42.5194 33.8083 42.5041 33.8004 42.4882C33.7925 42.4724 33.7854 42.4573 33.7786 42.4421L33.772 42.4278L33.7696 42.4225C33.7627 42.4072 33.7559 42.392 33.7496 42.3765C33.7429 42.3603 33.7365 42.3432 33.7303 42.3261L33.7256 42.3135C33.7194 42.2968 33.7135 42.28 33.7079 42.2627C33.7011 42.2422 33.6953 42.2214 33.6897 42.2007L33.6878 42.1939C33.6825 42.1757 33.6784 42.161 33.675 42.146C33.6675 42.1159 33.6615 42.0854 33.6562 42.0548L33.6535 42.0415L33.6507 42.0255C33.6374 41.9429 33.6306 41.8578 33.6306 41.7743C33.6306 41.6754 33.6406 41.5731 33.6609 41.4703C33.6667 41.4398 33.6722 41.4133 33.6786 41.3872C33.6821 41.3744 33.6853 41.3624 33.6889 41.3507C33.6959 41.3251 33.7038 41.2981 33.7128 41.2712L33.716 41.2614L33.7173 41.2573L35.0497 37.4113C35.1887 37.0101 35.4756 36.6869 35.8576 36.5015C36.2395 36.316 36.6709 36.2906 37.0718 36.4295C37.473 36.5685 37.796 36.8554 37.9814 37.2374C38.1669 37.6193 38.1925 38.0507 38.0536 38.4518L38.044 38.479C39.0184 37.6901 39.8438 36.7223 40.4727 35.6237C40.9153 34.8499 41.2548 34.0264 41.4814 33.1762C41.5596 32.8827 41.8608 32.7081 42.1541 32.7865C42.4474 32.8647 42.622 33.1657 42.5438 33.4592C42.2928 34.4015 41.9168 35.3135 41.427 36.1697C40.4304 37.9112 38.987 39.3563 37.253 40.3488C37.0541 40.4629 36.8054 40.4413 36.629 40.295C36.4525 40.1486 36.3855 39.9083 36.4604 39.6919L37.0146 38.0919C37.0575 37.9682 37.0496 37.8353 36.9926 37.7174C36.9353 37.5997 36.8358 37.5113 36.7121 37.4685C36.5884 37.4256 36.4555 37.4335 36.3376 37.4905C36.2199 37.5478 36.1315 37.6473 36.0887 37.771L34.7606 41.6045L34.758 41.6127L34.7572 41.6152C34.7543 41.6236 34.7521 41.6316 34.7498 41.6396L34.7482 41.6453L34.744 41.6605L34.7422 41.6693L34.741 41.6752L34.7401 41.6807C34.7333 41.7149 34.7301 41.7461 34.7301 41.7743C34.7301 41.797 34.7318 41.8202 34.7352 41.844C34.7359 41.8469 34.7365 41.8499 34.737 41.8529L34.7378 41.8574L34.7384 41.8608L34.7384 41.861C34.7399 41.8693 34.7412 41.8769 34.7429 41.8843L34.8031 42.0304L34.8106 42.042L34.8146 42.0481C34.8178 42.0529 34.8201 42.0565 34.8226 42.0599L34.823 42.0604L34.8307 42.0704C34.8354 42.0766 34.8395 42.0821 34.8437 42.0875L34.8542 42.099L34.8689 42.1157L34.8805 42.1264C34.8852 42.1311 34.8907 42.1364 34.8963 42.1415L34.9078 42.1509C34.9142 42.1563 34.92 42.1612 34.9258 42.1657L34.9392 42.1749C34.9454 42.1793 34.9523 42.1843 34.9593 42.1887L34.9732 42.1966L34.9841 42.203L34.9924 42.2078L35.0456 42.2313L35.0548 42.2347L35.0612 42.2372L35.0665 42.2389L35.0794 42.2436L38.9496 43.5047C39.2063 43.5884 39.4836 43.4474 39.5674 43.1906C39.6511 42.9336 39.5101 42.6566 39.2533 42.5728L37.9383 42.1443C37.7326 42.0772 37.5852 41.8957 37.5621 41.6803C37.539 41.465 37.6445 41.2561 37.8315 41.1469C39.6748 40.0707 41.2123 38.5178 42.2776 36.6563C43.9022 33.8175 44.3239 30.5159 43.4653 27.3599C42.6066 24.2038 40.5703 21.5711 37.7315 19.9465C37.4969 19.8124 37.197 19.894 37.0629 20.1285C36.9287 20.3631 37.0103 20.6632 37.2446 20.7974C39.8564 22.2919 41.7297 24.7139 42.5196 27.6173C42.5901 27.8771 42.6523 28.1417 42.7042 28.4045C42.7429 28.6002 42.777 28.7999 42.8052 28.9977C42.8484 29.2981 42.6397 29.5766 42.3391 29.6198C42.0388 29.663 41.7602 29.4542 41.7171 29.1537C41.6914 28.9749 41.6607 28.7948 41.6258 28.6179C41.5788 28.3804 41.5227 28.1407 41.4586 27.9059C40.7459 25.2858 39.0553 23.1002 36.6986 21.7516C35.9379 21.3163 35.6732 20.3432 36.1086 19.5825C36.5437 18.8218 37.5168 18.5571 38.2775 18.9923ZM31.1647 33.0191C32.9544 33.0191 34.437 32.503 35.5782 31.481C37.6614 29.6153 37.8161 26.7557 37.8216 26.6348C37.8291 26.4735 37.7652 26.3171 37.6471 26.2071C37.529 26.0971 37.3685 26.0448 37.2083 26.0636C33.3727 26.5147 31.6199 28.2132 30.8251 29.5584C30.2921 30.4603 30.1083 31.3234 30.0468 31.8754C29.2492 30.8746 27.7801 29.8169 25.0835 29.4997C24.9233 29.4807 24.7629 29.5334 24.6447 29.6435C24.5266 29.7535 24.4627 29.9098 24.4702 30.0709C24.4749 30.1726 24.6048 32.5765 26.3576 34.1462C27.3075 34.9971 28.5363 35.4311 30.0154 35.442V38.4411C30.0154 38.7449 30.2615 38.991 30.5651 38.991C30.8688 38.991 31.1149 38.7449 31.1149 38.4411V34.8879C31.1158 34.8599 31.1169 34.8061 31.1149 34.7302V33.0185C31.1232 33.0185 31.1315 33.0186 31.1398 33.0188C31.1482 33.019 31.1565 33.0191 31.1647 33.0191ZM31.7716 30.1179C32.6577 28.6183 34.2911 27.6574 36.6326 27.2566C36.4709 28.1107 36.0291 29.6009 34.8446 30.662C33.9115 31.4977 32.674 31.9196 31.1598 31.9196H31.1493C31.2066 31.4836 31.3608 30.8128 31.7716 30.1179ZM27.0978 33.3334C26.198 32.5314 25.8241 31.4103 25.6712 30.6998C29.1015 31.342 29.8287 33.381 29.9791 34.3425C28.7982 34.325 27.8307 33.9866 27.0978 33.3334ZM42.3216 31.7198C42.2189 31.7198 42.115 31.691 42.0225 31.6309L42.0074 31.6211C41.7527 31.4558 41.6805 31.1152 41.8459 30.8606C42.0112 30.606 42.3517 30.5335 42.6064 30.6991L42.6215 30.7089C42.8762 30.8743 42.9484 31.2148 42.783 31.4694C42.6777 31.6316 42.5015 31.7198 42.3216 31.7198Z" fill="#B45754"/>
</svg>
