<svg width="41" height="40" viewBox="0 0 41 40" fill="none" xmlns="http://www.w3.org/2000/svg">
<g clip-path="url(#clip0)">
<path d="M10.8385 34.5161C9.93159 34.5161 9.19336 35.2543 9.19336 36.1613C9.19336 37.0682 9.93159 37.8064 10.8385 37.8064C11.7454 37.8064 12.4837 37.0682 12.4837 36.1613C12.4837 35.2543 11.7454 34.5161 10.8385 34.5161ZM10.8385 36.7097C10.5365 36.7097 10.2901 36.4639 10.2901 36.1613C10.2901 35.8587 10.5365 35.6129 10.8385 35.6129C11.1406 35.6129 11.3869 35.8587 11.3869 36.1613C11.3869 36.4639 11.1406 36.7097 10.8385 36.7097Z" fill="#B45754"/>
<path d="M41 10.0382C41 7.81198 39.1886 6 36.9618 6C35.883 6 34.8689 6.42013 34.1063 7.183L32.153 9.13555C31.7256 8.88573 31.2426 8.74194 30.7341 8.74194C29.7629 8.74194 28.8718 9.23168 28.3499 10.051L24.946 15.3994L25.9659 16.4194L24.5484 17.8375L24.1799 17.469C23.8567 17.1455 23.427 16.9677 22.9696 16.9677C22.0258 16.9677 21.2581 17.7354 21.2581 18.6793C21.2581 19.13 21.4407 19.571 21.7593 19.8896L22.1278 20.2581L20.7097 21.6762L20.3412 21.3077C20.018 20.9842 19.5883 20.8065 19.1309 20.8065C18.187 20.8065 17.4194 21.5741 17.4194 22.518C17.4194 22.9687 17.602 23.4097 17.9206 23.7283L18.2891 24.0968L16.871 25.5149L16.5025 25.1464C16.1793 24.823 15.7496 24.6452 15.2922 24.6452C14.3483 24.6452 13.5806 25.4128 13.5806 26.3567C13.5806 26.8074 13.7633 27.2484 14.0819 27.567L14.4504 27.9355L13.0323 29.3536L12.6638 28.9851C12.3406 28.6617 11.9108 28.4839 11.4535 28.4839C10.5096 28.4839 9.74194 29.2516 9.74194 30.1954C9.74194 30.6461 9.92455 31.0871 10.2432 31.4057L10.6116 31.7742L7.95539 34.4299C7.33953 35.0463 7 35.8657 7 36.737C7 38.5364 8.46362 40 10.263 40C11.1343 40 11.9537 39.6605 12.5701 39.0441L15.2258 36.3884L15.5943 36.7568C15.9174 37.0803 16.3472 37.2581 16.8046 37.2581C17.7484 37.2581 18.5161 36.4904 18.5161 35.5465C18.5161 35.0958 18.3335 34.6548 18.0149 34.3362L17.6464 33.9677L19.0645 32.5496L19.433 32.9181C19.7562 33.2416 20.1859 33.4194 20.6433 33.4194C21.5872 33.4194 22.3548 32.6517 22.3548 31.7078C22.3548 31.2571 22.1722 30.8161 21.8536 30.4975L21.4851 30.129L22.9032 28.7109L23.2717 29.0794C23.5949 29.4028 24.0246 29.5806 24.482 29.5806C25.4259 29.5806 26.1935 28.813 26.1935 27.8691C26.1935 27.4184 26.0109 26.9774 25.6923 26.6588L25.3238 26.2903L26.7419 24.8722L27.1104 25.2407C27.4336 25.5641 27.8633 25.7419 28.3207 25.7419C29.2646 25.7419 30.0323 24.9742 30.0323 24.0304C30.0323 23.5797 29.8496 23.1387 29.531 22.8201L29.1626 22.4516L30.5806 21.0335L31.6006 22.0534L36.949 18.6496C37.7689 18.1288 38.2581 17.2377 38.2581 16.2665C38.2581 15.758 38.1143 15.2749 37.8636 14.847L39.817 12.8942C40.5799 12.1316 41 11.117 41 10.0382ZM11.7941 38.2686C11.3855 38.6778 10.8414 38.9032 10.263 38.9032C9.0685 38.9032 8.09677 37.9315 8.09677 36.737C8.09677 36.1586 8.32223 35.6145 8.73138 35.2054L11.3871 32.5496L14.4504 35.6129L11.7941 38.2686ZM16.8046 36.1613C16.6402 36.1613 16.4859 36.0976 16.3697 35.9814L11.0186 30.6303C10.9046 30.5157 10.8387 30.3572 10.8387 30.1954C10.8387 29.8564 11.1145 29.5806 11.4535 29.5806C11.6179 29.5806 11.7721 29.6444 11.8884 29.7606L17.2394 35.1116C17.3535 35.2262 17.4194 35.3848 17.4194 35.5465C17.4194 35.8855 17.1436 36.1613 16.8046 36.1613ZM16.871 33.1923L13.8077 30.129L15.2258 28.7109L18.2891 31.7742L16.871 33.1923ZM20.6433 32.3226C20.4789 32.3226 20.3246 32.2589 20.2084 32.1426L14.8574 26.7916C14.7433 26.677 14.6774 26.5185 14.6774 26.3567C14.6774 26.0177 14.9532 25.7419 15.2922 25.7419C15.4566 25.7419 15.6109 25.8057 15.7271 25.9219L21.0781 31.2729C21.1922 31.3875 21.2581 31.5461 21.2581 31.7078C21.2581 32.0468 20.9823 32.3226 20.6433 32.3226ZM20.7097 29.3536L17.6464 26.2903L19.0645 24.8722L22.1278 27.9355L20.7097 29.3536ZM24.482 28.4839C24.3176 28.4839 24.1633 28.4201 24.0471 28.3039L18.6961 22.9529C18.582 22.8383 18.5161 22.6798 18.5161 22.518C18.5161 22.179 18.7919 21.9032 19.1309 21.9032C19.2953 21.9032 19.4496 21.967 19.5658 22.0832L24.9168 27.4342C25.0309 27.5488 25.0968 27.7073 25.0968 27.8691C25.0968 28.2081 24.821 28.4839 24.482 28.4839ZM24.5484 25.5149L21.4851 22.4516L22.9032 21.0335L25.9665 24.0968L24.5484 25.5149ZM28.3207 24.6452C28.1563 24.6452 28.002 24.5814 27.8858 24.4652L22.5348 19.1142C22.4207 18.9996 22.3548 18.841 22.3548 18.6793C22.3548 18.3403 22.6306 18.0645 22.9696 18.0645C23.134 18.0645 23.2883 18.1282 23.4045 18.2445L28.7555 23.5955C28.8696 23.7101 28.9355 23.8686 28.9355 24.0304C28.9355 24.3694 28.6597 24.6452 28.3207 24.6452ZM28.3871 21.6762L25.3238 18.6129L26.7419 17.1948L29.8052 20.2581L28.3871 21.6762ZM26.3438 15.2457L28.7266 11.5021L35.4979 18.2734L31.7543 20.6562L26.3438 15.2457ZM36.437 17.6615L29.3385 10.563C29.6638 10.1118 30.1736 9.83871 30.7341 9.83871C31.196 9.83871 31.6303 10.0186 31.9564 10.3453L36.6547 15.043C36.9814 15.3697 37.1613 15.804 37.1613 16.2665C37.1613 16.8269 36.8882 17.3367 36.437 17.6615ZM37.1613 13.9987L33.0013 9.83871L34.8815 7.95818C35.4371 7.40283 36.1764 7.09677 36.9618 7.09677C38.5839 7.09677 39.9032 8.41606 39.9032 10.0382C39.9032 10.8241 39.5972 11.5629 39.0418 12.1185L37.1613 13.9987Z" fill="#B45754"/>
<path d="M37.1613 8.19336C36.2543 8.19336 35.5161 8.93159 35.5161 9.83852C35.5161 10.7454 36.2543 11.4837 37.1613 11.4837C38.0682 11.4837 38.8064 10.7454 38.8064 9.83852C38.8064 8.93159 38.0682 8.19336 37.1613 8.19336ZM37.1613 10.3869C36.8592 10.3869 36.6129 10.1411 36.6129 9.83852C36.6129 9.53594 36.8592 9.29013 37.1613 9.29013C37.4633 9.29013 37.7097 9.53594 37.7097 9.83852C37.7097 10.1411 37.4633 10.3869 37.1613 10.3869Z" fill="#B45754"/>
</g>
<g clip-path="url(#clip1)">
<path d="M2.25827 16.7744C1.72478 16.7744 1.29053 17.2087 1.29053 17.7422C1.29053 18.2756 1.72478 18.7099 2.25827 18.7099C2.79176 18.7099 3.22601 18.2756 3.22601 17.7422C3.22601 17.2087 2.79176 16.7744 2.25827 16.7744ZM2.25827 18.0647C2.0806 18.0647 1.93569 17.9201 1.93569 17.7422C1.93569 17.5642 2.0806 17.4196 2.25827 17.4196C2.43594 17.4196 2.58085 17.5642 2.58085 17.7422C2.58085 17.9201 2.43594 18.0647 2.25827 18.0647Z" fill="#B45754"/>
<path d="M20 2.37541C20 1.06587 18.9344 0 17.6246 0C16.99 0 16.3935 0.247133 15.9449 0.69588L14.7959 1.84444C14.5445 1.69749 14.2603 1.6129 13.9612 1.6129C13.3899 1.6129 12.8657 1.90099 12.5588 2.38297L10.5565 5.52908L11.1564 6.12903L10.3226 6.96321L10.1058 6.74647C9.91573 6.5562 9.66293 6.45161 9.3939 6.45161C8.83868 6.45161 8.3871 6.90319 8.3871 7.45842C8.3871 7.72351 8.49452 7.98293 8.68196 8.17036L8.89869 8.3871L8.06452 9.22127L7.84778 9.00454C7.65767 8.81426 7.40486 8.70968 7.13584 8.70968C6.58061 8.70968 6.12903 9.16126 6.12903 9.71648C6.12903 9.98157 6.23645 10.241 6.42389 10.4284L6.64062 10.6452L5.80645 11.4793L5.58972 11.2626C5.3996 11.0723 5.1468 10.9677 4.87777 10.9677C4.32255 10.9677 3.87097 11.4193 3.87097 11.9745C3.87097 12.2396 3.97839 12.4991 4.16583 12.6865L4.38256 12.9032L3.54839 13.7374L3.33165 13.5207C3.14154 13.3304 2.88873 13.2258 2.61971 13.2258C2.06448 13.2258 1.6129 13.6774 1.6129 14.2326C1.6129 14.4977 1.72032 14.7571 1.90776 14.9446L2.1245 15.1613L0.561996 16.7235C0.199723 17.0861 0 17.568 0 18.0806C0 19.139 0.86095 20 1.91942 20C2.43196 20 2.91394 19.8003 3.27652 19.4377L4.83871 17.8755L5.05544 18.0922C5.24556 18.2825 5.49836 18.3871 5.76739 18.3871C6.32261 18.3871 6.77419 17.9355 6.77419 17.3803C6.77419 17.1152 6.66677 16.8558 6.47933 16.6683L6.2626 16.4516L7.09677 15.6174L7.31351 15.8342C7.50362 16.0244 7.75643 16.129 8.02545 16.129C8.58068 16.129 9.03226 15.6775 9.03226 15.1222C9.03226 14.8571 8.92484 14.5977 8.7374 14.4103L8.52067 14.1935L9.35484 13.3594L9.57157 13.5761C9.76169 13.7664 10.0145 13.871 10.2835 13.871C10.8387 13.871 11.2903 13.4194 11.2903 12.8642C11.2903 12.5991 11.1829 12.3397 10.9955 12.1522L10.7787 11.9355L11.6129 11.1013L11.8296 11.318C12.0198 11.5083 12.2726 11.6129 12.5416 11.6129C13.0968 11.6129 13.5484 11.1613 13.5484 10.6061C13.5484 10.341 13.441 10.0816 13.2535 9.89415L13.0368 9.67742L13.871 8.84325L14.4709 9.4432L17.617 7.44093C18.0993 7.13458 18.3871 6.61038 18.3871 6.03909C18.3871 5.73998 18.3025 5.45583 18.1551 5.20413L19.3041 4.05541C19.7529 3.60682 20 3.01002 20 2.37541ZM2.82006 18.9815C2.5797 19.2222 2.25964 19.3548 1.91942 19.3548C1.21677 19.3548 0.645161 18.7832 0.645161 18.0806C0.645161 17.7404 0.777785 17.4203 1.01846 17.1796L2.58065 15.6174L4.38256 17.4194L2.82006 18.9815ZM5.76739 17.7419C5.67068 17.7419 5.57995 17.7044 5.51159 17.6361L2.36391 14.4884C2.29681 14.421 2.25806 14.3277 2.25806 14.2326C2.25806 14.0332 2.4203 13.871 2.61971 13.871C2.71642 13.871 2.80714 13.9085 2.8755 13.9768L6.02319 17.1245C6.09028 17.1919 6.12903 17.2852 6.12903 17.3803C6.12903 17.5797 5.9668 17.7419 5.76739 17.7419ZM5.80645 15.9955L4.00454 14.1935L4.83871 13.3594L6.64062 15.1613L5.80645 15.9955ZM8.02545 15.4839C7.92874 15.4839 7.83802 15.4464 7.76966 15.378L4.62198 12.2303C4.55488 12.1629 4.51613 12.0697 4.51613 11.9745C4.51613 11.7751 4.67836 11.6129 4.87777 11.6129C4.97448 11.6129 5.06521 11.6504 5.13357 11.7188L8.28125 14.8664C8.34835 14.9338 8.3871 15.0271 8.3871 15.1222C8.3871 15.3216 8.22486 15.4839 8.02545 15.4839ZM8.06452 13.7374L6.2626 11.9355L7.09677 11.1013L8.89869 12.9032L8.06452 13.7374ZM10.2835 13.2258C10.1868 13.2258 10.0961 13.1883 10.0277 13.12L6.88004 9.97228C6.81294 9.90486 6.77419 9.81162 6.77419 9.71648C6.77419 9.51707 6.93643 9.35484 7.13584 9.35484C7.23255 9.35484 7.32327 9.39233 7.39163 9.46068L10.5393 12.6084C10.6064 12.6758 10.6452 12.769 10.6452 12.8642C10.6452 13.0636 10.4829 13.2258 10.2835 13.2258ZM10.3226 11.4793L8.52067 9.67742L9.35484 8.84325L11.1568 10.6452L10.3226 11.4793ZM12.5416 10.9677C12.4449 10.9677 12.3541 10.9303 12.2858 10.8619L9.1381 7.71421C9.071 7.6468 9.03226 7.55355 9.03226 7.45842C9.03226 7.25901 9.19449 7.09677 9.3939 7.09677C9.49061 7.09677 9.58134 7.13426 9.6497 7.20262L12.7974 10.3503C12.8645 10.4177 12.9032 10.511 12.9032 10.6061C12.9032 10.8055 12.741 10.9677 12.5416 10.9677ZM12.5806 9.22127L10.7787 7.41935L11.6129 6.58518L13.4148 8.3871L12.5806 9.22127ZM11.3787 5.43867L12.7804 3.23652L16.7635 7.21963L14.5613 8.62131L11.3787 5.43867ZM17.3159 6.85972L13.1403 2.68413C13.3317 2.41872 13.6316 2.25806 13.9612 2.25806C14.2329 2.25806 14.4884 2.36391 14.6803 2.55607L17.4439 5.31943C17.6361 5.51159 17.7419 5.76707 17.7419 6.03909C17.7419 6.36876 17.5813 6.66866 17.3159 6.85972ZM17.7419 4.70514L15.2949 2.25806L16.4009 1.15187C16.7277 0.825195 17.1626 0.645161 17.6246 0.645161C18.5788 0.645161 19.3548 1.42121 19.3548 2.37541C19.3548 2.8377 19.1748 3.27227 18.8481 3.59911L17.7419 4.70514Z" fill="#B45754"/>
<path d="M17.7422 1.29053C17.2087 1.29053 16.7744 1.72478 16.7744 2.25827C16.7744 2.79176 17.2087 3.22601 17.7422 3.22601C18.2756 3.22601 18.7099 2.79176 18.7099 2.25827C18.7099 1.72478 18.2756 1.29053 17.7422 1.29053ZM17.7422 2.58085C17.5645 2.58085 17.4196 2.43626 17.4196 2.25827C17.4196 2.08028 17.5645 1.93569 17.7422 1.93569C17.9198 1.93569 18.0647 2.08028 18.0647 2.25827C18.0647 2.43626 17.9198 2.58085 17.7422 2.58085Z" fill="#B45754"/>
</g>
<defs>
<clipPath id="clip0">
<rect x="7" y="6" width="34" height="34" fill="white"/>
</clipPath>
<clipPath id="clip1">
<rect width="20" height="20" fill="white"/>
</clipPath>
</defs>
</svg>
