<svg width="49" height="49" viewBox="0 0 49 49" fill="none" xmlns="http://www.w3.org/2000/svg">
<path d="M11.7034 1.63337C14.659 1.63337 18.0501 1.83597 20.7952 3.33889C22.5369 4.33124 24.0658 5.65759 25.294 7.24195C25.877 7.96614 26.3786 8.73607 26.9106 9.55117C27.4927 10.4847 28.132 11.3813 28.8246 12.236C29.9925 13.6188 31.3852 14.7948 32.9439 15.7148L31.3727 19.2698C31.2614 19.5225 31.2852 19.8143 31.4359 20.0456C31.5866 20.2769 31.844 20.4164 32.1201 20.4167L32.1456 20.4163L42.4928 20.0957C42.802 20.0863 43.0792 19.9028 43.209 19.6219C43.3388 19.341 43.2986 19.011 43.1053 18.7695L36.5321 10.5506C36.3537 10.3276 36.072 10.214 35.7889 10.2508C35.5058 10.2875 35.2623 10.4693 35.1468 10.7305L33.6082 14.212C32.2748 13.3999 31.0816 12.3776 30.0745 11.1847C29.4247 10.3804 28.8249 9.5371 28.2785 8.65932C27.7491 7.81684 27.1774 7.00174 26.5654 6.21726C25.2034 4.46512 23.5083 2.99972 21.5776 1.90545C18.511 0.226529 14.8656 0 11.7034 0C11.2523 0 10.8867 0.365586 10.8867 0.816635C10.8867 1.26768 11.2523 1.63337 11.7034 1.63337ZM34.6398 15.9181C34.7407 15.8103 34.8021 15.6715 34.8138 15.5242L36.0965 12.6216L40.8091 18.5138L33.3913 18.7435L34.6398 15.9181Z" fill="#B45754"/>
<path d="M41.1606 25.9144C34.3544 25.9144 29.464 24.0339 26.2093 20.1654C25.5626 19.3638 24.9652 18.5235 24.4205 17.6492C23.8894 16.8053 23.3161 15.9888 22.7026 15.2028C21.343 13.4459 19.6468 11.9779 17.7133 10.8842C14.6293 9.1995 10.8171 8.9834 7.8399 8.9834C5.75299 8.99919 4.07273 10.7011 4.08355 12.788C4.08718 14.142 4.80228 15.3944 5.96651 16.0857C6.89674 16.5474 7.94593 16.7133 8.97321 16.5615L8.98355 16.5611V46.1914C8.97656 47.7331 10.2189 48.9895 11.7606 48.9999H37.2399C38.7816 48.9895 40.0239 47.7331 40.0169 46.1914V33.5148C40.4097 33.5205 40.7929 33.5233 41.1606 33.5233C43.2427 33.4967 44.9167 31.8012 44.9167 29.7189C44.9167 27.6366 43.2427 25.941 41.1606 25.9144ZM11.7606 47.3667C11.1206 47.3572 10.609 46.8315 10.6169 46.1915V44.1232C12.4264 44.272 14.1903 44.7672 15.8128 45.5818C16.8286 46.111 17.808 46.7074 18.7446 47.3667H11.7606ZM38.3835 46.1915C38.3915 46.8316 37.8799 47.3573 37.2399 47.3667H21.8188C21.4661 47.1773 21.1045 46.9668 20.7375 46.7299C20.3842 46.5013 20.0381 46.2685 19.6927 46.036C18.6865 45.3285 17.6344 44.6886 16.5433 44.1207C14.6942 43.1922 12.6806 42.6365 10.6169 42.4851V36.7732C12.4253 36.9222 14.1885 37.416 15.8112 38.2278C16.8452 38.7695 17.8426 39.3782 18.7971 40.0502C19.1457 40.2846 19.4941 40.5187 19.8506 40.75C22.9695 42.6586 26.4666 43.8648 30.0988 44.285C32.8447 44.6639 35.6118 44.8698 38.3835 44.9015V46.1915ZM38.3835 43.2679C35.6906 43.2368 33.0021 43.0368 30.3341 42.669C26.9349 42.2808 23.6606 41.1582 20.7383 39.3788C20.3897 39.1531 20.0492 38.9242 19.7087 38.6949C18.6963 37.9844 17.6386 37.3405 16.5425 36.7673C14.6928 35.8415 12.6797 35.287 10.6169 35.1352V26.2413C12.4738 26.5313 14.2185 27.316 15.6676 28.5129C16.7328 29.4057 17.7311 30.3753 18.6543 31.4143C19.0029 31.7875 19.3514 32.1608 19.7078 32.5285C22.5135 35.3948 26.1064 37.3643 30.0318 38.1877C32.7762 38.7926 35.5738 39.1237 38.3835 39.1761V43.2679ZM38.3835 37.5418C35.6981 37.4904 33.0243 37.1738 30.4011 36.5964C26.7825 35.841 23.4692 34.0294 20.8803 31.3906C20.531 31.0304 20.1896 30.6652 19.8483 30.2992C18.8703 29.2019 17.8131 28.1778 16.6854 27.235C14.9503 25.803 12.8474 24.8882 10.6169 24.595V16.6174C12.5398 17.061 14.277 18.0918 15.5879 19.5668C16.6791 20.7543 17.6822 22.0199 18.589 23.3535C18.9359 23.8381 19.2836 24.3221 19.6393 24.799C22.175 28.3336 25.8128 30.9258 29.9817 32.1685C32.7173 32.9492 35.5398 33.3852 38.3836 33.4665V37.5418H38.3835ZM41.1606 31.8899C37.5482 31.9823 33.9417 31.5496 30.4538 30.6055C26.6216 29.4599 23.2784 27.0743 20.9489 23.8229C20.5988 23.354 20.2575 22.8779 19.9161 22.4017C18.9628 21.0035 17.9085 19.6767 16.7619 18.4321C15.257 16.8741 12.8532 14.9976 9.94785 14.9046L9.81789 14.9015C9.78525 14.8991 9.75645 14.9011 9.72534 14.9011C9.44943 14.9011 9.16864 14.9155 8.88631 14.9306C8.18041 15.0463 7.45613 14.9593 6.79759 14.6797C6.12949 14.2833 5.71902 13.5649 5.71691 12.788C5.70505 11.6028 6.65471 10.6315 7.8399 10.6167C10.6225 10.6167 14.1707 10.8101 16.9301 12.3174C18.675 13.3094 20.2051 14.6386 21.4313 16.2276C22.0101 16.9714 22.5513 17.7437 23.0527 18.5417C23.6336 19.4712 24.2704 20.3646 24.9596 21.2169C28.5436 25.477 33.8424 27.5477 41.1605 27.5477C42.3405 27.5742 43.2834 28.5384 43.2834 29.7187C43.2834 30.899 42.3406 31.8634 41.1606 31.8899Z" fill="#B45754"/>
</svg>
