<svg width="62" height="62" viewBox="0 0 62 62" fill="none" xmlns="http://www.w3.org/2000/svg">
<circle cx="31" cy="31" r="30.5" fill="white" stroke="#D1C0C0"/>
<path fill-rule="evenodd" clip-rule="evenodd" d="M45.3613 25.4224C44.5181 22.1224 42.5561 19.6643 39.8372 18.5002C36.6887 17.1519 33.0736 17.8145 29.9733 19.9415C29.9618 19.9394 29.9505 19.9364 29.9393 19.9333C29.9202 19.9281 29.9011 19.9229 29.8803 19.9229H25C24.6912 19.9229 24.4416 20.1726 24.4416 20.4813C24.4416 20.7901 24.6912 21.0401 25 21.0401H28.5644C27.484 21.9926 26.4972 23.1366 25.6502 24.4408C25.6394 24.4391 25.6291 24.4362 25.6188 24.4333C25.603 24.4289 25.5873 24.4245 25.5699 24.4245H22.0107C21.7019 24.4245 21.452 24.6744 21.452 24.9832C21.452 25.292 21.7019 25.5419 22.0107 25.5419H24.9914C24.7056 26.0601 24.439 26.5974 24.1993 27.1571C24.0548 27.495 23.9295 27.8367 23.8065 28.1787L23.8033 28.1782L23.799 28.1771C23.7963 28.1763 23.7937 28.1755 23.7908 28.1755H17.5092C17.2004 28.1755 16.9504 28.4254 16.9504 28.7342C16.9504 29.043 17.2004 29.293 17.5092 29.293H23.4488C22.7551 31.6967 22.5854 34.1458 22.9741 36.429H20.51C20.2012 36.429 19.9512 36.6787 19.9512 36.9874C19.9512 37.2962 20.2012 37.5462 20.51 37.5462H23.2071C23.5312 38.8065 24.0213 39.9413 24.6519 40.9299H20.4985C20.1897 40.9299 19.9397 41.1799 19.9397 41.4887C19.9397 41.7974 20.1897 42.0471 20.4985 42.0471H25.3788C25.4003 42.0471 25.4201 42.0417 25.44 42.0362C25.4515 42.0331 25.4629 42.03 25.4747 42.0279C26.3742 43.0795 27.4638 43.9084 28.7251 44.4486C29.834 44.9236 31.0016 45.1489 32.1837 45.1489C36.9259 45.1489 41.9104 41.5181 44.3624 35.7916C45.8366 32.351 46.1911 28.6681 45.3613 25.4224ZM43.3357 35.3521C40.5149 41.9394 34.1594 45.5593 29.1646 43.4219C26.7718 42.3974 25.0384 40.2056 24.2834 37.2499C23.514 34.2407 23.849 30.8125 25.226 27.5969C27.498 22.2928 32.0619 18.9125 36.3602 18.9125C37.4 18.9125 38.4251 19.1107 39.3977 19.5269C41.7899 20.5513 43.5234 22.7431 44.279 25.6989C45.0481 28.708 44.7128 32.1362 43.3357 35.3521ZM22.3728 21.0401H21.2605C20.9517 21.0401 20.7021 20.7902 20.7021 20.4814C20.7021 20.1726 20.9517 19.923 21.2605 19.923H22.3728C22.6816 19.923 22.9316 20.1726 22.9316 20.4814C22.9316 20.7902 22.6816 21.0401 22.3728 21.0401ZM22.0107 32.4859C22.0107 32.1771 21.7607 31.9271 21.4519 31.9271H19.0098C18.7011 31.9271 18.4511 32.1771 18.4511 32.4859C18.4511 32.7947 18.7011 33.0443 19.0098 33.0443H21.4519C21.7607 33.0443 22.0107 32.7947 22.0107 32.4859ZM17.8716 40.93H16.7589C16.4502 40.93 16.2002 41.18 16.2002 41.4888C16.2002 41.7975 16.4502 42.0472 16.7589 42.0472H17.8716C18.1804 42.0472 18.4304 41.7975 18.4304 41.4888C18.4304 41.18 18.1804 40.93 17.8716 40.93ZM30.3949 24.3858C30.2872 24.4846 30.1517 24.5338 30.0162 24.5338C29.8656 24.5338 29.7157 24.4731 29.6054 24.3536C29.3964 24.1266 29.4108 23.7734 29.6377 23.5644C30.1028 23.1357 30.596 22.7499 31.1039 22.4172C31.3619 22.2465 31.7084 22.32 31.8771 22.5779C32.0462 22.8359 31.9743 23.1817 31.716 23.3508C31.2596 23.6503 30.815 23.9984 30.3949 24.3858ZM39.4748 21.9086C37.8407 20.8928 35.8407 20.6307 33.841 21.1683C33.5431 21.2492 33.3667 21.5557 33.4472 21.8536C33.5275 22.1512 33.8343 22.3277 34.1322 22.2474C35.3529 21.9185 36.5324 21.9355 37.6122 22.2778L37.0666 23.5516C36.9448 23.8354 37.0765 24.1637 37.36 24.2849C37.4316 24.3162 37.5064 24.3302 37.5799 24.3302C37.7966 24.3302 38.0028 24.203 38.0933 23.9914L38.637 22.7212C38.6656 22.7369 38.6944 22.7521 38.7232 22.7673C38.7778 22.7961 38.8324 22.8248 38.8853 22.8576C42.0057 24.796 42.9378 29.4941 41.2807 33.8646L40.4155 33.4938C40.1342 33.3717 39.8034 33.5031 39.6825 33.7876C39.5607 34.0711 39.6921 34.399 39.976 34.5205L40.8384 34.89C40.8172 34.9341 40.7963 34.9783 40.7754 35.0224L40.7753 35.0225C40.7115 35.1574 40.6477 35.2922 40.5759 35.4251C39.6438 37.1553 38.3845 38.5611 36.9531 39.5252L36.7006 38.5547C36.6232 38.2559 36.3173 38.0804 36.0194 38.1549C35.7209 38.2325 35.5419 38.5378 35.6195 38.8363L35.9497 40.1063C35.4485 40.3578 34.9349 40.5672 34.4084 40.7075C33.1963 41.0297 32.0242 41.0106 30.9505 40.6708L31.4958 39.3973C31.6173 39.1135 31.4859 38.7852 31.2021 38.664C30.9211 38.5419 30.5906 38.6736 30.4691 38.9575L29.9251 40.2277C29.8958 40.2115 29.8663 40.196 29.8368 40.1804L29.8367 40.1804C29.7829 40.152 29.7291 40.1236 29.6767 40.0913C28.2588 39.2103 27.2998 37.7543 26.8217 36.0231L27.9759 35.4171C28.2492 35.2739 28.3543 34.936 28.2111 34.6627C28.067 34.3901 27.7304 34.2852 27.4568 34.4275L26.579 34.8884C26.3134 33.0732 26.5375 31.0472 27.2816 29.0846L28.1466 29.4551C28.2182 29.4861 28.293 29.5002 28.3665 29.5002C28.5832 29.5002 28.7894 29.3739 28.8798 29.1613C29.0016 28.8778 28.8699 28.5492 28.5864 28.4284L27.7237 28.0589C27.7452 28.0142 27.7664 27.9695 27.7876 27.9248C27.8513 27.7906 27.9149 27.6564 27.9861 27.5238C28.1328 27.2521 28.0315 26.9133 27.7598 26.7672C27.4872 26.6189 27.1493 26.7225 27.0032 26.9935C24.1641 32.2616 25.0994 38.563 29.0876 41.0403C30.1776 41.7179 31.3935 42.0603 32.6747 42.0603C33.3334 42.0603 34.0104 41.9695 34.6958 41.787C37.4568 41.0518 39.9584 38.9265 41.5592 35.9554C44.3979 30.6873 43.463 24.3859 39.4748 21.9086ZM30.0184 34.5071C29.9324 34.5557 29.8384 34.5787 29.7457 34.5787C29.5504 34.5787 29.3606 34.4758 29.258 34.2933C29.1068 34.0245 29.2027 33.6837 29.4718 33.5329L33.8426 31.0802L36.0878 25.8371C36.2089 25.5526 36.5394 25.4206 36.8211 25.5434C37.1049 25.6645 37.2363 25.9931 37.1145 26.2766L34.7945 31.6943C34.7466 31.8074 34.6619 31.9017 34.5545 31.9615L30.0184 34.5071Z" fill="#B45754"/>
</svg>
