<svg width="71" height="72" viewBox="0 0 71 72" fill="none" xmlns="http://www.w3.org/2000/svg">
<path d="M35.8394 71.5C54.9933 71.5 70.5001 55.5946 70.5001 36C70.5001 16.4054 54.9933 0.5 35.8394 0.5C16.6855 0.5 1.17871 16.4054 1.17871 36C1.17871 55.5946 16.6855 71.5 35.8394 71.5Z" fill="white" stroke="#D1C0C0"/>
<mask id="mask0" mask-type="alpha" maskUnits="userSpaceOnUse" x="1" y="1" width="69" height="70">
<ellipse cx="35.8394" cy="36" rx="34.1607" ry="35" fill="white"/>
</mask>
<g mask="url(#mask0)">
<rect x="1.67871" y="32.5854" width="68.3213" height="40.122" fill="#A88C7D"/>
<rect x="23.3413" y="30.8779" width="25.8288" height="1.70732" fill="#4A4A4A"/>
<path d="M35.6312 47.951C26.9621 47.951 20.0154 45.9341 14.5933 43.2222" stroke="#9C6209" stroke-width="4" stroke-linecap="round"/>
<path d="M1.67871 32.5854H15.8429L12.9267 52.2196H1.67871V32.5854Z" fill="#C8AFA1"/>
<path d="M70 32.5854H55.8358L58.752 52.2196H70V32.5854Z" fill="#C8AFA1"/>
<path d="M-1.2373 29.1709C-1.2373 29.1709 9.17753 47.9514 35.6312 47.9514" stroke="#424242" stroke-width="2" stroke-linecap="round"/>
<path d="M40.2164 47.0907C40.8709 47.4779 40.8709 48.4249 40.2164 48.8121L36.9316 50.7551C36.265 51.1495 35.4225 50.669 35.4225 49.8945L35.4225 46.0083C35.4225 45.2338 36.265 44.7533 36.9316 45.1477L40.2164 47.0907Z" fill="#424242"/>
</g>
</svg>
