<svg width="71" height="72" viewBox="0 0 71 72" fill="none" xmlns="http://www.w3.org/2000/svg">
<path d="M35.8394 71.5C54.9933 71.5 70.5001 55.5946 70.5001 36C70.5001 16.4054 54.9933 0.5 35.8394 0.5C16.6855 0.5 1.17871 16.4054 1.17871 36C1.17871 55.5946 16.6855 71.5 35.8394 71.5Z" fill="white" stroke="#D1C0C0"/>
<mask id="mask0" mask-type="alpha" maskUnits="userSpaceOnUse" x="1" y="1" width="69" height="70">
<ellipse cx="35.8394" cy="36" rx="34.1607" ry="35" fill="white"/>
</mask>
<g mask="url(#mask0)">
<rect x="1.67871" y="32.5854" width="68.3213" height="40.122" fill="#A88C7D"/>
<rect x="23.3413" y="30.8779" width="25.8288" height="1.70732" fill="#4A4A4A"/>
<path d="M61.2517 41.1221C61.2517 41.1221 54.1696 47.9513 35.6312 47.9513C26.9621 47.9513 20.0154 45.9344 14.5933 43.2225" stroke="#836250" stroke-width="4" stroke-linecap="round"/>
<path d="M1.67871 32.5854H15.8429L12.9267 52.2196H1.67871V32.5854Z" fill="#C8AFA1"/>
<path d="M70 32.5854H55.8358L58.752 52.2196H70V32.5854Z" fill="#C8AFA1"/>
</g>
</svg>
