<svg width="71" height="72" viewBox="0 0 71 72" fill="none" xmlns="http://www.w3.org/2000/svg">
<path d="M35.8394 71.5C54.9933 71.5 70.5001 55.5946 70.5001 36C70.5001 16.4054 54.9933 0.5 35.8394 0.5C16.6855 0.5 1.17871 16.4054 1.17871 36C1.17871 55.5946 16.6855 71.5 35.8394 71.5Z" fill="white" stroke="#D1C0C0"/>
<mask id="mask0" mask-type="alpha" maskUnits="userSpaceOnUse" x="1" y="1" width="69" height="70">
<ellipse cx="35.8394" cy="36" rx="34.1607" ry="35" fill="white"/>
</mask>
<g mask="url(#mask0)">
<rect x="1.67871" y="32.5854" width="68.3213" height="40.122" fill="#A88C7D"/>
<rect x="23.3413" y="30.8779" width="25.8288" height="1.70732" fill="#4A4A4A"/>
<path d="M14.5933 43.2222C20.0154 45.9341 26.9621 47.951 35.6312 47.951C39.1609 47.951 42.2753 47.7034 45.0046 47.3025" stroke="#9C6209" stroke-width="4" stroke-linecap="round"/>
<path d="M1.67871 32.5854H15.8429L12.9267 52.2196H1.67871V32.5854Z" fill="#C8AFA1"/>
<path d="M70 32.5854H55.8358L58.752 52.2196H70V32.5854Z" fill="#C8AFA1"/>
<path d="M-1.2373 29.1709C-1.2373 29.1709 9.17753 47.9514 35.6312 47.9514C38.9826 47.9514 41.9596 47.7282 44.588 47.3625" stroke="#424242" stroke-width="2" stroke-linecap="round"/>
<path d="M47.2083 46.3809C47.9008 46.6912 48.0035 47.6331 47.3949 48.0924L44.341 50.3972C43.7215 50.8647 42.8326 50.4828 42.7486 49.713L42.3274 45.8509C42.2434 45.0811 43.0282 44.5076 43.7332 44.8235L47.2083 46.3809Z" fill="#424242"/>
<path d="M16.1207 32.9266C16.1207 35.5668 14.3798 37.7071 12.2324 37.7071C10.085 37.7071 8.34424 35.5668 8.34424 32.9266C8.34424 30.2864 12.2324 25.7559 12.2324 25.7559C12.2324 25.7559 16.1207 30.2864 16.1207 32.9266Z" fill="#77B8F4"/>
<ellipse cx="10.2885" cy="32.7274" rx="0.972052" ry="0.995935" fill="#EEEEEE"/>
<path d="M22.7862 23.5365C22.7862 26.1766 21.0454 28.3169 18.898 28.3169C16.7506 28.3169 15.0098 26.1766 15.0098 23.5365C15.0098 20.8963 18.898 16.3657 18.898 16.3657C18.898 16.3657 22.7862 20.8963 22.7862 23.5365Z" fill="#77B8F4"/>
<ellipse cx="16.954" cy="23.3372" rx="0.972052" ry="0.995935" fill="#EEEEEE"/>
<path d="M12.7876 20.1219C12.7876 22.7621 11.0468 24.9024 8.89944 24.9024C6.75204 24.9024 5.01123 22.7621 5.01123 20.1219C5.01123 17.4817 8.89944 12.9512 8.89944 12.9512C8.89944 12.9512 12.7876 17.4817 12.7876 20.1219Z" fill="#77B8F4"/>
<ellipse cx="6.95545" cy="19.9227" rx="0.972052" ry="0.995935" fill="#EEEEEE"/>
</g>
</svg>
