<svg width="62" height="62" viewBox="0 0 62 62" fill="none" xmlns="http://www.w3.org/2000/svg">
<circle cx="31" cy="31" r="30.5" fill="white" stroke="#D1C0C0"/>
<path fill-rule="evenodd" clip-rule="evenodd" d="M27.253 19.134C27.0177 19.134 26.7918 19.0021 26.6829 18.7759L25.1084 15.5066C24.9569 15.1922 25.0891 14.8143 25.4037 14.6629C25.7183 14.5114 26.0959 14.6436 26.2474 14.9579L27.8221 18.2273C27.9736 18.5419 27.8414 18.9198 27.5268 19.0712C27.4383 19.1138 27.3449 19.134 27.253 19.134ZM19.274 20.5204L22.1149 22.7854C22.2313 22.8784 22.3704 22.9233 22.5085 22.9233C22.6944 22.9233 22.8785 22.8418 23.0033 22.6853C23.221 22.4123 23.176 22.0144 22.9032 21.7969L20.0624 19.5319C19.7896 19.3142 19.3917 19.3589 19.1739 19.632C18.9565 19.9051 19.0012 20.3027 19.274 20.5204ZM45.0786 33.9684L47.3831 35.2938C47.6856 35.4681 47.7899 35.8543 47.6157 36.1571C47.4988 36.3605 47.286 36.4741 47.067 36.4741C46.96 36.4741 46.8518 36.447 46.7524 36.3899L44.4425 35.0613L44.5431 37.6302C44.5566 37.9792 44.2848 38.273 43.9358 38.2866L43.9298 38.2869L43.923 38.2871L43.9109 38.2871C43.573 38.2871 43.2928 38.0202 43.2794 37.6797L43.148 34.3169L40.2903 32.6732C39.928 33.059 39.456 33.3397 38.9247 33.4658V36.7408L41.7833 38.5365C42.0791 38.7223 42.1681 39.1126 41.9825 39.4081C41.8624 39.5994 41.6568 39.7042 41.4464 39.7042C41.3315 39.7042 41.2154 39.6728 41.1108 39.6073L38.9247 38.2337V40.887C38.9247 41.2359 38.6417 41.5192 38.2925 41.5192C37.9433 41.5192 37.6603 41.2359 37.6603 40.887V38.2335L35.4722 39.6073C35.1766 39.7929 34.7864 39.7037 34.6008 39.4081C34.415 39.1126 34.5042 38.7223 34.8 38.5365L37.6603 36.7408V33.466C37.1285 33.34 36.6562 33.0592 36.2937 32.6737L33.8063 34.1039V40.8867C33.8063 41.2359 33.5233 41.5189 33.1741 41.5189C28.4204 41.5189 24.2795 38.2048 23.1041 33.4598C23.0201 33.121 23.2267 32.7782 23.5655 32.6942C23.9043 32.6107 24.2473 32.817 24.3311 33.1559C25.314 37.1229 28.6397 39.9545 32.5419 40.2323V21.3603C28.6402 21.6381 25.3142 24.4691 24.3311 28.4348C24.2473 28.7737 23.9043 28.9805 23.5655 28.8965C23.2267 28.8125 23.0201 28.4697 23.1041 28.1306C24.2797 23.3868 28.4207 20.0735 33.1741 20.0735C33.5233 20.0735 33.8063 20.3565 33.8063 20.7057V27.4866L36.2947 28.9175C36.657 28.5324 37.129 28.2522 37.6603 28.1267V24.8501L34.8002 23.0559C34.5044 22.8706 34.4152 22.4804 34.6006 22.1845C34.7862 21.8887 35.1764 21.7995 35.472 21.9851L37.6603 23.3577V20.7057C37.6603 20.3565 37.9433 20.0735 38.2925 20.0735C38.6417 20.0735 38.9247 20.3565 38.9247 20.7057V23.3574L41.1111 21.9851C41.4067 21.7995 41.7969 21.8887 41.9825 22.1845C42.1681 22.4801 42.0789 22.8703 41.7833 23.0559L38.9247 24.8501V28.1267C39.4558 28.2524 39.9276 28.5329 40.2896 28.918L43.148 27.2748L43.2794 23.9108C43.2933 23.5618 43.5871 23.2897 43.9358 23.3038C44.2848 23.3174 44.5566 23.6112 44.5431 23.9602L44.4425 26.5304L46.7527 25.2023C47.0552 25.0286 47.4417 25.1329 47.6157 25.4354C47.7897 25.7381 47.6854 26.1246 47.3829 26.2986L45.0791 27.623L47.3614 28.8206C47.6705 28.9827 47.7897 29.365 47.6275 29.6742C47.5146 29.8895 47.2947 30.0128 47.0673 30.0128C46.9682 30.0128 46.8679 29.9896 46.7742 29.9401L43.7806 28.3696L40.9213 30.0133C40.9954 30.2614 41.0357 30.5236 41.0357 30.7955C41.0357 31.0671 40.9954 31.3295 40.9215 31.5777L43.7801 33.2216L46.7744 31.6523C47.0834 31.4899 47.4654 31.6093 47.6278 31.9187C47.7899 32.2279 47.6705 32.6099 47.3614 32.7721L45.0786 33.9684ZM33.8065 28.9452V32.6455L35.6623 31.5784C35.5881 31.33 35.5478 31.0676 35.5478 30.7952C35.5478 30.5234 35.5884 30.2607 35.6625 30.0123L33.8065 28.9452ZM36.8122 30.7952C36.8122 31.6118 37.4765 32.2758 38.2928 32.2758C39.1081 32.2758 39.7714 31.6118 39.7714 30.7952C39.7714 29.9799 39.1081 29.3166 38.2928 29.3166C37.4765 29.3166 36.8122 29.9799 36.8122 30.7952ZM24.0442 30.7953C24.0442 31.1452 23.7608 31.4285 23.4128 31.4285C23.0631 31.4285 22.7799 31.145 22.7799 30.7953C22.7799 30.4473 23.0631 30.1641 23.4128 30.1641C23.7608 30.1641 24.0442 30.4473 24.0442 30.7953ZM22.1149 38.8072L19.274 41.0722C19.0012 41.2899 18.9565 41.6875 19.1739 41.9606C19.2987 42.1173 19.4829 42.1986 19.6687 42.1986C19.8069 42.1986 19.946 42.1536 20.0624 42.0607L22.9032 39.7957C23.176 39.5782 23.221 39.1803 23.0033 38.9073C22.7856 38.6344 22.3879 38.5894 22.1149 38.8072ZM26.6829 42.8149C26.8343 42.5003 27.212 42.3679 27.5268 42.5196C27.8414 42.6709 27.9736 43.0487 27.8221 43.3633L26.2477 46.6344C26.1387 46.8605 25.9128 46.9925 25.6775 46.9925C25.5856 46.9925 25.4922 46.9725 25.4037 46.9297C25.0891 46.7782 24.9569 46.4006 25.1084 46.086L26.6829 42.8149ZM16.192 27.5685L19.7302 28.3756C19.7776 28.3865 19.8249 28.3914 19.8716 28.3914C20.16 28.3914 20.4204 28.193 20.4872 27.8999C20.5648 27.5593 20.3517 27.2205 20.0114 27.1429L16.473 26.3357C16.1324 26.2586 15.7938 26.4712 15.7162 26.8117C15.6386 27.152 15.8514 27.4909 16.192 27.5685ZM19.73 33.2152C20.0703 33.1373 20.4093 33.3504 20.4872 33.6907C20.565 34.031 20.352 34.37 20.0117 34.4479L16.4732 35.2568C16.426 35.2674 16.3786 35.2726 16.3319 35.2726C16.0437 35.2726 15.7832 35.0741 15.7163 34.7813C15.6384 34.4407 15.8512 34.1016 16.1915 34.024L19.73 33.2152Z" fill="#B45754"/>
</svg>
