<svg width="47" height="47" viewBox="0 0 47 47" fill="none" xmlns="http://www.w3.org/2000/svg">
<g clip-path="url(#clip0)">
<path d="M24.9658 37.8208C23.7512 37.8208 22.7627 38.8093 22.7627 40.0239C22.7627 41.2386 23.7512 42.2271 24.9658 42.2271C26.1805 42.2271 27.1689 41.2386 27.1689 40.0239C27.1689 38.8093 26.1805 37.8208 24.9658 37.8208ZM24.9658 40.7583C24.5604 40.7583 24.2314 40.4293 24.2314 40.0239C24.2314 39.6186 24.5604 39.2896 24.9658 39.2896C25.3712 39.2896 25.7002 39.6186 25.7002 40.0239C25.7002 40.4293 25.3712 40.7583 24.9658 40.7583Z" fill="#B45754"/>
<path d="M13.9531 37.8208C12.7385 37.8208 11.75 38.8093 11.75 40.0239C11.75 41.2386 12.7385 42.2271 13.9531 42.2271C15.1678 42.2271 16.1562 41.2386 16.1562 40.0239C16.1562 38.8093 15.1678 37.8208 13.9531 37.8208ZM13.9531 40.7583C13.5477 40.7583 13.2188 40.4293 13.2188 40.0239C13.2188 39.6186 13.5477 39.2896 13.9531 39.2896C14.3585 39.2896 14.6875 39.6186 14.6875 40.0239C14.6875 40.4293 14.3585 40.7583 13.9531 40.7583Z" fill="#B45754"/>
<path d="M4.40479 29.0083H12.4829C12.889 29.0083 13.2173 28.68 13.2173 28.2739C13.2173 27.8678 12.889 27.5396 12.4829 27.5396H4.40479C3.99868 27.5396 3.67041 27.8678 3.67041 28.2739C3.67041 28.68 3.99868 29.0083 4.40479 29.0083Z" fill="#B45754"/>
<path d="M13.2173 30.4766C13.2173 30.0705 12.889 29.7422 12.4829 29.7422H4.40479C3.99868 29.7422 3.67041 30.0705 3.67041 30.4766C3.67041 30.8827 3.99868 31.2109 4.40479 31.2109H12.4829C12.889 31.2109 13.2173 30.8827 13.2173 30.4766Z" fill="#B45754"/>
<path d="M46.2671 39.2893H38.9204V11.3831H40.3906V22.4038C40.0491 22.4038 39.7392 22.6307 39.6709 22.9796C39.5916 23.3776 39.8494 23.7639 40.2467 23.8439L40.3906 23.8726V24.6099C40.0491 24.6099 39.7392 24.8375 39.6709 25.1856C39.5916 25.5837 39.8494 25.9699 40.2467 26.05L40.3906 26.0786V26.8152C40.0491 26.8152 39.7392 27.0429 39.6709 27.391C39.5916 27.789 39.8494 28.1753 40.2467 28.2553L40.3906 28.284V29.0205C40.0491 29.0198 39.7392 29.2482 39.6709 29.5963C39.5916 29.9943 39.8494 30.3806 40.2467 30.4606L40.3906 30.4893V31.2259C40.0491 31.2251 39.7392 31.4535 39.6709 31.8016C39.5916 32.1996 39.8494 32.5859 40.2467 32.666L40.3906 32.6946V33.4312C40.0491 33.4305 39.7392 33.6589 39.6709 34.0069C39.5916 34.405 39.8494 34.7913 40.2467 34.8713L40.3906 34.8992V35.6189C40.3906 35.6483 40.4046 35.6725 40.4068 35.7011C40.4127 35.7511 40.4207 35.7996 40.4362 35.8473C40.4523 35.8965 40.4758 35.9406 40.5015 35.9846C40.5162 36.0089 40.5199 36.036 40.5375 36.0595L41.6391 37.529C41.6552 37.551 41.6817 37.5599 41.7 37.5789C41.7294 37.6113 41.75 37.6487 41.7859 37.6759C41.8109 37.6942 41.8403 37.7031 41.8667 37.7185C41.8917 37.7332 41.9145 37.7464 41.9416 37.7574C42.0334 37.7971 42.1289 37.8235 42.2258 37.8235H42.2266H42.2273C42.3242 37.8235 42.4197 37.7971 42.5115 37.7574C42.5379 37.7464 42.5607 37.7332 42.5864 37.7185C42.6129 37.7031 42.6422 37.695 42.6672 37.6759C42.7032 37.6487 42.7237 37.6113 42.7531 37.5789C42.7715 37.5599 42.7979 37.551 42.8141 37.529L43.9156 36.0595C43.9325 36.0368 43.9369 36.0096 43.9516 35.9846C43.9773 35.9406 44.0001 35.8972 44.017 35.8473C44.0324 35.7988 44.0405 35.7511 44.0464 35.7011C44.0486 35.674 44.0625 35.649 44.0625 35.6196H44.0632C44.4062 35.6196 44.7132 35.3788 44.7822 35.0292C44.8615 34.6312 44.6037 34.2449 44.2064 34.1648L44.0625 34.1362V33.4143H44.0632C44.4062 33.4143 44.7132 33.1734 44.7822 32.8239C44.8615 32.4258 44.6037 32.0396 44.2064 31.9595L44.0625 31.9309V31.209H44.0632C44.4062 31.209 44.7132 30.9681 44.7822 30.6185C44.8615 30.2205 44.6037 29.8342 44.2064 29.7542L44.0625 29.7263V29.0044H44.0632C44.4062 29.0044 44.7132 28.7635 44.7822 28.4139C44.8615 28.0159 44.6037 27.6296 44.2064 27.5496L44.0625 27.5209V26.7991H44.0632C44.4062 26.7991 44.7132 26.5582 44.7822 26.2086C44.8615 25.8106 44.6037 25.4243 44.2064 25.3443L44.0625 25.3156V24.593H44.0632C44.4062 24.593 44.7132 24.3521 44.7822 24.0026C44.8615 23.6045 44.6037 23.2182 44.2064 23.1382L44.0625 23.1096V11.3831H45.5313C45.9374 11.3831 46.2656 11.0541 46.2656 10.6487V5.49557C46.2656 5.0902 45.9374 4.7612 45.5313 4.7612H38.9204V3.3042C38.9204 2.89882 38.5922 2.56982 38.186 2.56982H35.9829C35.5768 2.56982 35.2485 2.89882 35.2485 3.3042V4.87723C33.9847 5.2055 33.0454 6.34598 33.0454 7.71045V26.0713H31.598C31.5899 26.0713 31.584 26.0669 31.5767 26.0669H29.3155C28.9755 24.3881 27.4899 23.1198 25.7119 23.1198L22.0371 23.1191C20.0088 23.1191 18.3594 24.7692 18.3594 26.7976V33.415H16.8892V24.6033C16.8892 24.1979 16.5609 23.8689 16.1548 23.8689H14.686V20.9307C14.686 20.5253 14.3578 20.1963 13.9517 20.1963H13.5845V18.7275C13.5845 18.3222 13.2562 17.9932 12.8501 17.9932C12.444 17.9932 12.1157 18.3222 12.1157 18.7275V20.1963H11.7485C11.3424 20.1963 11.0142 20.5253 11.0142 20.9307V23.8689H0.73291C0.326801 23.8689 -0.00146484 24.1979 -0.00146484 24.6033V34.1494V36.3525C-0.00146484 36.7586 0.326801 37.0869 0.73291 37.0869L0.743191 41.4932C0.337816 41.4946 0.0102852 41.8222 0.0102852 42.2275C0.0102852 42.6336 0.338551 42.9619 0.74466 42.9619H1.47904H1.4805H2.21341C2.61952 42.9619 2.94779 42.6336 2.94779 42.2275C2.94779 41.8214 2.61952 41.4932 2.21341 41.4932H2.21194L2.20166 37.0869H7.34229V40.0244C7.34229 40.4305 7.67055 40.7588 8.07666 40.7588H9.61297C9.96474 42.8393 11.7742 44.4307 13.9531 44.4307C16.132 44.4307 17.9423 42.8393 18.2933 40.7588H20.6257C20.9774 42.8393 22.7869 44.4307 24.9658 44.4307C27.1447 44.4307 28.9549 42.8393 29.306 40.7588H30.8423V42.9619C30.8423 43.368 31.1706 43.6963 31.5767 43.6963H46.2671C46.6732 43.6963 47.0015 43.368 47.0015 42.9619V40.0244C47.0015 40.0244 47.0015 40.0244 47.0015 40.0237C47.0015 39.6176 46.6732 39.2893 46.2671 39.2893ZM42.5938 35.3751L42.2266 35.8649L41.8594 35.3751V35.1937L42.5938 35.3406V35.3751ZM41.8594 33.6956V32.9884L42.5938 33.1352V33.8424L41.8594 33.6956ZM41.8594 31.4902V30.783L42.5938 30.9299V31.6371L41.8594 31.4902ZM41.8594 29.2849V28.5777L42.5938 28.7246V29.4318L41.8594 29.2849ZM41.8594 27.0796V26.3724L42.5938 26.5193V27.2265L41.8594 27.0796ZM41.8594 24.8743V24.1663L42.5938 24.3132V25.0211L41.8594 24.8743ZM42.5938 22.8151L41.8594 22.6682V11.3831H42.5938V22.8151ZM38.9322 6.22995H44.7969V9.91431H38.9322V6.22995ZM24.9658 35.6182C22.7869 35.6182 20.9767 37.2096 20.6257 39.29H18.2933C17.9415 37.2096 16.132 35.6182 13.9531 35.6182C11.7742 35.6182 9.96401 37.2096 9.61297 39.29H8.81104V34.8838H16.1548H30.8423V39.29H29.306C28.9549 37.2096 27.1447 35.6182 24.9658 35.6182ZM30.8423 27.5356V30.4775H22.7642V27.5356H30.8423ZM35.2485 27.54V33.415H32.311V27.54H35.2485ZM32.311 39.2893V37.0869H35.2485V39.2893H32.311ZM35.2485 35.6182H32.311V34.8838H35.2485V35.6182ZM22.7642 31.9463H30.8423V33.415H22.7642V31.9463ZM45.5327 40.7581V42.2275H32.311V40.7581H45.5327ZM36.7173 4.03857H37.4517V39.2893H36.7173V4.03857ZM34.5142 7.71045C34.5142 7.16921 34.8116 6.70068 35.2485 6.44586V26.0713H34.5142V7.71045ZM27.7866 26.0669H25.6407C25.5298 25.5176 25.286 25.0197 24.9585 24.5886H25.7112C26.6718 24.5886 27.4833 25.2091 27.7866 26.0669ZM19.8281 26.7976C19.8281 25.5793 20.8195 24.5879 22.0371 24.5879C22.9977 24.5879 23.8084 25.2084 24.1117 26.0669H22.0298C21.6237 26.0669 21.2954 26.3951 21.2954 26.8013V33.415H19.8281V26.7976ZM12.4829 21.665H13.2173V23.8689H12.4829V21.665ZM1.46729 25.3376H15.4204V33.415H8.07666H1.46729V25.3376ZM1.46729 35.6182V34.8838H7.34229V35.6182H1.46729ZM13.9531 42.9619C12.3382 42.9619 11.0252 41.6518 11.0171 40.0391C11.0171 40.034 11.02 40.0296 11.02 40.0244C11.02 40.0193 11.0171 40.0149 11.0171 40.0097C11.0252 38.397 12.3382 37.0869 13.9531 37.0869C15.5732 37.0869 16.8906 38.4044 16.8906 40.0244C16.8906 41.6444 15.5732 42.9619 13.9531 42.9619ZM24.9658 42.9619C23.3458 42.9619 22.0283 41.6444 22.0283 40.0244C22.0283 38.4044 23.3458 37.0869 24.9658 37.0869C26.5858 37.0869 27.9033 38.4044 27.9033 40.0244C27.9033 41.6444 26.5858 42.9619 24.9658 42.9619Z" fill="#B45754"/>
</g>
<defs>
<clipPath id="clip0">
<rect width="47" height="47" fill="white"/>
</clipPath>
</defs>
</svg>
