<svg width="63" height="61" viewBox="0 0 63 61" fill="none" xmlns="http://www.w3.org/2000/svg">
<path fill-rule="evenodd" clip-rule="evenodd" d="M22 57C31.9411 57 40 48.9411 40 39C40 29.0589 31.9411 21 22 21C12.0589 21 4 29.0589 4 39C4 48.9411 12.0589 57 22 57ZM22 61C34.1503 61 44 51.1503 44 39C44 26.8497 34.1503 17 22 17C9.84974 17 0 26.8497 0 39C0 51.1503 9.84974 61 22 61Z" fill="#B65855"/>
<path fill-rule="evenodd" clip-rule="evenodd" d="M38.5001 24.5001L7.70718 55.293L10.7071 58.2929L10 59L7.00008 56.0001L6.00015 57L5.29304 56.2929L6.29297 55.293L3 52L3.70711 51.2929L7.00008 54.5859L37.793 23.793L34 20L34.7071 19.2929L38.5001 23.0859L45.5859 16H63.0001V17H46.0002L39.2072 23.793L41.7071 26.2929L41 27L38.5001 24.5001Z" fill="black"/>
<path d="M52.1444 9.18002C52.5877 9.39468 53.0917 9.50202 53.6564 9.50202C54.1511 9.50202 54.5944 9.42035 54.9864 9.25702C55.3831 9.09368 55.7191 8.86035 55.9944 8.55702C56.2697 8.24902 56.4821 7.87568 56.6314 7.43702C56.7807 6.99368 56.8554 6.49435 56.8554 5.93902C56.8554 5.45835 56.7994 5.02202 56.6874 4.63002C56.5801 4.23335 56.4214 3.88568 56.2114 3.58702L52.1444 9.18002ZM55.3714 2.80302C55.1334 2.66302 54.8697 2.55568 54.5804 2.48102C54.2957 2.40635 53.9877 2.36902 53.6564 2.36902C53.1617 2.36902 52.7161 2.45068 52.3194 2.61402C51.9274 2.77735 51.5914 3.01302 51.3114 3.32102C51.0361 3.62902 50.8237 4.00468 50.6744 4.44802C50.5251 4.88668 50.4504 5.38368 50.4504 5.93902C50.4504 6.47568 50.5181 6.95635 50.6534 7.38102C50.7887 7.80568 50.9871 8.17202 51.2484 8.48002L55.3714 2.80302ZM57.2684 2.13802C57.7491 2.60468 58.1201 3.16235 58.3814 3.81102C58.6474 4.45502 58.7804 5.16435 58.7804 5.93902C58.7804 6.68102 58.6567 7.36935 58.4094 8.00402C58.1667 8.63402 57.8214 9.18002 57.3734 9.64202C56.9254 10.104 56.3864 10.4657 55.7564 10.727C55.1264 10.9837 54.4264 11.112 53.6564 11.112C53.1851 11.112 52.7417 11.063 52.3264 10.965C51.9111 10.867 51.5214 10.7247 51.1574 10.538L50.6254 11.273C50.4901 11.4597 50.3291 11.5904 50.1424 11.665C49.9557 11.7397 49.7714 11.777 49.5894 11.777H48.8474L50.2124 9.90102C49.6757 9.43435 49.2604 8.86268 48.9664 8.18602C48.6724 7.50935 48.5254 6.76035 48.5254 5.93902C48.5254 5.19702 48.6491 4.51102 48.8964 3.88102C49.1437 3.24635 49.4914 2.69802 49.9394 2.23602C50.3921 1.77402 50.9334 1.41468 51.5634 1.15802C52.1934 0.896683 52.8911 0.766016 53.6564 0.766016C54.1744 0.766016 54.6574 0.82435 55.1054 0.941016C55.5581 1.05768 55.9757 1.22802 56.3584 1.45202L56.7714 0.878016C56.8321 0.794015 56.8881 0.724015 56.9394 0.668015C56.9907 0.607349 57.0444 0.558349 57.1004 0.521016C57.1564 0.483682 57.2194 0.458016 57.2894 0.444016C57.3641 0.425349 57.4527 0.416016 57.5554 0.416016H58.5144L57.2684 2.13802Z" fill="black"/>
</svg>
