<svg width="42" height="42" viewBox="0 0 42 42" fill="none" xmlns="http://www.w3.org/2000/svg">
<path d="M38.9168 10.0437L40.9538 8.00702C41.2922 7.66832 41.4037 7.16396 41.2393 6.71439C41.0749 6.2645 40.6644 5.95111 40.187 5.91074L36.4081 5.5919L36.0893 1.81302C36.0492 1.33589 35.7355 0.925415 35.2859 0.761032C34.8364 0.596329 34.332 0.70784 33.9933 1.04654L31.9563 3.08322C28.6622 1.06352 24.8958 0 21 0C15.3908 0 10.1171 2.1844 6.15074 6.15074C2.1844 10.1171 0 15.3908 0 21C0 26.6092 2.1844 31.8829 6.15074 35.8493C10.1171 39.8156 15.3908 42 21 42C26.6092 42 31.8829 39.8156 35.8493 35.8493C39.8156 31.8829 42 26.6092 42 21C42 17.1042 40.9365 13.3381 38.9168 10.0437ZM34.043 6.83423C34.0936 7.43216 34.5678 7.9064 35.1658 7.95703L37.3399 8.14032L34.397 11.0832L31.1876 10.8124L30.9168 7.60295L33.8597 4.66008L34.043 6.83423ZM25.1836 21C25.1836 23.3068 23.3068 25.1836 21 25.1836C18.6932 25.1836 16.8164 23.3068 16.8164 21C16.8164 18.6932 18.6932 16.8164 21 16.8164C21.7066 16.8164 22.3721 16.993 22.9563 17.3035L20.13 20.13C19.6494 20.6104 19.6494 21.3893 20.13 21.87C20.37 22.1103 20.685 22.2305 21 22.2305C21.315 22.2305 21.63 22.1103 21.87 21.87L24.6965 19.0437C25.007 19.6279 25.1836 20.2934 25.1836 21ZM24.7449 15.5148C23.6779 14.7842 22.3881 14.3555 21 14.3555C17.3362 14.3555 14.3555 17.3362 14.3555 21C14.3555 24.6638 17.3362 27.6445 21 27.6445C24.6638 27.6445 27.6445 24.6638 27.6445 21C27.6445 19.6119 27.2158 18.3221 26.4852 17.2551L29.9984 13.7418C31.6035 15.7279 32.5664 18.2536 32.5664 21C32.5664 27.3776 27.3776 32.5664 21 32.5664C14.6224 32.5664 9.43359 27.3776 9.43359 21C9.43359 14.6224 14.6224 9.43359 21 9.43359C23.7464 9.43359 26.2721 10.3965 28.2582 12.0016L24.7449 15.5148ZM34.109 34.109C30.6076 37.6107 25.952 39.5391 21 39.5391C16.048 39.5391 11.3924 37.6107 7.89102 34.109C4.38931 30.6076 2.46094 25.952 2.46094 21C2.46094 16.048 4.38931 11.3924 7.89102 7.89102C11.3924 4.38931 16.048 2.46094 21 2.46094C24.2396 2.46094 27.3776 3.29311 30.1606 4.87894L28.7728 6.26674C28.5485 6.49104 28.4206 6.79161 28.4126 7.10532C28.4117 7.15018 28.4129 7.19504 28.4165 7.24022L28.5821 9.20352C26.3945 7.79233 23.7913 6.97266 21 6.97266C13.2654 6.97266 6.97266 13.2654 6.97266 21C6.97266 28.7346 13.2654 35.0273 21 35.0273C28.7346 35.0273 35.0273 28.7346 35.0273 21C35.0273 18.2087 34.2077 15.6055 32.7965 13.4179L34.7598 13.5835C34.7944 13.5861 34.829 13.5877 34.8633 13.5877C34.869 13.5877 34.8751 13.5871 34.8809 13.5867C34.8972 13.5867 34.9133 13.5855 34.9296 13.5845C34.9562 13.5829 34.9831 13.5813 35.0094 13.5781C35.0257 13.5759 35.0421 13.5733 35.0584 13.5707C35.0844 13.5666 35.11 13.5618 35.1357 13.556C35.152 13.5521 35.168 13.548 35.184 13.5438C35.209 13.5371 35.2337 13.5294 35.2584 13.5211C35.2744 13.5156 35.2901 13.5102 35.3058 13.5041C35.3298 13.4948 35.3535 13.4845 35.3773 13.4733C35.3923 13.4666 35.4074 13.4599 35.4224 13.4522C35.4462 13.44 35.4692 13.4265 35.492 13.4131C35.5058 13.4047 35.5195 13.397 35.533 13.3887C35.5573 13.3727 35.5807 13.3554 35.6041 13.3378C35.615 13.3294 35.6262 13.3221 35.6368 13.3134C35.6701 13.2865 35.7025 13.258 35.7333 13.2272L37.1211 11.8394C38.7069 14.6224 39.5391 17.7604 39.5391 21C39.5391 25.952 37.6107 30.6076 34.109 34.109Z" fill="#B65855"/>
</svg>
