<svg width="86" height="86" viewBox="0 0 86 86" fill="none" xmlns="http://www.w3.org/2000/svg">
<circle cx="42.5581" cy="42.5581" r="41.5581" fill="white" stroke="#741E1F" stroke-width="2"/>
<circle cx="42.5579" cy="21.6282" r="5.52907" fill="white" stroke="#C9C5C5" stroke-width="1.5"/>
<circle cx="41.8606" cy="9.0696" r="5.52907" fill="white" stroke="#C9C5C5" stroke-width="1.5"/>
<circle cx="55.1165" cy="13.2556" r="5.52907" fill="white" stroke="#C9C5C5" stroke-width="1.5"/>
<circle r="5.52907" transform="matrix(-1 0 0 1 29.3025 13.9534)" fill="white" stroke="#C9C5C5" stroke-width="1.5"/>
<circle cx="66.9768" cy="23.0232" r="5.52907" fill="white" stroke="#C9C5C5" stroke-width="1.5"/>
<circle r="5.52907" transform="matrix(-1 0 0 1 16.7444 21.6282)" fill="white" stroke="#C9C5C5" stroke-width="1.5"/>
<circle cx="37.6741" cy="37.6741" r="5.52907" fill="white" stroke="#C9C5C5" stroke-width="1.5"/>
<circle cx="54.4182" cy="26.512" r="5.52907" fill="white" stroke="#C9C5C5" stroke-width="1.5"/>
<circle r="5.52907" transform="matrix(-1 0 0 1 30.698 26.512)" fill="white" stroke="#C9C5C5" stroke-width="1.5"/>
<circle cx="62.7908" cy="39.0696" r="5.52907" fill="white" stroke="#C9C5C5" stroke-width="1.5"/>
<circle cx="75.3489" cy="36.2791" r="5.52907" fill="white" stroke="#C9C5C5" stroke-width="1.5"/>
<circle r="5.52907" transform="matrix(-1 0 0 1 11.1628 35.5813)" fill="white" stroke="#C9C5C5" stroke-width="1.5"/>
<circle cx="36.9763" cy="51.6277" r="5.52907" fill="white" stroke="#C9C5C5" stroke-width="1.5"/>
<circle cx="50.2327" cy="39.7673" r="5.52907" fill="white" stroke="#C9C5C5" stroke-width="1.5"/>
<circle r="5.52907" transform="matrix(-1 0 0 1 24.4182 39.0696)" fill="white" stroke="#C9C5C5" stroke-width="1.5"/>
<circle cx="62.7908" cy="52.3259" r="5.52907" fill="white" stroke="#C9C5C5" stroke-width="1.5"/>
<circle cx="75.3489" cy="49.5349" r="5.52907" fill="white" stroke="#C9C5C5" stroke-width="1.5"/>
<circle r="5.52907" transform="matrix(-1 0 0 1 11.1628 48.8372)" fill="white" stroke="#C9C5C5" stroke-width="1.5"/>
<circle cx="41.1629" cy="63.4881" r="5.52907" fill="white" stroke="#C9C5C5" stroke-width="1.5"/>
<circle cx="41.8606" cy="76.7444" r="5.52907" fill="white" stroke="#C9C5C5" stroke-width="1.5"/>
<circle cx="50.2327" cy="53.0237" r="5.52907" fill="white" stroke="#C9C5C5" stroke-width="1.5"/>
<circle r="5.52907" transform="matrix(-1 0 0 1 23.7209 53.7205)" fill="white" stroke="#C9C5C5" stroke-width="1.5"/>
<circle cx="66.9768" cy="65.5813" r="5.52907" fill="white" stroke="#C9C5C5" stroke-width="1.5"/>
<circle r="5.52907" transform="matrix(-1 0 0 1 17.4416 64.8836)" fill="white" stroke="#C9C5C5" stroke-width="1.5"/>
<circle cx="55.1165" cy="71.8606" r="5.52907" fill="white" stroke="#C9C5C5" stroke-width="1.5"/>
<circle r="5.52907" transform="matrix(-1 0 0 1 29.9997 70.4646)" fill="white" stroke="#C9C5C5" stroke-width="1.5"/>
</svg>
