<svg width="86" height="87" viewBox="0 0 86 87" fill="none" xmlns="http://www.w3.org/2000/svg">
<circle cx="42.5581" cy="43.5" r="41.5581" fill="white" stroke="#741E1F" stroke-width="2"/>
<path d="M41.25 33C41.25 36.9619 37.8237 40.25 33.5 40.25C29.1763 40.25 25.75 36.9619 25.75 33C25.75 29.0381 29.1763 25.75 33.5 25.75C37.8237 25.75 41.25 29.0381 41.25 33Z" fill="white" stroke="#C9C5C5" stroke-width="1.5"/>
<circle cx="24.5" cy="16.5" r="7.75" fill="white" stroke="#C9C5C5" stroke-width="1.5"/>
<circle cx="45.5" cy="13.5" r="7.75" fill="white" stroke="#C9C5C5" stroke-width="1.5"/>
<circle r="7.25" transform="matrix(-1 0 0 1 23 66)" fill="white" stroke="#C9C5C5" stroke-width="1.5"/>
<circle cx="64.5" cy="20.5" r="7.75" fill="white" stroke="#C9C5C5" stroke-width="1.5"/>
<circle cx="52" cy="33" r="7.25" fill="white" stroke="#C9C5C5" stroke-width="1.5"/>
<circle r="7.67622" transform="matrix(0.720877 -0.693063 -0.693063 -0.720877 14.7622 33.8471)" fill="white" stroke="#C9C5C5" stroke-width="1.5"/>
<circle cx="68.5" cy="55.5" r="7.75" fill="white" stroke="#C9C5C5" stroke-width="1.5"/>
<circle cx="70.5" cy="38.5" r="7.75" fill="white" stroke="#C9C5C5" stroke-width="1.5"/>
<circle cx="50.5" cy="51.5" r="7.75" fill="white" stroke="#C9C5C5" stroke-width="1.5"/>
<path d="M65.25 69.5C65.25 73.8237 61.9619 77.25 58 77.25C54.0381 77.25 50.75 73.8237 50.75 69.5C50.75 65.1763 54.0381 61.75 58 61.75C61.9619 61.75 65.25 65.1763 65.25 69.5Z" fill="white" stroke="#C9C5C5" stroke-width="1.5"/>
<circle cx="33.5" cy="51.5" r="7.75" fill="white" stroke="#C9C5C5" stroke-width="1.5"/>
<path d="M48.25 70C48.25 73.9619 44.8237 77.25 40.5 77.25C36.1763 77.25 32.75 73.9619 32.75 70C32.75 66.0381 36.1763 62.75 40.5 62.75C44.8237 62.75 48.25 66.0381 48.25 70Z" fill="white" stroke="#C9C5C5" stroke-width="1.5"/>
<circle cx="13.5" cy="51.5" r="7.75" fill="white" stroke="#C9C5C5" stroke-width="1.5"/>
</svg>
