<svg width="51" height="51" viewBox="0 0 51 51" fill="none" xmlns="http://www.w3.org/2000/svg">
<path d="M51 2.98828V0C49.3195 0 47.7281 1.27391 46.5176 3.58749C45.3071 1.27391 43.7157 0 42.0352 0V2.98828C42.3573 2.98828 43.1145 3.52174 43.8795 4.99097C44.6655 6.50107 45.0234 8.1096 45.0234 8.96484C44.318 8.96484 42.827 8.96484 42.0352 8.96484V15.4192C38.6103 9.87689 32.4797 6.17578 25.5 6.17578C18.5203 6.17578 12.3897 9.87689 8.96484 15.4192V8.96484C8.16875 8.96484 6.675 8.96484 5.97656 8.96484C5.97656 8.1096 6.33453 6.50107 7.12051 4.99097C7.88548 3.52174 8.64267 2.98828 8.96484 2.98828V0C7.28432 0 5.69291 1.27391 4.48242 3.58749C3.27193 1.27391 1.68052 0 0 0V2.98828C0.322174 2.98828 1.07936 3.52174 1.84433 4.99097C2.63031 6.50107 2.98828 8.1096 2.98828 8.96484H0V27.3272H0.0599212C0.951347 40.5301 11.9753 50.9996 25.4 51V50.9977C25.4732 50.9992 25.4183 51 25.6004 51C39.5916 50.9996 51 39.643 51 25.5996V8.96484H48.0117C48.0117 8.1096 48.3697 6.50107 49.1557 4.99097C49.9206 3.52174 50.6778 2.98828 51 2.98828ZM25.5 9.16406C34.5625 9.16406 41.9355 16.5371 41.9355 25.5996C41.9355 33.0575 37.0049 39.45 29.9824 41.4184V38.2792C35.315 36.3963 38.9473 31.3388 38.9473 25.5996C38.9473 14.236 25.8319 8.19676 17.1694 15.05C13.9177 17.6223 12.0527 21.4678 12.0527 25.5996C12.0527 31.3388 15.685 36.3963 21.0176 38.2792V41.4184C13.9951 39.45 9.06445 33.0575 9.06445 25.5996C9.06445 16.5371 16.4375 9.16406 25.5 9.16406ZM35.959 25.5996C35.959 29.696 33.5793 33.3438 29.9824 35.0489C29.9824 35.0489 29.9824 31.5734 29.9824 31.5723C31.8443 30.1704 32.9707 27.9548 32.9707 25.5996C32.9707 19.5184 26.0907 15.9861 21.1487 19.5304C19.1954 20.9316 18.0293 23.2004 18.0293 25.5996C18.0293 27.9548 19.1557 30.1704 21.0176 31.5723V31.5762V35.0489C17.4207 33.3438 15.041 29.696 15.041 25.5996C15.041 22.3868 16.4924 19.3958 19.0234 17.3935C25.8475 11.9948 35.959 17.0453 35.959 25.5996ZM22.1643 28.5859C21.4386 27.7739 21.0176 26.7128 21.0176 25.5996C21.0176 24.1611 21.7176 22.8 22.8907 21.9588C24.0747 21.1094 25.5848 20.902 27.0366 21.3884C28.7992 22.0335 29.9824 23.7242 29.9824 25.5996C29.9824 26.7128 29.5614 27.7739 28.8357 28.5859C28.0147 27.6708 26.8237 27.0938 25.5 27.0938C24.1763 27.0938 22.9853 27.6708 22.1643 28.5859ZM2.98828 25.5996V11.9531H5.97656V25.5996H6.07617C6.07617 34.7061 12.3749 42.4558 21.0176 44.5028V46.5176C21.0176 46.8931 21.0647 47.2573 21.1518 47.6059C10.8185 45.6149 2.98828 36.5053 2.98828 25.5996ZM24.0059 46.5176V31.5762C24.0059 30.7524 24.6763 30.082 25.5 30.082C26.3237 30.082 26.9941 30.7524 26.9941 31.5762V46.5176C26.9941 47.3413 26.3237 48.0117 25.5 48.0117C24.6763 48.0117 24.0059 47.3413 24.0059 46.5176ZM48.0117 25.5996C48.0117 36.6286 40.0605 45.6534 29.8474 47.6094C29.9353 47.2596 29.9824 46.8942 29.9824 46.5176V44.5028C38.6364 42.4534 44.9238 34.6948 44.9238 25.5996H45.0234V11.9531H48.0117V25.5996Z" fill="#B45754"/>
</svg>
