<svg width="57" height="57" viewBox="0 0 57 57" fill="none" xmlns="http://www.w3.org/2000/svg">
<g clip-path="url(#clip0)">
<path d="M30.3926 17.3672C30.3926 16.7523 29.8941 16.2539 29.2793 16.2539C28.6644 16.2539 28.166 16.7523 28.166 17.3672C28.166 17.982 28.6644 18.4805 29.2793 18.4805C29.8941 18.4805 30.3926 17.982 30.3926 17.3672Z" fill="#B45754"/>
<path d="M12.5089 16.2539L8.29083 14.1449C8.13742 14.0682 7.96464 14.0273 7.79297 14.0273L1.11328 14.0273C0.498415 14.0273 -1.24345e-06 14.5258 -1.21658e-06 15.1406L-4.86631e-08 41.8594C-2.17865e-08 42.4742 0.498416 42.9727 1.11328 42.9727L7.79297 42.9727C7.95974 42.9727 8.12295 42.9338 8.27335 42.8624C8.27914 42.8597 8.28515 42.8579 8.29083 42.8551L12.5089 40.7461L44.4911 40.7461C44.4911 40.7461 48.7083 42.8548 48.7092 42.8551C48.8627 42.9318 49.0354 42.9727 49.207 42.9727L55.8867 42.9727C56.5016 42.9727 57 42.4742 57 41.8594L57 15.1406C57 14.5258 56.5016 14.0273 55.8867 14.0273C55.8867 14.0273 49.2074 14.0273 49.207 14.0273C49.0384 14.0273 48.8598 14.0695 48.7092 14.1449L44.4911 16.2539L34.2891 16.2539C33.6756 16.2539 33.1758 16.7538 33.1758 17.3672C33.1758 17.9806 33.6756 18.4805 34.2891 18.4805L43.6406 18.4805L43.6406 38.5195L13.3594 38.5195L13.3594 18.4805L24.2695 18.4805C24.8829 18.4805 25.3828 17.9806 25.3828 17.3672C25.3828 16.7538 24.8829 16.2539 24.2695 16.2539L12.5089 16.2539ZM2.22656 40.7461L2.22656 16.2539L6.67969 16.2539L6.67969 40.7461L2.22656 40.7461ZM54.7734 16.2539L54.7734 40.7461L50.3203 40.7461L50.3203 16.2539L54.7734 16.2539ZM45.8672 18.0552L48.0938 16.9419L48.0938 40.0581L45.8672 38.9448L45.8672 18.0552ZM11.1328 38.9448L8.90625 40.0581L8.90625 16.9419L11.1328 18.0552L11.1328 38.9448Z" fill="#B45754"/>
</g>
<defs>
<clipPath id="clip0">
<rect y="57" width="57" height="57" transform="rotate(-90 0 57)" fill="white"/>
</clipPath>
</defs>
</svg>
