<svg width="29" height="28" viewBox="0 0 29 28" fill="none" xmlns="http://www.w3.org/2000/svg">
<path d="M3.84038 27.4796C2.40038 25.2129 1.42705 22.8662 0.920384 20.4396C0.413717 17.9862 0.373717 15.5862 0.800384 13.2396C1.25372 10.8662 2.14705 8.59957 3.48038 6.43957C4.84038 4.27957 6.66705 2.31957 8.96038 0.55957L12.8804 2.87957C13.2271 3.0929 13.4671 3.3329 13.6004 3.59957C13.7337 3.86623 13.7871 4.14624 13.7604 4.43957C13.7604 4.70624 13.6937 4.9729 13.5604 5.23957C13.4537 5.47957 13.3071 5.6929 13.1204 5.87957C12.6671 6.35957 12.1737 7.10624 11.6404 8.11957C11.1337 9.10624 10.7604 10.2662 10.5204 11.5996C10.2804 12.9329 10.2671 14.3996 10.4804 15.9996C10.7204 17.5729 11.3737 19.1996 12.4404 20.8796C13.0271 21.8129 13.1737 22.6129 12.8804 23.2796C12.6137 23.9462 12.0804 24.4262 11.2804 24.7196L3.84038 27.4796ZM18.1604 27.4796C16.7204 25.2129 15.7471 22.8662 15.2404 20.4396C14.7337 17.9862 14.6937 15.5862 15.1204 13.2396C15.5737 10.8662 16.4671 8.59957 17.8004 6.43957C19.1604 4.27957 20.987 2.31957 23.2804 0.55957L27.2004 2.87957C27.5471 3.0929 27.7871 3.3329 27.9204 3.59957C28.0537 3.86623 28.1071 4.14624 28.0804 4.43957C28.0804 4.70624 28.0137 4.9729 27.8804 5.23957C27.7737 5.47957 27.6271 5.6929 27.4404 5.87957C26.9871 6.35957 26.4937 7.10624 25.9604 8.11957C25.4537 9.10624 25.0804 10.2662 24.8404 11.5996C24.6004 12.9329 24.5871 14.3996 24.8004 15.9996C25.0404 17.5729 25.6937 19.1996 26.7604 20.8796C27.3471 21.8129 27.4937 22.6129 27.2004 23.2796C26.9337 23.9462 26.4004 24.4262 25.6004 24.7196L18.1604 27.4796Z" fill="#C4C4C4"/>
</svg>
